# Wavefront OBJ file made by Mineways version 13.00, http://mineways.com
# World: EMPTY
# Terrain file name: C:\Users\kumar\Downloads\mineways_min\mineways_min\terrainExt.png
# Culling scheme: Standard
# Fri Aug 28 21:25:47 2026

# Selection location min to max: 68, -37, -140 to 78, -32, -130
#   Non-empty selection location min to max: 69, -36, -139 to 77, -33, -131

# Set render type: Wavefront OBJ absolute indices
# Units for the model vertex data itself: meters

# 212 vertices, 270 faces (540 triangles), 57 blocks
# block dimensions: X=9 by Y=4 (height) by Z=9 blocks
# Elevation shading: no
# Lighting: no
# Transparent water: no
# Map grid: no
# File type: Export no materials
# Texture output RGB: YES
# Texture output A: YES
# Texture output RGBA: YES
# Export separate types: YES
# Export individual blocks: no
#   Material per family: YES
#   Split by block type: YES
# Make groups objects: YES
# Custom material: YES
# Export lesser blocks: no
# Simplify mesh: no
# Double all billboard faces: no
# Create composite overlay faces: YES
# Center model: YES
# Use biomes: no
# Create block faces at the borders: YES
# Tree leaves solid: no
# Rotate model 0.000000 degrees
# Make Z the up direction instead of Y: no
# Scale model by making each block 1000 mm high
# Data operation options:
#   Fill air bubbles: no; Seal off entrances: no; Fill in isolated tunnels in base of model: no
#   Connect parts sharing an edge: no; Connect corner tips: no; Weld all shared edges: no
#   Delete floating objects: trees and parts smaller than 16 blocks: no
#   Hollow out bottom of model, making the walls 1000 mm thick: no; Superhollow: no
# Melt snow blocks: no
#   Debug: show separate parts as colors: no
#   Debug: show weld blocks in bright colors: no

# Full world path: C:\Users\kumar\AppData\Roaming\PrismLauncher\instances\26.1.2\minecraft\saves\EMPTY
# Full terrainExt.png path: C:\Users\kumar\Downloads\mineways_min\mineways_min\terrainExt.png
# Full current path: C:\Users\kumar\Downloads\mineways_min\mineways_min

# COMMON_MC_OBJ_START
# version: 1
# exporter: mineways
# world_name: EMPTY
# world_path: C:\Users\kumar\AppData\Roaming\PrismLauncher\instances\26.1.2\minecraft\saves\EMPTY
# export_bounds_min: (68, -37, -140)
# export_bounds_max: (78, -32, -130)
# export_offset: (-73.000000, 37.000000, 135.000000)
# block_scale: 1
# block_origin_offset: (0.000000, 0.000000, 0.000000)
# z_up: false
# texture_type: ATLAS
# has_split_blocks: true
# COMMON_MC_OBJ_END
vn -1 0 0
vn 0 -1 0
vn 0 0 -1
vn 1 0 0
vn 0 1 0
vn 0 0 1
v -4 4 -1
v -4 4 0
v -4 5 0
v -4 5 -1
v -3 4 0
v -3 4 -1
v -3 5 -1
v -3 5 0
v -4 4 1
v -4 5 1
v -3 4 1
v -3 5 1
v -4 4 2
v -4 5 2
v -3 4 2
v -3 5 2
v -3 4 -2
v -3 5 -2
v -2 4 -1
v -2 4 -2
v -2 5 -2
v -2 5 -1
v -3 3 -1
v -3 3 0
v -2 3 0
v -2 3 -1
v -2 4 0
v -3 3 1
v -2 3 1
v -2 4 1
v -3 3 2
v -2 3 2
v -2 4 2
v -3 4 3
v -3 5 3
v -2 4 3
v -2 5 2
v -2 5 3
v -2 4 -3
v -2 5 -3
v -1 4 -2
v -1 4 -3
v -1 5 -3
v -1 5 -2
v -2 3 -2
v -1 3 -1
v -1 3 -2
v -1 4 -1
v -2 2 -1
v -2 2 0
v -1 2 0
v -1 2 -1
v -1 3 0
v -2 2 1
v -1 2 1
v -1 3 1
v -2 2 2
v -1 2 2
v -1 3 2
v -2 3 3
v -1 3 3
v -1 4 2
v -1 4 3
v -2 4 4
v -2 5 4
v -1 4 4
v -1 5 3
v -1 5 4
v -1 4 -4
v -1 5 -4
v 0 4 -3
v 0 4 -4
v 0 5 -4
v 0 5 -3
v -1 3 -3
v 0 3 -2
v 0 3 -3
v 0 4 -2
v -1 2 -2
v 0 2 -1
v 0 2 -2
v 0 3 -1
v -1 1 -1
v -1 1 0
v 0 1 0
v 0 1 -1
v 0 2 0
v -1 1 1
v 0 1 1
v 0 2 1
v -1 1 2
v 0 1 2
v 0 2 2
v -1 2 3
v 0 2 3
v 0 3 2
v 0 3 3
v -1 3 4
v 0 3 4
v 0 4 3
v 0 4 4
v -1 4 5
v -1 5 5
v 0 4 5
v 0 5 4
v 0 5 5
v 1 4 -3
v 1 4 -4
v 1 5 -4
v 1 5 -3
v 1 3 -2
v 1 3 -3
v 1 4 -2
v 1 2 -1
v 1 2 -2
v 1 3 -1
v 1 1 0
v 1 1 -1
v 1 2 0
v 1 1 1
v 1 2 1
v 1 1 2
v 1 2 2
v 1 2 3
v 1 3 2
v 1 3 3
v 1 3 4
v 1 4 3
v 1 4 4
v 1 4 5
v 1 5 4
v 1 5 5
v 2 4 -3
v 2 4 -4
v 2 5 -4
v 2 5 -3
v 2 3 -2
v 2 3 -3
v 2 4 -2
v 2 2 -1
v 2 2 -2
v 2 3 -1
v 2 1 0
v 2 1 -1
v 2 2 0
v 2 1 1
v 2 2 1
v 2 1 2
v 2 2 2
v 2 2 3
v 2 3 2
v 2 3 3
v 2 3 4
v 2 4 3
v 2 4 4
v 2 4 5
v 2 5 4
v 2 5 5
v 2 5 -2
v 3 4 -2
v 3 4 -3
v 3 5 -3
v 3 5 -2
v 2 4 -1
v 3 3 -1
v 3 3 -2
v 3 4 -1
v 2 3 0
v 3 2 0
v 3 2 -1
v 3 3 0
v 2 3 1
v 3 2 1
v 3 3 1
v 3 2 2
v 3 3 2
v 2 4 2
v 3 3 3
v 3 4 2
v 3 4 3
v 2 5 3
v 3 4 4
v 3 5 3
v 3 5 4
v 3 5 -1
v 4 4 -1
v 4 4 -2
v 4 5 -2
v 4 5 -1
v 3 4 0
v 4 3 0
v 4 3 -1
v 4 4 0
v 3 4 1
v 4 3 1
v 4 4 1
v 4 3 2
v 4 4 2
v 3 5 2
v 4 4 3
v 4 5 2
v 4 5 3
v 4 5 0
v 5 4 0
v 5 4 -1
v 5 5 -1
v 5 5 0
v 4 5 1
v 5 4 1
v 5 5 1
v 5 4 2
v 5 5 2
f 2//1 3//1 4//1 1//1
f 2//2 1//2 6//2 5//2
f 1//3 4//3 7//3 6//3
f 5//4 6//4 7//4 8//4
f 3//5 8//5 7//5 4//5
f 9//1 10//1 3//1 2//1
f 9//2 2//2 5//2 11//2
f 11//4 5//4 8//4 12//4
f 10//5 12//5 8//5 3//5
f 13//1 14//1 10//1 9//1
f 13//2 9//2 11//2 15//2
f 15//4 11//4 12//4 16//4
f 14//5 16//5 12//5 10//5
f 13//6 15//6 16//6 14//6
f 6//1 7//1 18//1 17//1
f 6//2 17//2 20//2 19//2
f 17//3 18//3 21//3 20//3
f 19//4 20//4 21//4 22//4
f 7//5 22//5 21//5 18//5
f 6//6 19//6 22//6 7//6
f 24//1 5//1 6//1 23//1
f 24//2 23//2 26//2 25//2
f 23//3 6//3 19//3 26//3
f 25//4 26//4 19//4 27//4
f 5//5 27//5 19//5 6//5
f 28//1 11//1 5//1 24//1
f 28//2 24//2 25//2 29//2
f 29//4 25//4 27//4 30//4
f 11//5 30//5 27//5 5//5
f 31//1 15//1 11//1 28//1
f 31//2 28//2 29//2 32//2
f 32//4 29//4 30//4 33//4
f 15//5 33//5 30//5 11//5
f 31//6 32//6 33//6 15//6
f 34//1 35//1 16//1 15//1
f 34//2 15//2 33//2 36//2
f 15//3 16//3 37//3 33//3
f 36//4 33//4 37//4 38//4
f 35//5 38//5 37//5 16//5
f 34//6 36//6 38//6 35//6
f 20//1 21//1 40//1 39//1
f 20//2 39//2 42//2 41//2
f 39//3 40//3 43//3 42//3
f 41//4 42//4 43//4 44//4
f 21//5 44//5 43//5 40//5
f 20//6 41//6 44//6 21//6
f 26//1 19//1 20//1 45//1
f 26//2 45//2 47//2 46//2
f 45//3 20//3 41//3 47//3
f 46//4 47//4 41//4 48//4
f 19//5 48//5 41//5 20//5
f 26//6 46//6 48//6 19//6
f 50//1 25//1 26//1 49//1
f 50//2 49//2 52//2 51//2
f 49//3 26//3 46//3 52//3
f 51//4 52//4 46//4 53//4
f 25//5 53//5 46//5 26//5
f 54//1 29//1 25//1 50//1
f 54//2 50//2 51//2 55//2
f 55//4 51//4 53//4 56//4
f 29//5 56//5 53//5 25//5
f 57//1 32//1 29//1 54//1
f 57//2 54//2 55//2 58//2
f 58//4 55//4 56//4 59//4
f 32//5 59//5 56//5 29//5
f 57//6 58//6 59//6 32//6
f 60//1 36//1 33//1 32//1
f 60//2 32//2 59//2 61//2
f 32//3 33//3 62//3 59//3
f 61//4 59//4 62//4 63//4
f 36//5 63//5 62//5 33//5
f 60//6 61//6 63//6 36//6
f 64//1 65//1 38//1 36//1
f 64//2 36//2 63//2 66//2
f 36//3 38//3 67//3 63//3
f 66//4 63//4 67//4 68//4
f 65//5 68//5 67//5 38//5
f 64//6 66//6 68//6 65//6
f 42//1 43//1 70//1 69//1
f 42//2 69//2 72//2 71//2
f 69//3 70//3 73//3 72//3
f 43//5 74//5 73//5 70//5
f 42//6 71//6 74//6 43//6
f 47//1 41//1 42//1 75//1
f 47//2 75//2 77//2 76//2
f 75//3 42//3 71//3 77//3
f 41//5 78//5 71//5 42//5
f 47//6 76//6 78//6 41//6
f 52//1 46//1 47//1 79//1
f 52//2 79//2 81//2 80//2
f 79//3 47//3 76//3 81//3
f 46//5 82//5 76//5 47//5
f 52//6 80//6 82//6 46//6
f 84//1 51//1 52//1 83//1
f 84//2 83//2 86//2 85//2
f 83//3 52//3 80//3 86//3
f 51//5 87//5 80//5 52//5
f 88//1 55//1 51//1 84//1
f 88//2 84//2 85//2 89//2
f 55//5 90//5 87//5 51//5
f 91//1 58//1 55//1 88//1
f 91//2 88//2 89//2 92//2
f 58//5 93//5 90//5 55//5
f 91//6 92//6 93//6 58//6
f 94//1 61//1 59//1 58//1
f 94//2 58//2 93//2 95//2
f 58//3 59//3 96//3 93//3
f 61//5 97//5 96//5 59//5
f 94//6 95//6 97//6 61//6
f 98//1 66//1 63//1 61//1
f 98//2 61//2 97//2 99//2
f 61//3 63//3 100//3 97//3
f 66//5 101//5 100//5 63//5
f 98//6 99//6 101//6 66//6
f 102//1 103//1 68//1 66//1
f 102//2 66//2 101//2 104//2
f 66//3 68//3 105//3 101//3
f 103//5 106//5 105//5 68//5
f 102//6 104//6 106//6 103//6
f 71//2 72//2 108//2 107//2
f 72//3 73//3 109//3 108//3
f 74//5 110//5 109//5 73//5
f 71//6 107//6 110//6 74//6
f 76//2 77//2 112//2 111//2
f 77//3 71//3 107//3 112//3
f 78//5 113//5 107//5 71//5
f 76//6 111//6 113//6 78//6
f 80//2 81//2 115//2 114//2
f 81//3 76//3 111//3 115//3
f 82//5 116//5 111//5 76//5
f 80//6 114//6 116//6 82//6
f 85//2 86//2 118//2 117//2
f 86//3 80//3 114//3 118//3
f 87//5 119//5 114//5 80//5
f 89//2 85//2 117//2 120//2
f 90//5 121//5 119//5 87//5
f 92//2 89//2 120//2 122//2
f 93//5 123//5 121//5 90//5
f 92//6 122//6 123//6 93//6
f 95//2 93//2 123//2 124//2
f 93//3 96//3 125//3 123//3
f 97//5 126//5 125//5 96//5
f 95//6 124//6 126//6 97//6
f 99//2 97//2 126//2 127//2
f 97//3 100//3 128//3 126//3
f 101//5 129//5 128//5 100//5
f 99//6 127//6 129//6 101//6
f 104//2 101//2 129//2 130//2
f 101//3 105//3 131//3 129//3
f 106//5 132//5 131//5 105//5
f 104//6 130//6 132//6 106//6
f 107//2 108//2 134//2 133//2
f 108//3 109//3 135//3 134//3
f 133//4 134//4 135//4 136//4
f 110//5 136//5 135//5 109//5
f 107//6 133//6 136//6 110//6
f 111//2 112//2 138//2 137//2
f 112//3 107//3 133//3 138//3
f 137//4 138//4 133//4 139//4
f 113//5 139//5 133//5 107//5
f 111//6 137//6 139//6 113//6
f 114//2 115//2 141//2 140//2
f 115//3 111//3 137//3 141//3
f 140//4 141//4 137//4 142//4
f 116//5 142//5 137//5 111//5
f 114//6 140//6 142//6 116//6
f 117//2 118//2 144//2 143//2
f 118//3 114//3 140//3 144//3
f 143//4 144//4 140//4 145//4
f 119//5 145//5 140//5 114//5
f 120//2 117//2 143//2 146//2
f 146//4 143//4 145//4 147//4
f 121//5 147//5 145//5 119//5
f 122//2 120//2 146//2 148//2
f 148//4 146//4 147//4 149//4
f 123//5 149//5 147//5 121//5
f 122//6 148//6 149//6 123//6
f 124//2 123//2 149//2 150//2
f 123//3 125//3 151//3 149//3
f 150//4 149//4 151//4 152//4
f 126//5 152//5 151//5 125//5
f 124//6 150//6 152//6 126//6
f 127//2 126//2 152//2 153//2
f 126//3 128//3 154//3 152//3
f 153//4 152//4 154//4 155//4
f 129//5 155//5 154//5 128//5
f 127//6 153//6 155//6 129//6
f 130//2 129//2 155//2 156//2
f 129//3 131//3 157//3 155//3
f 156//4 155//4 157//4 158//4
f 132//5 158//5 157//5 131//5
f 130//6 156//6 158//6 132//6
f 139//1 159//1 136//1 133//1
f 139//2 133//2 161//2 160//2
f 133//3 136//3 162//3 161//3
f 160//4 161//4 162//4 163//4
f 159//5 163//5 162//5 136//5
f 139//6 160//6 163//6 159//6
f 142//1 164//1 139//1 137//1
f 142//2 137//2 166//2 165//2
f 137//3 139//3 160//3 166//3
f 165//4 166//4 160//4 167//4
f 164//5 167//5 160//5 139//5
f 142//6 165//6 167//6 164//6
f 145//1 168//1 142//1 140//1
f 145//2 140//2 170//2 169//2
f 140//3 142//3 165//3 170//3
f 169//4 170//4 165//4 171//4
f 168//5 171//5 165//5 142//5
f 147//1 172//1 168//1 145//1
f 147//2 145//2 169//2 173//2
f 173//4 169//4 171//4 174//4
f 172//5 174//5 171//5 168//5
f 149//1 151//1 172//1 147//1
f 149//2 147//2 173//2 175//2
f 175//4 173//4 174//4 176//4
f 151//5 176//5 174//5 172//5
f 149//6 175//6 176//6 151//6
f 152//1 154//1 177//1 151//1
f 152//2 151//2 176//2 178//2
f 151//3 177//3 179//3 176//3
f 178//4 176//4 179//4 180//4
f 154//5 180//5 179//5 177//5
f 152//6 178//6 180//6 154//6
f 155//1 157//1 181//1 154//1
f 155//2 154//2 180//2 182//2
f 154//3 181//3 183//3 180//3
f 182//4 180//4 183//4 184//4
f 157//5 184//5 183//5 181//5
f 155//6 182//6 184//6 157//6
f 167//1 185//1 163//1 160//1
f 167//2 160//2 187//2 186//2
f 160//3 163//3 188//3 187//3
f 186//4 187//4 188//4 189//4
f 185//5 189//5 188//5 163//5
f 167//6 186//6 189//6 185//6
f 171//1 190//1 167//1 165//1
f 171//2 165//2 192//2 191//2
f 165//3 167//3 186//3 192//3
f 191//4 192//4 186//4 193//4
f 190//5 193//5 186//5 167//5
f 174//1 194//1 190//1 171//1
f 174//2 171//2 191//2 195//2
f 195//4 191//4 193//4 196//4
f 194//5 196//5 193//5 190//5
f 176//1 179//1 194//1 174//1
f 176//2 174//2 195//2 197//2
f 197//4 195//4 196//4 198//4
f 179//5 198//5 196//5 194//5
f 176//6 197//6 198//6 179//6
f 180//1 183//1 199//1 179//1
f 180//2 179//2 198//2 200//2
f 179//3 199//3 201//3 198//3
f 200//4 198//4 201//4 202//4
f 183//5 202//5 201//5 199//5
f 180//6 200//6 202//6 183//6
f 193//1 203//1 189//1 186//1
f 193//2 186//2 205//2 204//2
f 186//3 189//3 206//3 205//3
f 204//4 205//4 206//4 207//4
f 203//5 207//5 206//5 189//5
f 196//1 208//1 203//1 193//1
f 196//2 193//2 204//2 209//2
f 209//4 204//4 207//4 210//4
f 208//5 210//5 207//5 203//5
f 198//1 201//1 208//1 196//1
f 198//2 196//2 209//2 211//2
f 211//4 209//4 210//4 212//4
f 201//5 212//5 210//5 208//5
f 198//6 211//6 212//6 201//6
