# Wavefront OBJ file made by Mineways version 13.00, http://mineways.com
# World: EMPTY
# Terrain file name: C:\Users\kumar\Downloads\mineways_min\mineways_min\terrainExt.png
# Culling scheme: Standard
# Fri Aug 28 21:28:01 2026

# Selection location min to max: 102, -37, -176 to 113, -31, -162
#   Non-empty selection location min to max: 103, -36, -175 to 112, -32, -163

# Set render type: Wavefront OBJ absolute indices
# Units for the model vertex data itself: meters

# 384 vertices, 382 faces (764 triangles), 298 blocks
# block dimensions: X=10 by Y=5 (height) by Z=13 blocks
# Elevation shading: no
# Lighting: no
# Transparent water: no
# Map grid: no
# File type: Export no materials
# Texture output RGB: YES
# Texture output A: YES
# Texture output RGBA: YES
# Export separate types: YES
# Export individual blocks: no
#   Material per family: YES
#   Split by block type: YES
# Make groups objects: YES
# Custom material: YES
# Export lesser blocks: no
# Simplify mesh: no
# Double all billboard faces: no
# Create composite overlay faces: YES
# Center model: YES
# Use biomes: no
# Create block faces at the borders: YES
# Tree leaves solid: no
# Rotate model 0.000000 degrees
# Make Z the up direction instead of Y: no
# Scale model by making each block 1000 mm high
# Data operation options:
#   Fill air bubbles: no; Seal off entrances: no; Fill in isolated tunnels in base of model: no
#   Connect parts sharing an edge: no; Connect corner tips: no; Weld all shared edges: no
#   Delete floating objects: trees and parts smaller than 16 blocks: no
#   Hollow out bottom of model, making the walls 1000 mm thick: no; Superhollow: no
# Melt snow blocks: no
#   Debug: show separate parts as colors: no
#   Debug: show weld blocks in bright colors: no

# Full world path: C:\Users\kumar\AppData\Roaming\PrismLauncher\instances\26.1.2\minecraft\saves\EMPTY
# Full terrainExt.png path: C:\Users\kumar\Downloads\mineways_min\mineways_min\terrainExt.png
# Full current path: C:\Users\kumar\Downloads\mineways_min\mineways_min

# COMMON_MC_OBJ_START
# version: 1
# exporter: mineways
# world_name: EMPTY
# world_path: C:\Users\kumar\AppData\Roaming\PrismLauncher\instances\26.1.2\minecraft\saves\EMPTY
# export_bounds_min: (102, -37, -176)
# export_bounds_max: (113, -31, -162)
# export_offset: (-108.000000, 37.000000, 169.000000)
# block_scale: 1
# block_origin_offset: (0.000000, 0.000000, 0.000000)
# z_up: false
# texture_type: ATLAS
# has_split_blocks: true
# COMMON_MC_OBJ_END
vn -1 0 0
vn 0 -1 0
vn 0 0 -1
vn 1 0 0
vn 0 1 0
vn 0 0 1
v -5 1 -4
v -5 1 -3
v -5 2 -3
v -5 2 -4
v -4 1 -3
v -4 1 -4
v -4 2 -4
v -5 3 -3
v -5 3 -4
v -4 3 -4
v -5 4 -3
v -5 4 -4
v -4 4 -4
v -4 4 -3
v -5 1 -2
v -5 2 -2
v -4 1 -2
v -5 3 -2
v -5 4 -2
v -4 4 -2
v -5 1 -1
v -5 2 -1
v -4 1 -1
v -5 3 -1
v -4 2 -1
v -4 3 -1
v -5 4 -1
v -4 4 -1
v -5 1 0
v -5 2 0
v -4 1 0
v -4 2 0
v -5 1 1
v -5 2 1
v -4 1 1
v -4 2 1
v -4 1 -5
v -4 2 -5
v -3 1 -4
v -3 1 -5
v -3 2 -5
v -4 3 -5
v -3 3 -5
v -4 4 -5
v -3 4 -5
v -3 4 -4
v -3 1 -3
v -4 5 -3
v -4 5 -4
v -3 5 -4
v -3 5 -3
v -3 1 -2
v -4 5 -2
v -3 5 -2
v -3 1 -1
v -4 5 -1
v -3 5 -1
v -3 4 -1
v -3 1 0
v -4 3 0
v -4 4 0
v -3 4 0
v -3 1 1
v -4 3 1
v -4 4 1
v -3 4 1
v -3 3 1
v -4 1 2
v -4 2 2
v -3 1 2
v -4 3 2
v -3 3 2
v -3 2 2
v -4 1 3
v -4 2 3
v -3 1 3
v -3 2 3
v -3 1 -6
v -3 2 -6
v -2 1 -5
v -2 1 -6
v -2 2 -6
v -3 3 -6
v -2 3 -6
v -2 2 -5
v -2 3 -5
v -3 4 -6
v -2 4 -6
v -2 4 -5
v -2 1 -4
v -3 5 -5
v -2 5 -5
v -2 5 -4
v -2 1 -3
v -2 5 -3
v -2 1 -2
v -3 6 -2
v -3 6 -3
v -2 6 -3
v -2 6 -2
v -2 1 -1
v -3 6 -1
v -2 6 -1
v -2 5 -1
v -2 1 0
v -3 5 0
v -2 5 0
v -2 4 0
v -2 1 1
v -2 4 1
v -2 1 2
v -3 4 2
v -2 4 2
v -2 3 2
v -2 1 3
v -3 3 3
v -2 3 3
v -2 2 3
v -3 1 4
v -3 2 4
v -2 1 4
v -2 2 4
v -3 1 5
v -3 2 5
v -2 1 5
v -2 2 5
v -3 1 6
v -3 2 6
v -2 1 6
v -2 2 6
v -1 1 -5
v -1 1 -6
v -1 2 -6
v -1 2 -5
v -1 3 -5
v -1 3 -6
v -1 4 -6
v -1 4 -5
v -1 1 -4
v -1 5 -5
v -1 5 -4
v -1 1 -3
v -2 6 -4
v -1 6 -4
v -1 6 -3
v -1 1 -2
v -1 6 -2
v -1 1 -1
v -1 6 -1
v -1 1 0
v -2 6 0
v -1 6 0
v -1 5 0
v -1 1 1
v -2 5 1
v -1 5 1
v -1 4 1
v -1 1 2
v -1 4 2
v -1 3 2
v -1 1 3
v -1 3 3
v -1 2 3
v -1 1 4
v -1 2 4
v -1 1 5
v -1 2 5
v -1 1 6
v -1 2 6
v -2 1 7
v -2 2 7
v -1 1 7
v -1 2 7
v 0 1 -5
v 0 1 -6
v 0 2 -6
v 0 2 -5
v 0 3 -5
v 0 3 -6
v 0 4 -6
v 0 4 -5
v 0 1 -4
v 0 5 -5
v 0 5 -4
v 0 1 -3
v 0 6 -4
v 0 6 -3
v 0 1 -2
v 0 6 -2
v 0 1 -1
v 0 6 -1
v 0 1 0
v 0 6 0
v 0 5 0
v 0 1 1
v 0 5 1
v 0 4 1
v 0 1 2
v 0 4 2
v 0 3 2
v 0 1 3
v 0 3 3
v 0 2 3
v 0 1 4
v 0 2 4
v 0 1 5
v 0 2 5
v 0 1 6
v 0 2 6
v 0 1 7
v 0 2 7
v 1 1 -5
v 1 1 -6
v 1 2 -6
v 1 2 -5
v 1 3 -5
v 1 3 -6
v 1 4 -6
v 1 4 -5
v 1 1 -4
v 1 5 -5
v 1 5 -4
v 1 1 -3
v 1 6 -4
v 1 6 -3
v 1 1 -2
v 1 6 -2
v 1 1 -1
v 1 6 -1
v 1 1 0
v 1 6 0
v 1 5 0
v 1 1 1
v 1 5 1
v 1 4 1
v 1 1 2
v 1 4 2
v 1 3 2
v 1 1 3
v 1 3 3
v 1 2 3
v 1 1 4
v 1 2 4
v 1 1 5
v 1 2 5
v 1 1 6
v 1 2 6
v 1 1 7
v 1 2 7
v 2 1 -5
v 2 1 -6
v 2 2 -6
v 2 2 -5
v 2 3 -5
v 2 3 -6
v 2 4 -6
v 2 4 -5
v 2 1 -4
v 2 5 -5
v 2 5 -4
v 2 1 -3
v 2 6 -4
v 2 5 -3
v 2 6 -3
v 2 1 -2
v 2 6 -2
v 2 1 -1
v 2 6 -1
v 2 1 0
v 2 5 0
v 2 5 -1
v 2 6 0
v 2 1 1
v 2 4 1
v 2 4 0
v 2 5 1
v 2 1 2
v 2 4 2
v 2 3 2
v 2 1 3
v 2 3 3
v 2 2 3
v 2 1 4
v 2 2 4
v 2 1 5
v 2 2 5
v 2 1 6
v 2 2 6
v 2 1 7
v 2 2 7
v 3 1 -5
v 3 1 -6
v 3 2 -6
v 3 2 -5
v 3 3 -6
v 3 3 -5
v 3 4 -6
v 3 4 -5
v 3 1 -4
v 3 5 -5
v 3 4 -4
v 3 5 -4
v 3 1 -3
v 3 5 -3
v 3 1 -2
v 3 6 -3
v 3 5 -2
v 3 6 -2
v 3 1 -1
v 3 5 -1
v 3 6 -1
v 3 1 0
v 3 4 0
v 3 4 -1
v 3 5 0
v 3 1 1
v 3 4 1
v 3 1 2
v 3 3 2
v 3 3 1
v 3 4 2
v 3 1 3
v 3 2 3
v 3 2 2
v 3 3 3
v 3 1 4
v 3 2 4
v 3 1 5
v 3 2 5
v 3 1 6
v 3 2 6
v 4 1 -4
v 4 1 -5
v 4 2 -5
v 4 2 -4
v 4 3 -5
v 4 3 -4
v 4 4 -5
v 4 4 -4
v 4 1 -3
v 4 5 -4
v 4 4 -3
v 4 5 -3
v 4 1 -2
v 4 4 -2
v 4 5 -2
v 4 1 -1
v 4 4 -1
v 4 5 -1
v 4 1 0
v 4 2 0
v 4 2 -1
v 4 3 -1
v 4 3 0
v 4 4 0
v 4 1 1
v 4 2 1
v 4 3 1
v 4 4 1
v 4 1 2
v 4 2 2
v 4 3 2
v 4 1 3
v 4 2 3
v 5 1 -3
v 5 1 -4
v 5 2 -4
v 5 2 -3
v 5 3 -4
v 5 3 -3
v 5 4 -4
v 5 4 -3
v 5 1 -2
v 5 2 -2
v 5 3 -2
v 5 4 -2
v 5 1 -1
v 5 2 -1
v 5 3 -1
v 5 4 -1
v 5 1 0
v 5 2 0
v 5 1 1
v 5 2 1
f 2//1 3//1 4//1 1//1
f 2//2 1//2 6//2 5//2
f 1//3 4//3 7//3 6//3
f 3//1 8//1 9//1 4//1
f 4//3 9//3 10//3 7//3
f 8//1 11//1 12//1 9//1
f 9//3 12//3 13//3 10//3
f 11//5 14//5 13//5 12//5
f 15//1 16//1 3//1 2//1
f 15//2 2//2 5//2 17//2
f 16//1 18//1 8//1 3//1
f 18//1 19//1 11//1 8//1
f 19//5 20//5 14//5 11//5
f 21//1 22//1 16//1 15//1
f 21//2 15//2 17//2 23//2
f 22//1 24//1 18//1 16//1
f 22//6 25//6 26//6 24//6
f 24//1 27//1 19//1 18//1
f 27//5 28//5 20//5 19//5
f 24//6 26//6 28//6 27//6
f 29//1 30//1 22//1 21//1
f 29//2 21//2 23//2 31//2
f 30//5 32//5 25//5 22//5
f 33//1 34//1 30//1 29//1
f 33//2 29//2 31//2 35//2
f 34//5 36//5 32//5 30//5
f 33//6 35//6 36//6 34//6
f 6//1 7//1 38//1 37//1
f 6//2 37//2 40//2 39//2
f 37//3 38//3 41//3 40//3
f 7//1 10//1 42//1 38//1
f 38//3 42//3 43//3 41//3
f 10//1 13//1 44//1 42//1
f 42//3 44//3 45//3 43//3
f 13//5 46//5 45//5 44//5
f 5//2 6//2 39//2 47//2
f 14//1 48//1 49//1 13//1
f 13//3 49//3 50//3 46//3
f 48//5 51//5 50//5 49//5
f 17//2 5//2 47//2 52//2
f 20//1 53//1 48//1 14//1
f 53//5 54//5 51//5 48//5
f 23//2 17//2 52//2 55//2
f 28//1 56//1 53//1 20//1
f 56//5 57//5 54//5 53//5
f 28//6 58//6 57//6 56//6
f 31//2 23//2 55//2 59//2
f 32//1 60//1 26//1 25//1
f 60//1 61//1 28//1 26//1
f 61//5 62//5 58//5 28//5
f 35//2 31//2 59//2 63//2
f 36//1 64//1 60//1 32//1
f 64//1 65//1 61//1 60//1
f 65//5 66//5 62//5 61//5
f 64//6 67//6 66//6 65//6
f 68//1 69//1 36//1 35//1
f 68//2 35//2 63//2 70//2
f 69//1 71//1 64//1 36//1
f 71//5 72//5 67//5 64//5
f 69//6 73//6 72//6 71//6
f 74//1 75//1 69//1 68//1
f 74//2 68//2 70//2 76//2
f 75//5 77//5 73//5 69//5
f 74//6 76//6 77//6 75//6
f 40//1 41//1 79//1 78//1
f 40//2 78//2 81//2 80//2
f 78//3 79//3 82//3 81//3
f 41//1 43//1 83//1 79//1
f 79//3 83//3 84//3 82//3
f 85//4 82//4 84//4 86//4
f 43//1 45//1 87//1 83//1
f 83//3 87//3 88//3 84//3
f 45//5 89//5 88//5 87//5
f 39//2 40//2 80//2 90//2
f 46//1 50//1 91//1 45//1
f 45//3 91//3 92//3 89//3
f 50//5 93//5 92//5 91//5
f 47//2 39//2 90//2 94//2
f 51//5 95//5 93//5 50//5
f 52//2 47//2 94//2 96//2
f 54//1 97//1 98//1 51//1
f 51//3 98//3 99//3 95//3
f 97//5 100//5 99//5 98//5
f 55//2 52//2 96//2 101//2
f 57//1 102//1 97//1 54//1
f 102//5 103//5 100//5 97//5
f 57//6 104//6 103//6 102//6
f 59//2 55//2 101//2 105//2
f 62//1 106//1 57//1 58//1
f 106//5 107//5 104//5 57//5
f 62//6 108//6 107//6 106//6
f 63//2 59//2 105//2 109//2
f 66//5 110//5 108//5 62//5
f 70//2 63//2 109//2 111//2
f 72//1 112//1 66//1 67//1
f 112//5 113//5 110//5 66//5
f 72//6 114//6 113//6 112//6
f 76//2 70//2 111//2 115//2
f 77//1 116//1 72//1 73//1
f 116//5 117//5 114//5 72//5
f 77//6 118//6 117//6 116//6
f 119//1 120//1 77//1 76//1
f 119//2 76//2 115//2 121//2
f 120//5 122//5 118//5 77//5
f 123//1 124//1 120//1 119//1
f 123//2 119//2 121//2 125//2
f 124//5 126//5 122//5 120//5
f 127//1 128//1 124//1 123//1
f 127//2 123//2 125//2 129//2
f 128//5 130//5 126//5 124//5
f 127//6 129//6 130//6 128//6
f 80//2 81//2 132//2 131//2
f 81//3 82//3 133//3 132//3
f 85//5 134//5 133//5 82//5
f 86//2 84//2 136//2 135//2
f 84//3 88//3 137//3 136//3
f 89//5 138//5 137//5 88//5
f 90//2 80//2 131//2 139//2
f 85//3 86//3 135//3 134//3
f 89//3 92//3 140//3 138//3
f 93//5 141//5 140//5 92//5
f 94//2 90//2 139//2 142//2
f 95//1 99//1 143//1 93//1
f 93//3 143//3 144//3 141//3
f 99//5 145//5 144//5 143//5
f 96//2 94//2 142//2 146//2
f 100//5 147//5 145//5 99//5
f 101//2 96//2 146//2 148//2
f 103//5 149//5 147//5 100//5
f 105//2 101//2 148//2 150//2
f 107//1 151//1 103//1 104//1
f 151//5 152//5 149//5 103//5
f 107//6 153//6 152//6 151//6
f 109//2 105//2 150//2 154//2
f 110//1 155//1 107//1 108//1
f 155//5 156//5 153//5 107//5
f 110//6 157//6 156//6 155//6
f 111//2 109//2 154//2 158//2
f 113//5 159//5 157//5 110//5
f 114//6 160//6 159//6 113//6
f 115//2 111//2 158//2 161//2
f 117//5 162//5 160//5 114//5
f 118//6 163//6 162//6 117//6
f 121//2 115//2 161//2 164//2
f 122//5 165//5 163//5 118//5
f 125//2 121//2 164//2 166//2
f 126//5 167//5 165//5 122//5
f 129//2 125//2 166//2 168//2
f 130//5 169//5 167//5 126//5
f 170//1 171//1 130//1 129//1
f 170//2 129//2 168//2 172//2
f 171//5 173//5 169//5 130//5
f 170//6 172//6 173//6 171//6
f 131//2 132//2 175//2 174//2
f 132//3 133//3 176//3 175//3
f 134//5 177//5 176//5 133//5
f 135//2 136//2 179//2 178//2
f 136//3 137//3 180//3 179//3
f 138//5 181//5 180//5 137//5
f 139//2 131//2 174//2 182//2
f 134//3 135//3 178//3 177//3
f 138//3 140//3 183//3 181//3
f 141//5 184//5 183//5 140//5
f 142//2 139//2 182//2 185//2
f 141//3 144//3 186//3 184//3
f 145//5 187//5 186//5 144//5
f 146//2 142//2 185//2 188//2
f 147//5 189//5 187//5 145//5
f 148//2 146//2 188//2 190//2
f 149//5 191//5 189//5 147//5
f 150//2 148//2 190//2 192//2
f 152//5 193//5 191//5 149//5
f 153//6 194//6 193//6 152//6
f 154//2 150//2 192//2 195//2
f 156//5 196//5 194//5 153//5
f 157//6 197//6 196//6 156//6
f 158//2 154//2 195//2 198//2
f 159//5 199//5 197//5 157//5
f 160//6 200//6 199//6 159//6
f 161//2 158//2 198//2 201//2
f 162//5 202//5 200//5 160//5
f 163//6 203//6 202//6 162//6
f 164//2 161//2 201//2 204//2
f 165//5 205//5 203//5 163//5
f 166//2 164//2 204//2 206//2
f 167//5 207//5 205//5 165//5
f 168//2 166//2 206//2 208//2
f 169//5 209//5 207//5 167//5
f 172//2 168//2 208//2 210//2
f 173//5 211//5 209//5 169//5
f 172//6 210//6 211//6 173//6
f 174//2 175//2 213//2 212//2
f 175//3 176//3 214//3 213//3
f 177//5 215//5 214//5 176//5
f 178//2 179//2 217//2 216//2
f 179//3 180//3 218//3 217//3
f 181//5 219//5 218//5 180//5
f 182//2 174//2 212//2 220//2
f 177//3 178//3 216//3 215//3
f 181//3 183//3 221//3 219//3
f 184//5 222//5 221//5 183//5
f 185//2 182//2 220//2 223//2
f 184//3 186//3 224//3 222//3
f 187//5 225//5 224//5 186//5
f 188//2 185//2 223//2 226//2
f 189//5 227//5 225//5 187//5
f 190//2 188//2 226//2 228//2
f 191//5 229//5 227//5 189//5
f 192//2 190//2 228//2 230//2
f 193//5 231//5 229//5 191//5
f 194//6 232//6 231//6 193//6
f 195//2 192//2 230//2 233//2
f 196//5 234//5 232//5 194//5
f 197//6 235//6 234//6 196//6
f 198//2 195//2 233//2 236//2
f 199//5 237//5 235//5 197//5
f 200//6 238//6 237//6 199//6
f 201//2 198//2 236//2 239//2
f 202//5 240//5 238//5 200//5
f 203//6 241//6 240//6 202//6
f 204//2 201//2 239//2 242//2
f 205//5 243//5 241//5 203//5
f 206//2 204//2 242//2 244//2
f 207//5 245//5 243//5 205//5
f 208//2 206//2 244//2 246//2
f 209//5 247//5 245//5 207//5
f 210//2 208//2 246//2 248//2
f 211//5 249//5 247//5 209//5
f 210//6 248//6 249//6 211//6
f 212//2 213//2 251//2 250//2
f 213//3 214//3 252//3 251//3
f 215//5 253//5 252//5 214//5
f 216//2 217//2 255//2 254//2
f 217//3 218//3 256//3 255//3
f 219//5 257//5 256//5 218//5
f 220//2 212//2 250//2 258//2
f 215//3 216//3 254//3 253//3
f 219//3 221//3 259//3 257//3
f 222//5 260//5 259//5 221//5
f 223//2 220//2 258//2 261//2
f 222//3 224//3 262//3 260//3
f 263//4 260//4 262//4 264//4
f 225//5 264//5 262//5 224//5
f 226//2 223//2 261//2 265//2
f 227//5 266//5 264//5 225//5
f 228//2 226//2 265//2 267//2
f 229//5 268//5 266//5 227//5
f 230//2 228//2 267//2 269//2
f 270//4 271//4 268//4 272//4
f 231//5 272//5 268//5 229//5
f 232//6 270//6 272//6 231//6
f 233//2 230//2 269//2 273//2
f 274//4 275//4 270//4 276//4
f 234//5 276//5 270//5 232//5
f 235//6 274//6 276//6 234//6
f 236//2 233//2 273//2 277//2
f 237//5 278//5 274//5 235//5
f 238//6 279//6 278//6 237//6
f 239//2 236//2 277//2 280//2
f 240//5 281//5 279//5 238//5
f 241//6 282//6 281//6 240//6
f 242//2 239//2 280//2 283//2
f 243//5 284//5 282//5 241//5
f 244//2 242//2 283//2 285//2
f 245//5 286//5 284//5 243//5
f 246//2 244//2 285//2 287//2
f 247//5 288//5 286//5 245//5
f 248//2 246//2 287//2 289//2
f 289//4 287//4 288//4 290//4
f 249//5 290//5 288//5 247//5
f 248//6 289//6 290//6 249//6
f 250//2 251//2 292//2 291//2
f 251//3 252//3 293//3 292//3
f 291//4 292//4 293//4 294//4
f 253//1 254//1 255//1 252//1
f 252//3 255//3 295//3 293//3
f 294//4 293//4 295//4 296//4
f 255//3 256//3 297//3 295//3
f 296//4 295//4 297//4 298//4
f 257//5 298//5 297//5 256//5
f 258//2 250//2 291//2 299//2
f 257//3 259//3 300//3 298//3
f 301//4 298//4 300//4 302//4
f 260//5 302//5 300//5 259//5
f 261//2 258//2 299//2 303//2
f 263//5 304//5 302//5 260//5
f 265//2 261//2 303//2 305//2
f 263//3 264//3 306//3 304//3
f 307//4 304//4 306//4 308//4
f 266//5 308//5 306//5 264//5
f 267//2 265//2 305//2 309//2
f 310//4 307//4 308//4 311//4
f 268//5 311//5 308//5 266//5
f 271//6 310//6 311//6 268//6
f 269//2 267//2 309//2 312//2
f 313//4 314//4 310//4 315//4
f 270//5 315//5 310//5 271//5
f 275//6 313//6 315//6 270//6
f 273//2 269//2 312//2 316//2
f 274//5 317//5 313//5 275//5
f 277//2 273//2 316//2 318//2
f 319//4 320//4 317//4 321//4
f 278//5 321//5 317//5 274//5
f 279//6 319//6 321//6 278//6
f 280//2 277//2 318//2 322//2
f 323//4 324//4 319//4 325//4
f 281//5 325//5 319//5 279//5
f 282//6 323//6 325//6 281//6
f 283//2 280//2 322//2 326//2
f 326//4 322//4 323//4 327//4
f 284//5 327//5 323//5 282//5
f 285//2 283//2 326//2 328//2
f 328//4 326//4 327//4 329//4
f 286//5 329//5 327//5 284//5
f 287//2 285//2 328//2 330//2
f 330//4 328//4 329//4 331//4
f 288//5 331//5 329//5 286//5
f 287//6 330//6 331//6 288//6
f 299//2 291//2 333//2 332//2
f 291//3 294//3 334//3 333//3
f 332//4 333//4 334//4 335//4
f 294//3 296//3 336//3 334//3
f 335//4 334//4 336//4 337//4
f 296//3 298//3 338//3 336//3
f 337//4 336//4 338//4 339//4
f 301//5 339//5 338//5 298//5
f 303//2 299//2 332//2 340//2
f 301//3 302//3 341//3 339//3
f 342//4 339//4 341//4 343//4
f 304//5 343//5 341//5 302//5
f 305//2 303//2 340//2 344//2
f 345//4 342//4 343//4 346//4
f 307//5 346//5 343//5 304//5
f 309//2 305//2 344//2 347//2
f 348//4 345//4 346//4 349//4
f 310//5 349//5 346//5 307//5
f 314//6 348//6 349//6 310//6
f 312//2 309//2 347//2 350//2
f 351//4 352//4 353//4 354//4
f 354//4 353//4 348//4 355//4
f 313//5 355//5 348//5 314//5
f 316//2 312//2 350//2 356//2
f 357//4 351//4 354//4 358//4
f 358//4 354//4 355//4 359//4
f 317//5 359//5 355//5 313//5
f 320//6 358//6 359//6 317//6
f 318//2 316//2 356//2 360//2
f 360//4 356//4 357//4 361//4
f 361//4 357//4 358//4 362//4
f 319//5 362//5 358//5 320//5
f 324//6 361//6 362//6 319//6
f 322//2 318//2 360//2 363//2
f 363//4 360//4 361//4 364//4
f 323//5 364//5 361//5 324//5
f 322//6 363//6 364//6 323//6
f 340//2 332//2 366//2 365//2
f 332//3 335//3 367//3 366//3
f 365//4 366//4 367//4 368//4
f 335//3 337//3 369//3 367//3
f 368//4 367//4 369//4 370//4
f 337//3 339//3 371//3 369//3
f 370//4 369//4 371//4 372//4
f 342//5 372//5 371//5 339//5
f 344//2 340//2 365//2 373//2
f 373//4 365//4 368//4 374//4
f 374//4 368//4 370//4 375//4
f 375//4 370//4 372//4 376//4
f 345//5 376//5 372//5 342//5
f 347//2 344//2 373//2 377//2
f 377//4 373//4 374//4 378//4
f 378//4 374//4 375//4 379//4
f 352//6 378//6 379//6 353//6
f 379//4 375//4 376//4 380//4
f 348//5 380//5 376//5 345//5
f 353//6 379//6 380//6 348//6
f 350//2 347//2 377//2 381//2
f 381//4 377//4 378//4 382//4
f 351//5 382//5 378//5 352//5
f 356//2 350//2 381//2 383//2
f 383//4 381//4 382//4 384//4
f 357//5 384//5 382//5 351//5
f 356//6 383//6 384//6 357//6
