# Wavefront OBJ file made by Mineways version 13.00, http://mineways.com
# World: EMPTY
# Terrain file name: C:\Users\kumar\Downloads\mineways_min\mineways_min\terrainExt.png
# Culling scheme: Standard
# Fri Aug 28 20:59:28 2026

# Selection location min to max: 74, -36, -117 to 81, -31, -108
#   Non-empty selection location min to max: 75, -35, -116 to 80, -32, -109

# Set render type: Wavefront OBJ absolute indices
# Units for the model vertex data itself: meters

# 210 vertices, 208 faces (416 triangles), 192 blocks
# block dimensions: X=6 by Y=4 (height) by Z=8 blocks
# Elevation shading: no
# Lighting: no
# Transparent water: no
# Map grid: no
# File type: Export no materials
# Texture output RGB: YES
# Texture output A: YES
# Texture output RGBA: YES
# Export separate types: YES
# Export individual blocks: no
#   Material per family: YES
#   Split by block type: YES
# Make groups objects: YES
# Custom material: YES
# Export lesser blocks: no
# Simplify mesh: no
# Double all billboard faces: no
# Create composite overlay faces: YES
# Center model: YES
# Use biomes: no
# Create block faces at the borders: YES
# Tree leaves solid: no
# Rotate model 0.000000 degrees
# Make Z the up direction instead of Y: no
# Scale model by making each block 1000 mm high
# Data operation options:
#   Fill air bubbles: no; Seal off entrances: no; Fill in isolated tunnels in base of model: no
#   Connect parts sharing an edge: no; Connect corner tips: no; Weld all shared edges: no
#   Delete floating objects: trees and parts smaller than 16 blocks: no
#   Hollow out bottom of model, making the walls 1000 mm thick: no; Superhollow: no
# Melt snow blocks: no
#   Debug: show separate parts as colors: no
#   Debug: show weld blocks in bright colors: no

# Full world path: C:\Users\kumar\AppData\Roaming\PrismLauncher\instances\26.1.2\minecraft\saves\EMPTY
# Full terrainExt.png path: C:\Users\kumar\Downloads\mineways_min\mineways_min\terrainExt.png
# Full current path: C:\Users\kumar\Downloads\mineways_min\mineways_min

# COMMON_MC_OBJ_START
# version: 1
# exporter: mineways
# world_name: EMPTY
# world_path: C:\Users\kumar\AppData\Roaming\PrismLauncher\instances\26.1.2\minecraft\saves\EMPTY
# export_bounds_min: (74, -36, -117)
# export_bounds_max: (81, -31, -108)
# export_offset: (-78.000000, 36.000000, 112.000000)
# block_scale: 1
# block_origin_offset: (0.000000, 0.000000, 0.000000)
# z_up: false
# texture_type: ATLAS
# has_split_blocks: true
# COMMON_MC_OBJ_END
vn -1 0 0
vn 0 -1 0
vn 0 0 -1
vn 1 0 0
vn 0 1 0
vn 0 0 1
v -3 1 -4
v -3 1 -3
v -3 2 -3
v -3 2 -4
v -2 1 -3
v -2 1 -4
v -2 2 -4
v -3 3 -3
v -3 3 -4
v -2 3 -4
v -3 4 -3
v -3 4 -4
v -2 4 -4
v -3 5 -3
v -3 5 -4
v -2 5 -4
v -2 5 -3
v -3 1 -2
v -3 2 -2
v -2 1 -2
v -3 3 -2
v -3 4 -2
v -3 5 -2
v -2 5 -2
v -3 1 -1
v -3 2 -1
v -2 1 -1
v -3 3 -1
v -3 4 -1
v -3 5 -1
v -2 5 -1
v -3 1 0
v -3 2 0
v -2 1 0
v -3 3 0
v -3 4 0
v -3 5 0
v -2 5 0
v -3 1 1
v -3 2 1
v -2 1 1
v -3 3 1
v -3 4 1
v -3 5 1
v -2 5 1
v -3 1 2
v -3 2 2
v -2 1 2
v -3 3 2
v -3 4 2
v -3 5 2
v -2 5 2
v -3 1 3
v -3 2 3
v -2 1 3
v -3 3 3
v -3 4 3
v -3 5 3
v -2 5 3
v -3 1 4
v -3 2 4
v -2 1 4
v -2 2 4
v -3 3 4
v -2 3 4
v -3 4 4
v -2 4 4
v -3 5 4
v -2 5 4
v -1 1 -3
v -1 1 -4
v -1 2 -4
v -1 3 -4
v -1 4 -4
v -1 5 -4
v -1 5 -3
v -1 1 -2
v -1 5 -2
v -1 1 -1
v -1 5 -1
v -1 1 0
v -1 5 0
v -1 1 1
v -1 5 1
v -1 1 2
v -1 5 2
v -1 1 3
v -1 5 3
v -1 1 4
v -1 2 4
v -1 3 4
v -1 4 4
v -1 5 4
v 0 1 -3
v 0 1 -4
v 0 2 -4
v 0 3 -4
v 0 4 -4
v 0 5 -4
v 0 5 -3
v 0 1 -2
v 0 5 -2
v 0 1 -1
v 0 5 -1
v 0 1 0
v 0 5 0
v 0 1 1
v 0 5 1
v 0 1 2
v 0 5 2
v 0 1 3
v 0 5 3
v 0 1 4
v 0 2 4
v 0 3 4
v 0 4 4
v 0 5 4
v 1 1 -3
v 1 1 -4
v 1 2 -4
v 1 3 -4
v 1 4 -4
v 1 5 -4
v 1 5 -3
v 1 1 -2
v 1 5 -2
v 1 1 -1
v 1 5 -1
v 1 1 0
v 1 5 0
v 1 1 1
v 1 5 1
v 1 1 2
v 1 5 2
v 1 1 3
v 1 5 3
v 1 1 4
v 1 2 4
v 1 3 4
v 1 4 4
v 1 5 4
v 2 1 -3
v 2 1 -4
v 2 2 -4
v 2 3 -4
v 2 4 -4
v 2 5 -4
v 2 5 -3
v 2 1 -2
v 2 5 -2
v 2 1 -1
v 2 5 -1
v 2 1 0
v 2 5 0
v 2 1 1
v 2 5 1
v 2 1 2
v 2 5 2
v 2 1 3
v 2 5 3
v 2 1 4
v 2 2 4
v 2 3 4
v 2 4 4
v 2 5 4
v 3 1 -3
v 3 1 -4
v 3 2 -4
v 3 2 -3
v 3 3 -4
v 3 3 -3
v 3 4 -4
v 3 4 -3
v 3 5 -4
v 3 5 -3
v 3 1 -2
v 3 2 -2
v 3 3 -2
v 3 4 -2
v 3 5 -2
v 3 1 -1
v 3 2 -1
v 3 3 -1
v 3 4 -1
v 3 5 -1
v 3 1 0
v 3 2 0
v 3 3 0
v 3 4 0
v 3 5 0
v 3 1 1
v 3 2 1
v 3 3 1
v 3 4 1
v 3 5 1
v 3 1 2
v 3 2 2
v 3 3 2
v 3 4 2
v 3 5 2
v 3 1 3
v 3 2 3
v 3 3 3
v 3 4 3
v 3 5 3
v 3 1 4
v 3 2 4
v 3 3 4
v 3 4 4
v 3 5 4
f 2//1 3//1 4//1 1//1
f 2//2 1//2 6//2 5//2
f 1//3 4//3 7//3 6//3
f 3//1 8//1 9//1 4//1
f 4//3 9//3 10//3 7//3
f 8//1 11//1 12//1 9//1
f 9//3 12//3 13//3 10//3
f 11//1 14//1 15//1 12//1
f 12//3 15//3 16//3 13//3
f 14//5 17//5 16//5 15//5
f 18//1 19//1 3//1 2//1
f 18//2 2//2 5//2 20//2
f 19//1 21//1 8//1 3//1
f 21//1 22//1 11//1 8//1
f 22//1 23//1 14//1 11//1
f 23//5 24//5 17//5 14//5
f 25//1 26//1 19//1 18//1
f 25//2 18//2 20//2 27//2
f 26//1 28//1 21//1 19//1
f 28//1 29//1 22//1 21//1
f 29//1 30//1 23//1 22//1
f 30//5 31//5 24//5 23//5
f 32//1 33//1 26//1 25//1
f 32//2 25//2 27//2 34//2
f 33//1 35//1 28//1 26//1
f 35//1 36//1 29//1 28//1
f 36//1 37//1 30//1 29//1
f 37//5 38//5 31//5 30//5
f 39//1 40//1 33//1 32//1
f 39//2 32//2 34//2 41//2
f 40//1 42//1 35//1 33//1
f 42//1 43//1 36//1 35//1
f 43//1 44//1 37//1 36//1
f 44//5 45//5 38//5 37//5
f 46//1 47//1 40//1 39//1
f 46//2 39//2 41//2 48//2
f 47//1 49//1 42//1 40//1
f 49//1 50//1 43//1 42//1
f 50//1 51//1 44//1 43//1
f 51//5 52//5 45//5 44//5
f 53//1 54//1 47//1 46//1
f 53//2 46//2 48//2 55//2
f 54//1 56//1 49//1 47//1
f 56//1 57//1 50//1 49//1
f 57//1 58//1 51//1 50//1
f 58//5 59//5 52//5 51//5
f 60//1 61//1 54//1 53//1
f 60//2 53//2 55//2 62//2
f 60//6 62//6 63//6 61//6
f 61//1 64//1 56//1 54//1
f 61//6 63//6 65//6 64//6
f 64//1 66//1 57//1 56//1
f 64//6 65//6 67//6 66//6
f 66//1 68//1 58//1 57//1
f 68//5 69//5 59//5 58//5
f 66//6 67//6 69//6 68//6
f 5//2 6//2 71//2 70//2
f 6//3 7//3 72//3 71//3
f 7//3 10//3 73//3 72//3
f 10//3 13//3 74//3 73//3
f 13//3 16//3 75//3 74//3
f 17//5 76//5 75//5 16//5
f 20//2 5//2 70//2 77//2
f 24//5 78//5 76//5 17//5
f 27//2 20//2 77//2 79//2
f 31//5 80//5 78//5 24//5
f 34//2 27//2 79//2 81//2
f 38//5 82//5 80//5 31//5
f 41//2 34//2 81//2 83//2
f 45//5 84//5 82//5 38//5
f 48//2 41//2 83//2 85//2
f 52//5 86//5 84//5 45//5
f 55//2 48//2 85//2 87//2
f 59//5 88//5 86//5 52//5
f 62//2 55//2 87//2 89//2
f 62//6 89//6 90//6 63//6
f 63//6 90//6 91//6 65//6
f 65//6 91//6 92//6 67//6
f 69//5 93//5 88//5 59//5
f 67//6 92//6 93//6 69//6
f 70//2 71//2 95//2 94//2
f 71//3 72//3 96//3 95//3
f 72//3 73//3 97//3 96//3
f 73//3 74//3 98//3 97//3
f 74//3 75//3 99//3 98//3
f 76//5 100//5 99//5 75//5
f 77//2 70//2 94//2 101//2
f 78//5 102//5 100//5 76//5
f 79//2 77//2 101//2 103//2
f 80//5 104//5 102//5 78//5
f 81//2 79//2 103//2 105//2
f 82//5 106//5 104//5 80//5
f 83//2 81//2 105//2 107//2
f 84//5 108//5 106//5 82//5
f 85//2 83//2 107//2 109//2
f 86//5 110//5 108//5 84//5
f 87//2 85//2 109//2 111//2
f 88//5 112//5 110//5 86//5
f 89//2 87//2 111//2 113//2
f 89//6 113//6 114//6 90//6
f 90//6 114//6 115//6 91//6
f 91//6 115//6 116//6 92//6
f 93//5 117//5 112//5 88//5
f 92//6 116//6 117//6 93//6
f 94//2 95//2 119//2 118//2
f 95//3 96//3 120//3 119//3
f 96//3 97//3 121//3 120//3
f 97//3 98//3 122//3 121//3
f 98//3 99//3 123//3 122//3
f 100//5 124//5 123//5 99//5
f 101//2 94//2 118//2 125//2
f 102//5 126//5 124//5 100//5
f 103//2 101//2 125//2 127//2
f 104//5 128//5 126//5 102//5
f 105//2 103//2 127//2 129//2
f 106//5 130//5 128//5 104//5
f 107//2 105//2 129//2 131//2
f 108//5 132//5 130//5 106//5
f 109//2 107//2 131//2 133//2
f 110//5 134//5 132//5 108//5
f 111//2 109//2 133//2 135//2
f 112//5 136//5 134//5 110//5
f 113//2 111//2 135//2 137//2
f 113//6 137//6 138//6 114//6
f 114//6 138//6 139//6 115//6
f 115//6 139//6 140//6 116//6
f 117//5 141//5 136//5 112//5
f 116//6 140//6 141//6 117//6
f 118//2 119//2 143//2 142//2
f 119//3 120//3 144//3 143//3
f 120//3 121//3 145//3 144//3
f 121//3 122//3 146//3 145//3
f 122//3 123//3 147//3 146//3
f 124//5 148//5 147//5 123//5
f 125//2 118//2 142//2 149//2
f 126//5 150//5 148//5 124//5
f 127//2 125//2 149//2 151//2
f 128//5 152//5 150//5 126//5
f 129//2 127//2 151//2 153//2
f 130//5 154//5 152//5 128//5
f 131//2 129//2 153//2 155//2
f 132//5 156//5 154//5 130//5
f 133//2 131//2 155//2 157//2
f 134//5 158//5 156//5 132//5
f 135//2 133//2 157//2 159//2
f 136//5 160//5 158//5 134//5
f 137//2 135//2 159//2 161//2
f 137//6 161//6 162//6 138//6
f 138//6 162//6 163//6 139//6
f 139//6 163//6 164//6 140//6
f 141//5 165//5 160//5 136//5
f 140//6 164//6 165//6 141//6
f 142//2 143//2 167//2 166//2
f 143//3 144//3 168//3 167//3
f 166//4 167//4 168//4 169//4
f 144//3 145//3 170//3 168//3
f 169//4 168//4 170//4 171//4
f 145//3 146//3 172//3 170//3
f 171//4 170//4 172//4 173//4
f 146//3 147//3 174//3 172//3
f 173//4 172//4 174//4 175//4
f 148//5 175//5 174//5 147//5
f 149//2 142//2 166//2 176//2
f 176//4 166//4 169//4 177//4
f 177//4 169//4 171//4 178//4
f 178//4 171//4 173//4 179//4
f 179//4 173//4 175//4 180//4
f 150//5 180//5 175//5 148//5
f 151//2 149//2 176//2 181//2
f 181//4 176//4 177//4 182//4
f 182//4 177//4 178//4 183//4
f 183//4 178//4 179//4 184//4
f 184//4 179//4 180//4 185//4
f 152//5 185//5 180//5 150//5
f 153//2 151//2 181//2 186//2
f 186//4 181//4 182//4 187//4
f 187//4 182//4 183//4 188//4
f 188//4 183//4 184//4 189//4
f 189//4 184//4 185//4 190//4
f 154//5 190//5 185//5 152//5
f 155//2 153//2 186//2 191//2
f 191//4 186//4 187//4 192//4
f 192//4 187//4 188//4 193//4
f 193//4 188//4 189//4 194//4
f 194//4 189//4 190//4 195//4
f 156//5 195//5 190//5 154//5
f 157//2 155//2 191//2 196//2
f 196//4 191//4 192//4 197//4
f 197//4 192//4 193//4 198//4
f 198//4 193//4 194//4 199//4
f 199//4 194//4 195//4 200//4
f 158//5 200//5 195//5 156//5
f 159//2 157//2 196//2 201//2
f 201//4 196//4 197//4 202//4
f 202//4 197//4 198//4 203//4
f 203//4 198//4 199//4 204//4
f 204//4 199//4 200//4 205//4
f 160//5 205//5 200//5 158//5
f 161//2 159//2 201//2 206//2
f 206//4 201//4 202//4 207//4
f 161//6 206//6 207//6 162//6
f 207//4 202//4 203//4 208//4
f 162//6 207//6 208//6 163//6
f 208//4 203//4 204//4 209//4
f 163//6 208//6 209//6 164//6
f 209//4 204//4 205//4 210//4
f 165//5 210//5 205//5 160//5
f 164//6 209//6 210//6 165//6
