# Wavefront OBJ file made by Mineways version 13.00, http://mineways.com
# World: EMPTY
# Terrain file name: C:\Users\kumar\Downloads\mineways_min\mineways_min\terrainExt.png
# Culling scheme: Standard
# Fri Aug 28 21:26:48 2026

# Selection location min to max: 52, -34, -136 to 65, -24, -126
#   Non-empty selection location min to max: 53, -33, -135 to 64, -25, -127

# Set render type: Wavefront OBJ absolute indices
# Units for the model vertex data itself: meters

# 500 vertices, 620 faces (1240 triangles), 165 blocks
# block dimensions: X=12 by Y=9 (height) by Z=9 blocks
# Elevation shading: no
# Lighting: no
# Transparent water: no
# Map grid: no
# File type: Export no materials
# Texture output RGB: YES
# Texture output A: YES
# Texture output RGBA: YES
# Export separate types: YES
# Export individual blocks: no
#   Material per family: YES
#   Split by block type: YES
# Make groups objects: YES
# Custom material: YES
# Export lesser blocks: no
# Simplify mesh: no
# Double all billboard faces: no
# Create composite overlay faces: YES
# Center model: YES
# Use biomes: no
# Create block faces at the borders: YES
# Tree leaves solid: no
# Rotate model 0.000000 degrees
# Make Z the up direction instead of Y: no
# Scale model by making each block 1000 mm high
# Data operation options:
#   Fill air bubbles: no; Seal off entrances: no; Fill in isolated tunnels in base of model: no
#   Connect parts sharing an edge: no; Connect corner tips: no; Weld all shared edges: no
#   Delete floating objects: trees and parts smaller than 16 blocks: no
#   Hollow out bottom of model, making the walls 1000 mm thick: no; Superhollow: no
# Melt snow blocks: no
#   Debug: show separate parts as colors: no
#   Debug: show weld blocks in bright colors: no

# Full world path: C:\Users\kumar\AppData\Roaming\PrismLauncher\instances\26.1.2\minecraft\saves\EMPTY
# Full terrainExt.png path: C:\Users\kumar\Downloads\mineways_min\mineways_min\terrainExt.png
# Full current path: C:\Users\kumar\Downloads\mineways_min\mineways_min

# COMMON_MC_OBJ_START
# version: 1
# exporter: mineways
# world_name: EMPTY
# world_path: C:\Users\kumar\AppData\Roaming\PrismLauncher\instances\26.1.2\minecraft\saves\EMPTY
# export_bounds_min: (52, -34, -136)
# export_bounds_max: (65, -24, -126)
# export_offset: (-59.000000, 34.000000, 131.000000)
# block_scale: 1
# block_origin_offset: (0.000000, 0.000000, 0.000000)
# z_up: false
# texture_type: ATLAS
# has_split_blocks: true
# COMMON_MC_OBJ_END
vn -1 0 0
vn 0 -1 0
vn 0 0 -1
vn 1 0 0
vn 0 1 0
vn 0 0 1
v -6 5 0
v -6 5 1
v -6 6 1
v -6 6 0
v -5 5 1
v -5 5 0
v -5 6 0
v -5 6 1
v -6 7 1
v -6 7 0
v -5 7 0
v -5 7 1
v -6 8 1
v -6 8 0
v -5 8 0
v -5 8 1
v -6 9 1
v -6 9 0
v -5 9 0
v -5 9 1
v -4 5 1
v -4 5 0
v -4 6 0
v -4 6 1
v -4 8 1
v -4 8 0
v -4 9 0
v -4 9 1
v -3 5 1
v -3 5 0
v -3 6 0
v -3 6 1
v -3 8 1
v -3 8 0
v -3 9 0
v -3 9 1
v -3 4 -1
v -3 4 0
v -3 5 -1
v -2 4 0
v -2 4 -1
v -2 5 -1
v -2 5 0
v -3 6 -1
v -2 6 -1
v -2 6 0
v -3 7 0
v -3 7 -1
v -2 7 -1
v -2 7 0
v -3 8 -1
v -2 8 -1
v -2 8 0
v -3 9 -1
v -2 9 -1
v -2 9 0
v -3 10 0
v -3 10 -1
v -2 10 -1
v -2 10 0
v -3 4 1
v -2 4 1
v -2 5 1
v -2 6 1
v -3 7 1
v -2 7 1
v -2 8 1
v -2 9 1
v -3 10 1
v -2 10 1
v -3 4 2
v -3 5 2
v -2 4 2
v -2 5 2
v -3 6 2
v -2 6 2
v -3 7 2
v -2 7 2
v -3 8 2
v -2 8 2
v -3 9 2
v -2 9 2
v -3 10 2
v -2 10 2
v -2 4 -2
v -2 5 -2
v -1 4 -1
v -1 4 -2
v -1 5 -2
v -1 5 -1
v -2 6 -2
v -1 6 -2
v -1 6 -1
v -2 7 -2
v -1 7 -2
v -1 7 -1
v -2 8 -2
v -1 8 -2
v -1 8 -1
v -2 9 -2
v -1 9 -2
v -1 9 -1
v -2 10 -2
v -1 10 -2
v -1 10 -1
v -2 3 -1
v -2 3 0
v -1 3 0
v -1 3 -1
v -1 4 0
v -2 3 1
v -1 3 1
v -1 4 1
v -2 3 2
v -1 3 2
v -1 4 2
v -2 4 3
v -2 5 3
v -1 4 3
v -1 5 2
v -1 5 3
v -2 6 3
v -1 6 2
v -1 6 3
v -2 7 3
v -1 7 2
v -1 7 3
v -2 8 3
v -1 8 2
v -1 8 3
v -2 9 3
v -1 9 2
v -1 9 3
v -2 10 3
v -1 10 2
v -1 10 3
v -1 4 -3
v -1 5 -3
v 0 4 -2
v 0 4 -3
v 0 5 -3
v 0 5 -2
v -1 6 -3
v 0 6 -3
v 0 6 -2
v -1 7 -3
v 0 7 -3
v 0 7 -2
v -1 8 -3
v 0 8 -3
v 0 8 -2
v -1 9 -3
v 0 9 -3
v 0 9 -2
v -1 10 -3
v 0 10 -3
v 0 10 -2
v -1 3 -2
v 0 3 -1
v 0 3 -2
v 0 4 -1
v -1 2 -1
v -1 2 0
v 0 2 0
v 0 2 -1
v 0 3 0
v -1 2 1
v 0 2 1
v 0 3 1
v -1 2 2
v 0 2 2
v 0 3 2
v -1 3 3
v 0 3 3
v 0 4 2
v 0 4 3
v -1 4 4
v -1 5 4
v 0 4 4
v 0 5 3
v 0 5 4
v -1 6 4
v 0 6 3
v 0 6 4
v -1 7 4
v 0 7 3
v 0 7 4
v -1 8 4
v 0 8 3
v 0 8 4
v -1 9 4
v 0 9 3
v 0 9 4
v -1 10 4
v 0 10 3
v 0 10 4
v 0 4 -4
v 0 5 -4
v 1 4 -3
v 1 4 -4
v 1 5 -4
v 1 5 -3
v 0 6 -4
v 1 6 -4
v 1 6 -3
v 0 7 -4
v 1 7 -4
v 1 7 -3
v 0 8 -4
v 1 8 -4
v 1 8 -3
v 0 9 -4
v 1 9 -4
v 1 9 -3
v 0 10 -4
v 1 10 -4
v 1 10 -3
v 0 3 -3
v 1 3 -2
v 1 3 -3
v 1 4 -2
v 0 2 -2
v 1 2 -1
v 1 2 -2
v 1 3 -1
v 0 1 -1
v 0 1 0
v 1 1 0
v 1 1 -1
v 1 2 0
v 0 1 1
v 1 1 1
v 1 2 1
v 0 1 2
v 1 1 2
v 1 2 2
v 0 2 3
v 1 2 3
v 1 3 2
v 1 3 3
v 0 3 4
v 1 3 4
v 1 4 3
v 1 4 4
v 0 4 5
v 0 5 5
v 1 4 5
v 1 5 4
v 1 5 5
v 0 6 5
v 1 6 4
v 1 6 5
v 0 7 5
v 1 7 4
v 1 7 5
v 0 8 5
v 1 8 4
v 1 8 5
v 0 9 5
v 1 9 4
v 1 9 5
v 0 10 5
v 1 10 4
v 1 10 5
v 2 4 -3
v 2 4 -4
v 2 5 -4
v 2 5 -3
v 2 6 -4
v 2 6 -3
v 2 7 -4
v 2 7 -3
v 2 8 -4
v 2 8 -3
v 2 9 -4
v 2 9 -3
v 2 10 -4
v 2 10 -3
v 2 3 -2
v 2 3 -3
v 2 4 -2
v 2 2 -1
v 2 2 -2
v 2 3 -1
v 2 1 0
v 2 1 -1
v 2 2 0
v 2 1 1
v 2 2 1
v 2 1 2
v 2 2 2
v 2 2 3
v 2 3 2
v 2 3 3
v 2 3 4
v 2 4 3
v 2 4 4
v 2 4 5
v 2 5 4
v 2 5 5
v 2 6 4
v 2 6 5
v 2 7 4
v 2 7 5
v 2 8 4
v 2 8 5
v 2 9 4
v 2 9 5
v 2 10 4
v 2 10 5
v 3 4 -3
v 3 4 -4
v 3 5 -4
v 3 5 -3
v 3 6 -4
v 3 6 -3
v 3 7 -4
v 3 7 -3
v 3 8 -4
v 3 8 -3
v 3 9 -4
v 3 9 -3
v 3 10 -4
v 3 10 -3
v 3 3 -2
v 3 3 -3
v 3 4 -2
v 3 2 -1
v 3 2 -2
v 3 3 -1
v 3 1 0
v 3 1 -1
v 3 2 0
v 3 1 1
v 3 2 1
v 3 1 2
v 3 2 2
v 3 2 3
v 3 3 2
v 3 3 3
v 3 3 4
v 3 4 3
v 3 4 4
v 3 4 5
v 3 5 4
v 3 5 5
v 3 6 4
v 3 6 5
v 3 7 4
v 3 7 5
v 3 8 4
v 3 8 5
v 3 9 4
v 3 9 5
v 3 10 4
v 3 10 5
v 3 5 -2
v 4 4 -2
v 4 4 -3
v 4 5 -3
v 4 5 -2
v 3 6 -2
v 4 6 -3
v 4 6 -2
v 3 7 -2
v 4 7 -3
v 4 7 -2
v 3 8 -2
v 4 8 -3
v 4 8 -2
v 3 9 -2
v 4 9 -3
v 4 9 -2
v 3 10 -2
v 4 10 -3
v 4 10 -2
v 3 4 -1
v 4 3 -1
v 4 3 -2
v 4 4 -1
v 3 3 0
v 4 2 0
v 4 2 -1
v 4 3 0
v 3 3 1
v 4 2 1
v 4 3 1
v 4 2 2
v 4 3 2
v 3 4 2
v 4 3 3
v 4 4 2
v 4 4 3
v 3 5 3
v 4 4 4
v 4 5 3
v 4 5 4
v 3 6 3
v 4 6 3
v 4 6 4
v 3 7 3
v 4 7 3
v 4 7 4
v 3 8 3
v 4 8 3
v 4 8 4
v 3 9 3
v 4 9 3
v 4 9 4
v 3 10 3
v 4 10 3
v 4 10 4
v 4 5 -1
v 5 4 -1
v 5 4 -2
v 5 5 -2
v 5 5 -1
v 4 6 -1
v 5 6 -2
v 5 6 -1
v 4 7 -1
v 5 7 -2
v 5 7 -1
v 4 8 -1
v 5 8 -2
v 5 8 -1
v 4 9 -1
v 5 9 -2
v 5 9 -1
v 4 10 -1
v 5 10 -2
v 5 10 -1
v 4 4 0
v 5 3 0
v 5 3 -1
v 5 4 0
v 4 4 1
v 5 3 1
v 5 4 1
v 5 3 2
v 5 4 2
v 4 5 2
v 5 4 3
v 5 5 2
v 5 5 3
v 4 6 2
v 5 6 2
v 5 6 3
v 4 7 2
v 5 7 2
v 5 7 3
v 4 8 2
v 5 8 2
v 5 8 3
v 4 9 2
v 5 9 2
v 5 9 3
v 4 10 2
v 5 10 2
v 5 10 3
v 5 5 0
v 6 4 0
v 6 4 -1
v 6 5 -1
v 6 5 0
v 5 6 0
v 6 6 -1
v 6 6 0
v 5 7 0
v 6 7 -1
v 6 7 0
v 5 8 0
v 6 8 -1
v 6 8 0
v 5 9 0
v 6 9 -1
v 6 9 0
v 5 10 0
v 6 10 -1
v 6 10 0
v 5 5 1
v 6 4 1
v 6 5 1
v 5 6 1
v 6 6 1
v 5 7 1
v 6 7 1
v 5 8 1
v 6 8 1
v 5 9 1
v 6 9 1
v 5 10 1
v 6 10 1
v 6 4 2
v 6 5 2
v 6 6 2
v 6 7 2
v 6 8 2
v 6 9 2
v 6 10 2
f 2//1 3//1 4//1 1//1
f 2//2 1//2 6//2 5//2
f 1//3 4//3 7//3 6//3
f 2//6 5//6 8//6 3//6
f 3//1 9//1 10//1 4//1
f 4//3 10//3 11//3 7//3
f 8//4 7//4 11//4 12//4
f 3//6 8//6 12//6 9//6
f 9//1 13//1 14//1 10//1
f 10//3 14//3 15//3 11//3
f 12//4 11//4 15//4 16//4
f 9//6 12//6 16//6 13//6
f 13//1 17//1 18//1 14//1
f 14//3 18//3 19//3 15//3
f 17//5 20//5 19//5 18//5
f 13//6 16//6 20//6 17//6
f 5//2 6//2 22//2 21//2
f 6//3 7//3 23//3 22//3
f 8//5 24//5 23//5 7//5
f 5//6 21//6 24//6 8//6
f 16//2 15//2 26//2 25//2
f 15//3 19//3 27//3 26//3
f 20//5 28//5 27//5 19//5
f 16//6 25//6 28//6 20//6
f 21//2 22//2 30//2 29//2
f 22//3 23//3 31//3 30//3
f 24//5 32//5 31//5 23//5
f 21//6 29//6 32//6 24//6
f 25//2 26//2 34//2 33//2
f 26//3 27//3 35//3 34//3
f 28//5 36//5 35//5 27//5
f 25//6 33//6 36//6 28//6
f 38//1 30//1 39//1 37//1
f 38//2 37//2 41//2 40//2
f 37//3 39//3 42//3 41//3
f 40//4 41//4 42//4 43//4
f 30//1 31//1 44//1 39//1
f 39//3 44//3 45//3 42//3
f 43//4 42//4 45//4 46//4
f 31//1 47//1 48//1 44//1
f 44//3 48//3 49//3 45//3
f 46//4 45//4 49//4 50//4
f 47//1 34//1 51//1 48//1
f 48//3 51//3 52//3 49//3
f 50//4 49//4 52//4 53//4
f 34//1 35//1 54//1 51//1
f 51//3 54//3 55//3 52//3
f 53//4 52//4 55//4 56//4
f 35//1 57//1 58//1 54//1
f 54//3 58//3 59//3 55//3
f 56//4 55//4 59//4 60//4
f 57//5 60//5 59//5 58//5
f 61//1 29//1 30//1 38//1
f 61//2 38//2 40//2 62//2
f 62//4 40//4 43//4 63//4
f 63//4 43//4 46//4 64//4
f 32//1 65//1 47//1 31//1
f 64//4 46//4 50//4 66//4
f 65//1 33//1 34//1 47//1
f 66//4 50//4 53//4 67//4
f 67//4 53//4 56//4 68//4
f 36//1 69//1 57//1 35//1
f 68//4 56//4 60//4 70//4
f 69//5 70//5 60//5 57//5
f 71//1 72//1 29//1 61//1
f 71//2 61//2 62//2 73//2
f 73//4 62//4 63//4 74//4
f 71//6 73//6 74//6 72//6
f 72//1 75//1 32//1 29//1
f 74//4 63//4 64//4 76//4
f 72//6 74//6 76//6 75//6
f 75//1 77//1 65//1 32//1
f 76//4 64//4 66//4 78//4
f 75//6 76//6 78//6 77//6
f 77//1 79//1 33//1 65//1
f 78//4 66//4 67//4 80//4
f 77//6 78//6 80//6 79//6
f 79//1 81//1 36//1 33//1
f 80//4 67//4 68//4 82//4
f 79//6 80//6 82//6 81//6
f 81//1 83//1 69//1 36//1
f 82//4 68//4 70//4 84//4
f 83//5 84//5 70//5 69//5
f 81//6 82//6 84//6 83//6
f 41//1 42//1 86//1 85//1
f 41//2 85//2 88//2 87//2
f 85//3 86//3 89//3 88//3
f 87//4 88//4 89//4 90//4
f 41//6 87//6 90//6 42//6
f 42//1 45//1 91//1 86//1
f 86//3 91//3 92//3 89//3
f 90//4 89//4 92//4 93//4
f 42//6 90//6 93//6 45//6
f 45//1 49//1 94//1 91//1
f 91//3 94//3 95//3 92//3
f 93//4 92//4 95//4 96//4
f 45//6 93//6 96//6 49//6
f 49//1 52//1 97//1 94//1
f 94//3 97//3 98//3 95//3
f 96//4 95//4 98//4 99//4
f 49//6 96//6 99//6 52//6
f 52//1 55//1 100//1 97//1
f 97//3 100//3 101//3 98//3
f 99//4 98//4 101//4 102//4
f 52//6 99//6 102//6 55//6
f 55//1 59//1 103//1 100//1
f 100//3 103//3 104//3 101//3
f 102//4 101//4 104//4 105//4
f 59//5 105//5 104//5 103//5
f 55//6 102//6 105//6 59//6
f 107//1 40//1 41//1 106//1
f 107//2 106//2 109//2 108//2
f 106//3 41//3 87//3 109//3
f 108//4 109//4 87//4 110//4
f 40//5 110//5 87//5 41//5
f 111//1 62//1 40//1 107//1
f 111//2 107//2 108//2 112//2
f 112//4 108//4 110//4 113//4
f 62//5 113//5 110//5 40//5
f 114//1 73//1 62//1 111//1
f 114//2 111//2 112//2 115//2
f 115//4 112//4 113//4 116//4
f 73//5 116//5 113//5 62//5
f 114//6 115//6 116//6 73//6
f 117//1 118//1 74//1 73//1
f 117//2 73//2 116//2 119//2
f 73//3 74//3 120//3 116//3
f 119//4 116//4 120//4 121//4
f 117//6 119//6 121//6 118//6
f 118//1 122//1 76//1 74//1
f 74//3 76//3 123//3 120//3
f 121//4 120//4 123//4 124//4
f 118//6 121//6 124//6 122//6
f 122//1 125//1 78//1 76//1
f 76//3 78//3 126//3 123//3
f 124//4 123//4 126//4 127//4
f 122//6 124//6 127//6 125//6
f 125//1 128//1 80//1 78//1
f 78//3 80//3 129//3 126//3
f 127//4 126//4 129//4 130//4
f 125//6 127//6 130//6 128//6
f 128//1 131//1 82//1 80//1
f 80//3 82//3 132//3 129//3
f 130//4 129//4 132//4 133//4
f 128//6 130//6 133//6 131//6
f 131//1 134//1 84//1 82//1
f 82//3 84//3 135//3 132//3
f 133//4 132//4 135//4 136//4
f 134//5 136//5 135//5 84//5
f 131//6 133//6 136//6 134//6
f 88//1 89//1 138//1 137//1
f 88//2 137//2 140//2 139//2
f 137//3 138//3 141//3 140//3
f 139//4 140//4 141//4 142//4
f 88//6 139//6 142//6 89//6
f 89//1 92//1 143//1 138//1
f 138//3 143//3 144//3 141//3
f 142//4 141//4 144//4 145//4
f 89//6 142//6 145//6 92//6
f 92//1 95//1 146//1 143//1
f 143//3 146//3 147//3 144//3
f 145//4 144//4 147//4 148//4
f 92//6 145//6 148//6 95//6
f 95//1 98//1 149//1 146//1
f 146//3 149//3 150//3 147//3
f 148//4 147//4 150//4 151//4
f 95//6 148//6 151//6 98//6
f 98//1 101//1 152//1 149//1
f 149//3 152//3 153//3 150//3
f 151//4 150//4 153//4 154//4
f 98//6 151//6 154//6 101//6
f 101//1 104//1 155//1 152//1
f 152//3 155//3 156//3 153//3
f 154//4 153//4 156//4 157//4
f 104//5 157//5 156//5 155//5
f 101//6 154//6 157//6 104//6
f 109//1 87//1 88//1 158//1
f 109//2 158//2 160//2 159//2
f 158//3 88//3 139//3 160//3
f 159//4 160//4 139//4 161//4
f 87//5 161//5 139//5 88//5
f 109//6 159//6 161//6 87//6
f 163//1 108//1 109//1 162//1
f 163//2 162//2 165//2 164//2
f 162//3 109//3 159//3 165//3
f 164//4 165//4 159//4 166//4
f 108//5 166//5 159//5 109//5
f 167//1 112//1 108//1 163//1
f 167//2 163//2 164//2 168//2
f 168//4 164//4 166//4 169//4
f 112//5 169//5 166//5 108//5
f 170//1 115//1 112//1 167//1
f 170//2 167//2 168//2 171//2
f 171//4 168//4 169//4 172//4
f 115//5 172//5 169//5 112//5
f 170//6 171//6 172//6 115//6
f 173//1 119//1 116//1 115//1
f 173//2 115//2 172//2 174//2
f 115//3 116//3 175//3 172//3
f 174//4 172//4 175//4 176//4
f 119//5 176//5 175//5 116//5
f 173//6 174//6 176//6 119//6
f 177//1 178//1 121//1 119//1
f 177//2 119//2 176//2 179//2
f 119//3 121//3 180//3 176//3
f 179//4 176//4 180//4 181//4
f 177//6 179//6 181//6 178//6
f 178//1 182//1 124//1 121//1
f 121//3 124//3 183//3 180//3
f 181//4 180//4 183//4 184//4
f 178//6 181//6 184//6 182//6
f 182//1 185//1 127//1 124//1
f 124//3 127//3 186//3 183//3
f 184//4 183//4 186//4 187//4
f 182//6 184//6 187//6 185//6
f 185//1 188//1 130//1 127//1
f 127//3 130//3 189//3 186//3
f 187//4 186//4 189//4 190//4
f 185//6 187//6 190//6 188//6
f 188//1 191//1 133//1 130//1
f 130//3 133//3 192//3 189//3
f 190//4 189//4 192//4 193//4
f 188//6 190//6 193//6 191//6
f 191//1 194//1 136//1 133//1
f 133//3 136//3 195//3 192//3
f 193//4 192//4 195//4 196//4
f 194//5 196//5 195//5 136//5
f 191//6 193//6 196//6 194//6
f 140//1 141//1 198//1 197//1
f 140//2 197//2 200//2 199//2
f 197//3 198//3 201//3 200//3
f 140//6 199//6 202//6 141//6
f 141//1 144//1 203//1 198//1
f 198//3 203//3 204//3 201//3
f 141//6 202//6 205//6 144//6
f 144//1 147//1 206//1 203//1
f 203//3 206//3 207//3 204//3
f 144//6 205//6 208//6 147//6
f 147//1 150//1 209//1 206//1
f 206//3 209//3 210//3 207//3
f 147//6 208//6 211//6 150//6
f 150//1 153//1 212//1 209//1
f 209//3 212//3 213//3 210//3
f 150//6 211//6 214//6 153//6
f 153//1 156//1 215//1 212//1
f 212//3 215//3 216//3 213//3
f 156//5 217//5 216//5 215//5
f 153//6 214//6 217//6 156//6
f 160//1 139//1 140//1 218//1
f 160//2 218//2 220//2 219//2
f 218//3 140//3 199//3 220//3
f 139//5 221//5 199//5 140//5
f 160//6 219//6 221//6 139//6
f 165//1 159//1 160//1 222//1
f 165//2 222//2 224//2 223//2
f 222//3 160//3 219//3 224//3
f 159//5 225//5 219//5 160//5
f 165//6 223//6 225//6 159//6
f 227//1 164//1 165//1 226//1
f 227//2 226//2 229//2 228//2
f 226//3 165//3 223//3 229//3
f 164//5 230//5 223//5 165//5
f 231//1 168//1 164//1 227//1
f 231//2 227//2 228//2 232//2
f 168//5 233//5 230//5 164//5
f 234//1 171//1 168//1 231//1
f 234//2 231//2 232//2 235//2
f 171//5 236//5 233//5 168//5
f 234//6 235//6 236//6 171//6
f 237//1 174//1 172//1 171//1
f 237//2 171//2 236//2 238//2
f 171//3 172//3 239//3 236//3
f 174//5 240//5 239//5 172//5
f 237//6 238//6 240//6 174//6
f 241//1 179//1 176//1 174//1
f 241//2 174//2 240//2 242//2
f 174//3 176//3 243//3 240//3
f 179//5 244//5 243//5 176//5
f 241//6 242//6 244//6 179//6
f 245//1 246//1 181//1 179//1
f 245//2 179//2 244//2 247//2
f 179//3 181//3 248//3 244//3
f 245//6 247//6 249//6 246//6
f 246//1 250//1 184//1 181//1
f 181//3 184//3 251//3 248//3
f 246//6 249//6 252//6 250//6
f 250//1 253//1 187//1 184//1
f 184//3 187//3 254//3 251//3
f 250//6 252//6 255//6 253//6
f 253//1 256//1 190//1 187//1
f 187//3 190//3 257//3 254//3
f 253//6 255//6 258//6 256//6
f 256//1 259//1 193//1 190//1
f 190//3 193//3 260//3 257//3
f 256//6 258//6 261//6 259//6
f 259//1 262//1 196//1 193//1
f 193//3 196//3 263//3 260//3
f 262//5 264//5 263//5 196//5
f 259//6 261//6 264//6 262//6
f 199//2 200//2 266//2 265//2
f 200//3 201//3 267//3 266//3
f 199//6 265//6 268//6 202//6
f 201//3 204//3 269//3 267//3
f 202//6 268//6 270//6 205//6
f 204//3 207//3 271//3 269//3
f 205//6 270//6 272//6 208//6
f 207//3 210//3 273//3 271//3
f 208//6 272//6 274//6 211//6
f 210//3 213//3 275//3 273//3
f 211//6 274//6 276//6 214//6
f 213//3 216//3 277//3 275//3
f 217//5 278//5 277//5 216//5
f 214//6 276//6 278//6 217//6
f 219//2 220//2 280//2 279//2
f 220//3 199//3 265//3 280//3
f 221//5 281//5 265//5 199//5
f 219//6 279//6 281//6 221//6
f 223//2 224//2 283//2 282//2
f 224//3 219//3 279//3 283//3
f 225//5 284//5 279//5 219//5
f 223//6 282//6 284//6 225//6
f 228//2 229//2 286//2 285//2
f 229//3 223//3 282//3 286//3
f 230//5 287//5 282//5 223//5
f 232//2 228//2 285//2 288//2
f 233//5 289//5 287//5 230//5
f 235//2 232//2 288//2 290//2
f 236//5 291//5 289//5 233//5
f 235//6 290//6 291//6 236//6
f 238//2 236//2 291//2 292//2
f 236//3 239//3 293//3 291//3
f 240//5 294//5 293//5 239//5
f 238//6 292//6 294//6 240//6
f 242//2 240//2 294//2 295//2
f 240//3 243//3 296//3 294//3
f 244//5 297//5 296//5 243//5
f 242//6 295//6 297//6 244//6
f 247//2 244//2 297//2 298//2
f 244//3 248//3 299//3 297//3
f 247//6 298//6 300//6 249//6
f 248//3 251//3 301//3 299//3
f 249//6 300//6 302//6 252//6
f 251//3 254//3 303//3 301//3
f 252//6 302//6 304//6 255//6
f 254//3 257//3 305//3 303//3
f 255//6 304//6 306//6 258//6
f 257//3 260//3 307//3 305//3
f 258//6 306//6 308//6 261//6
f 260//3 263//3 309//3 307//3
f 264//5 310//5 309//5 263//5
f 261//6 308//6 310//6 264//6
f 265//2 266//2 312//2 311//2
f 266//3 267//3 313//3 312//3
f 311//4 312//4 313//4 314//4
f 265//6 311//6 314//6 268//6
f 267//3 269//3 315//3 313//3
f 314//4 313//4 315//4 316//4
f 268//6 314//6 316//6 270//6
f 269//3 271//3 317//3 315//3
f 316//4 315//4 317//4 318//4
f 270//6 316//6 318//6 272//6
f 271//3 273//3 319//3 317//3
f 318//4 317//4 319//4 320//4
f 272//6 318//6 320//6 274//6
f 273//3 275//3 321//3 319//3
f 320//4 319//4 321//4 322//4
f 274//6 320//6 322//6 276//6
f 275//3 277//3 323//3 321//3
f 322//4 321//4 323//4 324//4
f 278//5 324//5 323//5 277//5
f 276//6 322//6 324//6 278//6
f 279//2 280//2 326//2 325//2
f 280//3 265//3 311//3 326//3
f 325//4 326//4 311//4 327//4
f 281//5 327//5 311//5 265//5
f 279//6 325//6 327//6 281//6
f 282//2 283//2 329//2 328//2
f 283//3 279//3 325//3 329//3
f 328//4 329//4 325//4 330//4
f 284//5 330//5 325//5 279//5
f 282//6 328//6 330//6 284//6
f 285//2 286//2 332//2 331//2
f 286//3 282//3 328//3 332//3
f 331//4 332//4 328//4 333//4
f 287//5 333//5 328//5 282//5
f 288//2 285//2 331//2 334//2
f 334//4 331//4 333//4 335//4
f 289//5 335//5 333//5 287//5
f 290//2 288//2 334//2 336//2
f 336//4 334//4 335//4 337//4
f 291//5 337//5 335//5 289//5
f 290//6 336//6 337//6 291//6
f 292//2 291//2 337//2 338//2
f 291//3 293//3 339//3 337//3
f 338//4 337//4 339//4 340//4
f 294//5 340//5 339//5 293//5
f 292//6 338//6 340//6 294//6
f 295//2 294//2 340//2 341//2
f 294//3 296//3 342//3 340//3
f 341//4 340//4 342//4 343//4
f 297//5 343//5 342//5 296//5
f 295//6 341//6 343//6 297//6
f 298//2 297//2 343//2 344//2
f 297//3 299//3 345//3 343//3
f 344//4 343//4 345//4 346//4
f 298//6 344//6 346//6 300//6
f 299//3 301//3 347//3 345//3
f 346//4 345//4 347//4 348//4
f 300//6 346//6 348//6 302//6
f 301//3 303//3 349//3 347//3
f 348//4 347//4 349//4 350//4
f 302//6 348//6 350//6 304//6
f 303//3 305//3 351//3 349//3
f 350//4 349//4 351//4 352//4
f 304//6 350//6 352//6 306//6
f 305//3 307//3 353//3 351//3
f 352//4 351//4 353//4 354//4
f 306//6 352//6 354//6 308//6
f 307//3 309//3 355//3 353//3
f 354//4 353//4 355//4 356//4
f 310//5 356//5 355//5 309//5
f 308//6 354//6 356//6 310//6
f 327//1 357//1 314//1 311//1
f 327//2 311//2 359//2 358//2
f 311//3 314//3 360//3 359//3
f 358//4 359//4 360//4 361//4
f 327//6 358//6 361//6 357//6
f 357//1 362//1 316//1 314//1
f 314//3 316//3 363//3 360//3
f 361//4 360//4 363//4 364//4
f 357//6 361//6 364//6 362//6
f 362//1 365//1 318//1 316//1
f 316//3 318//3 366//3 363//3
f 364//4 363//4 366//4 367//4
f 362//6 364//6 367//6 365//6
f 365//1 368//1 320//1 318//1
f 318//3 320//3 369//3 366//3
f 367//4 366//4 369//4 370//4
f 365//6 367//6 370//6 368//6
f 368//1 371//1 322//1 320//1
f 320//3 322//3 372//3 369//3
f 370//4 369//4 372//4 373//4
f 368//6 370//6 373//6 371//6
f 371//1 374//1 324//1 322//1
f 322//3 324//3 375//3 372//3
f 373//4 372//4 375//4 376//4
f 374//5 376//5 375//5 324//5
f 371//6 373//6 376//6 374//6
f 330//1 377//1 327//1 325//1
f 330//2 325//2 379//2 378//2
f 325//3 327//3 358//3 379//3
f 378//4 379//4 358//4 380//4
f 377//5 380//5 358//5 327//5
f 330//6 378//6 380//6 377//6
f 333//1 381//1 330//1 328//1
f 333//2 328//2 383//2 382//2
f 328//3 330//3 378//3 383//3
f 382//4 383//4 378//4 384//4
f 381//5 384//5 378//5 330//5
f 335//1 385//1 381//1 333//1
f 335//2 333//2 382//2 386//2
f 386//4 382//4 384//4 387//4
f 385//5 387//5 384//5 381//5
f 337//1 339//1 385//1 335//1
f 337//2 335//2 386//2 388//2
f 388//4 386//4 387//4 389//4
f 339//5 389//5 387//5 385//5
f 337//6 388//6 389//6 339//6
f 340//1 342//1 390//1 339//1
f 340//2 339//2 389//2 391//2
f 339//3 390//3 392//3 389//3
f 391//4 389//4 392//4 393//4
f 342//5 393//5 392//5 390//5
f 340//6 391//6 393//6 342//6
f 343//1 345//1 394//1 342//1
f 343//2 342//2 393//2 395//2
f 342//3 394//3 396//3 393//3
f 395//4 393//4 396//4 397//4
f 343//6 395//6 397//6 345//6
f 345//1 347//1 398//1 394//1
f 394//3 398//3 399//3 396//3
f 397//4 396//4 399//4 400//4
f 345//6 397//6 400//6 347//6
f 347//1 349//1 401//1 398//1
f 398//3 401//3 402//3 399//3
f 400//4 399//4 402//4 403//4
f 347//6 400//6 403//6 349//6
f 349//1 351//1 404//1 401//1
f 401//3 404//3 405//3 402//3
f 403//4 402//4 405//4 406//4
f 349//6 403//6 406//6 351//6
f 351//1 353//1 407//1 404//1
f 404//3 407//3 408//3 405//3
f 406//4 405//4 408//4 409//4
f 351//6 406//6 409//6 353//6
f 353//1 355//1 410//1 407//1
f 407//3 410//3 411//3 408//3
f 409//4 408//4 411//4 412//4
f 355//5 412//5 411//5 410//5
f 353//6 409//6 412//6 355//6
f 380//1 413//1 361//1 358//1
f 380//2 358//2 415//2 414//2
f 358//3 361//3 416//3 415//3
f 414//4 415//4 416//4 417//4
f 380//6 414//6 417//6 413//6
f 413//1 418//1 364//1 361//1
f 361//3 364//3 419//3 416//3
f 417//4 416//4 419//4 420//4
f 413//6 417//6 420//6 418//6
f 418//1 421//1 367//1 364//1
f 364//3 367//3 422//3 419//3
f 420//4 419//4 422//4 423//4
f 418//6 420//6 423//6 421//6
f 421//1 424//1 370//1 367//1
f 367//3 370//3 425//3 422//3
f 423//4 422//4 425//4 426//4
f 421//6 423//6 426//6 424//6
f 424//1 427//1 373//1 370//1
f 370//3 373//3 428//3 425//3
f 426//4 425//4 428//4 429//4
f 424//6 426//6 429//6 427//6
f 427//1 430//1 376//1 373//1
f 373//3 376//3 431//3 428//3
f 429//4 428//4 431//4 432//4
f 430//5 432//5 431//5 376//5
f 427//6 429//6 432//6 430//6
f 384//1 433//1 380//1 378//1
f 384//2 378//2 435//2 434//2
f 378//3 380//3 414//3 435//3
f 434//4 435//4 414//4 436//4
f 433//5 436//5 414//5 380//5
f 387//1 437//1 433//1 384//1
f 387//2 384//2 434//2 438//2
f 438//4 434//4 436//4 439//4
f 437//5 439//5 436//5 433//5
f 389//1 392//1 437//1 387//1
f 389//2 387//2 438//2 440//2
f 440//4 438//4 439//4 441//4
f 392//5 441//5 439//5 437//5
f 389//6 440//6 441//6 392//6
f 393//1 396//1 442//1 392//1
f 393//2 392//2 441//2 443//2
f 392//3 442//3 444//3 441//3
f 443//4 441//4 444//4 445//4
f 393//6 443//6 445//6 396//6
f 396//1 399//1 446//1 442//1
f 442//3 446//3 447//3 444//3
f 445//4 444//4 447//4 448//4
f 396//6 445//6 448//6 399//6
f 399//1 402//1 449//1 446//1
f 446//3 449//3 450//3 447//3
f 448//4 447//4 450//4 451//4
f 399//6 448//6 451//6 402//6
f 402//1 405//1 452//1 449//1
f 449//3 452//3 453//3 450//3
f 451//4 450//4 453//4 454//4
f 402//6 451//6 454//6 405//6
f 405//1 408//1 455//1 452//1
f 452//3 455//3 456//3 453//3
f 454//4 453//4 456//4 457//4
f 405//6 454//6 457//6 408//6
f 408//1 411//1 458//1 455//1
f 455//3 458//3 459//3 456//3
f 457//4 456//4 459//4 460//4
f 411//5 460//5 459//5 458//5
f 408//6 457//6 460//6 411//6
f 436//1 461//1 417//1 414//1
f 436//2 414//2 463//2 462//2
f 414//3 417//3 464//3 463//3
f 462//4 463//4 464//4 465//4
f 461//1 466//1 420//1 417//1
f 417//3 420//3 467//3 464//3
f 465//4 464//4 467//4 468//4
f 466//1 469//1 423//1 420//1
f 420//3 423//3 470//3 467//3
f 468//4 467//4 470//4 471//4
f 469//1 472//1 426//1 423//1
f 423//3 426//3 473//3 470//3
f 471//4 470//4 473//4 474//4
f 472//1 475//1 429//1 426//1
f 426//3 429//3 476//3 473//3
f 474//4 473//4 476//4 477//4
f 475//1 478//1 432//1 429//1
f 429//3 432//3 479//3 476//3
f 477//4 476//4 479//4 480//4
f 478//5 480//5 479//5 432//5
f 439//1 481//1 461//1 436//1
f 439//2 436//2 462//2 482//2
f 482//4 462//4 465//4 483//4
f 481//1 484//1 466//1 461//1
f 483//4 465//4 468//4 485//4
f 484//1 486//1 469//1 466//1
f 485//4 468//4 471//4 487//4
f 486//1 488//1 472//1 469//1
f 487//4 471//4 474//4 489//4
f 488//1 490//1 475//1 472//1
f 489//4 474//4 477//4 491//4
f 490//1 492//1 478//1 475//1
f 491//4 477//4 480//4 493//4
f 492//5 493//5 480//5 478//5
f 441//1 444//1 481//1 439//1
f 441//2 439//2 482//2 494//2
f 494//4 482//4 483//4 495//4
f 441//6 494//6 495//6 444//6
f 444//1 447//1 484//1 481//1
f 495//4 483//4 485//4 496//4
f 444//6 495//6 496//6 447//6
f 447//1 450//1 486//1 484//1
f 496//4 485//4 487//4 497//4
f 447//6 496//6 497//6 450//6
f 450//1 453//1 488//1 486//1
f 497//4 487//4 489//4 498//4
f 450//6 497//6 498//6 453//6
f 453//1 456//1 490//1 488//1
f 498//4 489//4 491//4 499//4
f 453//6 498//6 499//6 456//6
f 456//1 459//1 492//1 490//1
f 499//4 491//4 493//4 500//4
f 459//5 500//5 493//5 492//5
f 456//6 499//6 500//6 459//6
