# Wavefront OBJ file made by Mineways version 13.00, http://mineways.com
# World: EMPTY
# Terrain file name: C:\Users\kumar\Downloads\mineways_min\mineways_min\terrainExt.png
# Culling scheme: Standard
# Fri Aug 28 21:28:36 2026

# Selection location min to max: 115, -38, -147 to 132, -34, -141
#   Non-empty selection location min to max: 116, -37, -146 to 131, -35, -142

# Set render type: Wavefront OBJ absolute indices
# Units for the model vertex data itself: meters

# 284 vertices, 282 faces (564 triangles), 160 blocks
# block dimensions: X=16 by Y=3 (height) by Z=5 blocks
# Elevation shading: no
# Lighting: no
# Transparent water: no
# Map grid: no
# File type: Export no materials
# Texture output RGB: YES
# Texture output A: YES
# Texture output RGBA: YES
# Export separate types: YES
# Export individual blocks: no
#   Material per family: YES
#   Split by block type: YES
# Make groups objects: YES
# Custom material: YES
# Export lesser blocks: no
# Simplify mesh: no
# Double all billboard faces: no
# Create composite overlay faces: YES
# Center model: YES
# Use biomes: no
# Create block faces at the borders: YES
# Tree leaves solid: no
# Rotate model 0.000000 degrees
# Make Z the up direction instead of Y: no
# Scale model by making each block 1000 mm high
# Data operation options:
#   Fill air bubbles: no; Seal off entrances: no; Fill in isolated tunnels in base of model: no
#   Connect parts sharing an edge: no; Connect corner tips: no; Weld all shared edges: no
#   Delete floating objects: trees and parts smaller than 16 blocks: no
#   Hollow out bottom of model, making the walls 1000 mm thick: no; Superhollow: no
# Melt snow blocks: no
#   Debug: show separate parts as colors: no
#   Debug: show weld blocks in bright colors: no

# Full world path: C:\Users\kumar\AppData\Roaming\PrismLauncher\instances\26.1.2\minecraft\saves\EMPTY
# Full terrainExt.png path: C:\Users\kumar\Downloads\mineways_min\mineways_min\terrainExt.png
# Full current path: C:\Users\kumar\Downloads\mineways_min\mineways_min

# COMMON_MC_OBJ_START
# version: 1
# exporter: mineways
# world_name: EMPTY
# world_path: C:\Users\kumar\AppData\Roaming\PrismLauncher\instances\26.1.2\minecraft\saves\EMPTY
# export_bounds_min: (115, -38, -147)
# export_bounds_max: (132, -34, -141)
# export_offset: (-124.000000, 38.000000, 144.000000)
# block_scale: 1
# block_origin_offset: (0.000000, 0.000000, 0.000000)
# z_up: false
# texture_type: ATLAS
# has_split_blocks: true
# COMMON_MC_OBJ_END
vn -1 0 0
vn 0 -1 0
vn 0 0 -1
vn 1 0 0
vn 0 1 0
vn 0 0 1
v -8 1 1
v -8 1 2
v -8 2 2
v -8 2 1
v -7 1 2
v -7 1 1
v -7 2 1
v -8 3 2
v -8 3 1
v -7 3 1
v -7 3 2
v -8 1 3
v -8 2 3
v -7 1 3
v -7 2 3
v -8 3 3
v -7 3 3
v -6 1 2
v -6 1 1
v -6 2 1
v -6 3 1
v -6 3 2
v -6 1 3
v -6 2 3
v -6 3 3
v -5 1 2
v -5 1 1
v -5 2 1
v -5 3 1
v -5 3 2
v -5 1 3
v -5 2 3
v -5 3 3
v -5 1 -2
v -5 1 -1
v -5 2 -1
v -5 2 -2
v -4 1 -1
v -4 1 -2
v -4 2 -2
v -5 3 -1
v -5 3 -2
v -4 3 -2
v -4 3 -1
v -5 1 0
v -5 2 0
v -4 1 0
v -5 3 0
v -4 3 0
v -4 1 1
v -4 3 1
v -4 1 2
v -5 4 2
v -5 4 1
v -4 4 1
v -4 4 2
v -4 1 3
v -4 2 3
v -4 3 3
v -5 4 3
v -4 4 3
v -3 1 -1
v -3 1 -2
v -3 2 -2
v -3 3 -2
v -3 3 -1
v -3 1 0
v -3 3 0
v -3 1 1
v -3 3 1
v -3 1 2
v -3 4 1
v -3 3 2
v -3 4 2
v -3 1 3
v -3 2 3
v -3 3 3
v -3 4 3
v -2 1 -1
v -2 1 -2
v -2 2 -2
v -2 3 -2
v -2 3 -1
v -2 1 0
v -2 3 0
v -2 1 1
v -2 3 1
v -2 1 2
v -2 3 2
v -2 1 3
v -2 2 3
v -2 3 3
v -1 1 -1
v -1 1 -2
v -1 2 -2
v -1 3 -2
v -1 3 -1
v -1 1 0
v -2 4 0
v -2 4 -1
v -1 4 -1
v -1 3 0
v -1 4 0
v -1 1 1
v -1 3 1
v -1 1 2
v -2 4 2
v -2 4 1
v -1 4 1
v -1 3 2
v -1 4 2
v -1 1 3
v -1 2 3
v -1 3 3
v 0 1 -1
v 0 1 -2
v 0 2 -2
v 0 3 -2
v 0 3 -1
v 0 1 0
v 0 3 0
v 0 1 1
v 0 3 1
v 0 1 2
v 0 3 2
v 0 1 3
v 0 2 3
v 0 3 3
v 1 1 -1
v 1 1 -2
v 1 2 -2
v 1 3 -2
v 1 3 -1
v 1 1 0
v 0 4 0
v 0 4 -1
v 1 4 -1
v 1 3 0
v 1 4 0
v 1 1 1
v 1 3 1
v 1 1 2
v 0 4 2
v 0 4 1
v 1 4 1
v 1 3 2
v 1 4 2
v 1 1 3
v 1 2 3
v 1 3 3
v 2 1 -1
v 2 1 -2
v 2 2 -2
v 2 3 -2
v 2 3 -1
v 2 1 0
v 2 3 0
v 2 1 1
v 2 3 1
v 2 1 2
v 2 3 2
v 2 1 3
v 2 2 3
v 2 3 3
v 3 1 -1
v 3 1 -2
v 3 2 -2
v 3 3 -2
v 3 3 -1
v 3 1 0
v 2 4 0
v 2 4 -1
v 3 4 -1
v 3 3 0
v 3 4 0
v 3 1 1
v 3 3 1
v 3 1 2
v 2 4 2
v 2 4 1
v 3 4 1
v 3 3 2
v 3 4 2
v 3 1 3
v 3 2 3
v 3 3 3
v 4 1 -1
v 4 1 -2
v 4 2 -2
v 4 3 -2
v 4 3 -1
v 4 1 0
v 4 3 0
v 4 1 1
v 4 3 1
v 4 1 2
v 4 3 2
v 4 1 3
v 4 2 3
v 4 3 3
v 5 1 -1
v 5 1 -2
v 5 2 -2
v 5 3 -2
v 5 3 -1
v 5 1 0
v 5 3 0
v 5 1 1
v 5 3 1
v 5 1 2
v 5 3 2
v 5 1 3
v 5 2 3
v 5 3 3
v 6 1 -1
v 6 1 -2
v 6 2 -2
v 6 3 -2
v 5 4 -1
v 5 4 -2
v 6 4 -2
v 6 3 -1
v 6 4 -1
v 6 1 0
v 5 4 0
v 6 3 0
v 6 4 0
v 6 1 1
v 6 3 1
v 6 1 2
v 5 4 2
v 5 4 1
v 6 4 1
v 6 3 2
v 6 4 2
v 6 1 3
v 6 2 3
v 6 3 3
v 5 4 3
v 6 4 3
v 7 1 -1
v 7 1 -2
v 7 2 -2
v 7 3 -2
v 7 3 -1
v 7 1 0
v 7 3 0
v 7 1 1
v 7 3 1
v 7 1 2
v 7 3 2
v 7 1 3
v 7 2 3
v 7 3 3
v 8 1 -1
v 8 1 -2
v 8 2 -2
v 8 2 -1
v 8 3 -2
v 8 3 -1
v 7 4 -1
v 7 4 -2
v 8 4 -2
v 8 4 -1
v 8 1 0
v 8 2 0
v 8 3 0
v 7 4 0
v 8 4 0
v 8 1 1
v 8 2 1
v 8 3 1
v 8 1 2
v 8 2 2
v 8 3 2
v 7 4 2
v 7 4 1
v 8 4 1
v 8 4 2
v 8 1 3
v 8 2 3
v 8 3 3
v 7 4 3
v 8 4 3
f 2//1 3//1 4//1 1//1
f 2//2 1//2 6//2 5//2
f 1//3 4//3 7//3 6//3
f 3//1 8//1 9//1 4//1
f 4//3 9//3 10//3 7//3
f 8//5 11//5 10//5 9//5
f 12//1 13//1 3//1 2//1
f 12//2 2//2 5//2 14//2
f 12//6 14//6 15//6 13//6
f 13//1 16//1 8//1 3//1
f 16//5 17//5 11//5 8//5
f 13//6 15//6 17//6 16//6
f 5//2 6//2 19//2 18//2
f 6//3 7//3 20//3 19//3
f 7//3 10//3 21//3 20//3
f 11//5 22//5 21//5 10//5
f 14//2 5//2 18//2 23//2
f 14//6 23//6 24//6 15//6
f 17//5 25//5 22//5 11//5
f 15//6 24//6 25//6 17//6
f 18//2 19//2 27//2 26//2
f 19//3 20//3 28//3 27//3
f 20//3 21//3 29//3 28//3
f 22//5 30//5 29//5 21//5
f 23//2 18//2 26//2 31//2
f 23//6 31//6 32//6 24//6
f 25//5 33//5 30//5 22//5
f 24//6 32//6 33//6 25//6
f 35//1 36//1 37//1 34//1
f 35//2 34//2 39//2 38//2
f 34//3 37//3 40//3 39//3
f 36//1 41//1 42//1 37//1
f 37//3 42//3 43//3 40//3
f 41//5 44//5 43//5 42//5
f 45//1 46//1 36//1 35//1
f 45//2 35//2 38//2 47//2
f 46//1 48//1 41//1 36//1
f 48//5 49//5 44//5 41//5
f 27//1 28//1 46//1 45//1
f 27//2 45//2 47//2 50//2
f 28//1 29//1 48//1 46//1
f 29//5 51//5 49//5 48//5
f 26//2 27//2 50//2 52//2
f 30//1 53//1 54//1 29//1
f 29//3 54//3 55//3 51//3
f 53//5 56//5 55//5 54//5
f 31//2 26//2 52//2 57//2
f 31//6 57//6 58//6 32//6
f 32//6 58//6 59//6 33//6
f 33//1 60//1 53//1 30//1
f 60//5 61//5 56//5 53//5
f 33//6 59//6 61//6 60//6
f 38//2 39//2 63//2 62//2
f 39//3 40//3 64//3 63//3
f 40//3 43//3 65//3 64//3
f 44//5 66//5 65//5 43//5
f 47//2 38//2 62//2 67//2
f 49//5 68//5 66//5 44//5
f 50//2 47//2 67//2 69//2
f 51//5 70//5 68//5 49//5
f 52//2 50//2 69//2 71//2
f 51//3 55//3 72//3 70//3
f 73//4 70//4 72//4 74//4
f 56//5 74//5 72//5 55//5
f 57//2 52//2 71//2 75//2
f 57//6 75//6 76//6 58//6
f 58//6 76//6 77//6 59//6
f 77//4 73//4 74//4 78//4
f 61//5 78//5 74//5 56//5
f 59//6 77//6 78//6 61//6
f 62//2 63//2 80//2 79//2
f 63//3 64//3 81//3 80//3
f 64//3 65//3 82//3 81//3
f 66//5 83//5 82//5 65//5
f 67//2 62//2 79//2 84//2
f 68//5 85//5 83//5 66//5
f 69//2 67//2 84//2 86//2
f 70//5 87//5 85//5 68//5
f 71//2 69//2 86//2 88//2
f 73//5 89//5 87//5 70//5
f 75//2 71//2 88//2 90//2
f 75//6 90//6 91//6 76//6
f 77//5 92//5 89//5 73//5
f 76//6 91//6 92//6 77//6
f 79//2 80//2 94//2 93//2
f 80//3 81//3 95//3 94//3
f 81//3 82//3 96//3 95//3
f 83//5 97//5 96//5 82//5
f 84//2 79//2 93//2 98//2
f 85//1 99//1 100//1 83//1
f 83//3 100//3 101//3 97//3
f 102//4 97//4 101//4 103//4
f 99//5 103//5 101//5 100//5
f 85//6 102//6 103//6 99//6
f 86//2 84//2 98//2 104//2
f 87//5 105//5 102//5 85//5
f 88//2 86//2 104//2 106//2
f 89//1 107//1 108//1 87//1
f 87//3 108//3 109//3 105//3
f 110//4 105//4 109//4 111//4
f 107//5 111//5 109//5 108//5
f 89//6 110//6 111//6 107//6
f 90//2 88//2 106//2 112//2
f 90//6 112//6 113//6 91//6
f 92//5 114//5 110//5 89//5
f 91//6 113//6 114//6 92//6
f 93//2 94//2 116//2 115//2
f 94//3 95//3 117//3 116//3
f 95//3 96//3 118//3 117//3
f 97//5 119//5 118//5 96//5
f 98//2 93//2 115//2 120//2
f 102//5 121//5 119//5 97//5
f 104//2 98//2 120//2 122//2
f 105//5 123//5 121//5 102//5
f 106//2 104//2 122//2 124//2
f 110//5 125//5 123//5 105//5
f 112//2 106//2 124//2 126//2
f 112//6 126//6 127//6 113//6
f 114//5 128//5 125//5 110//5
f 113//6 127//6 128//6 114//6
f 115//2 116//2 130//2 129//2
f 116//3 117//3 131//3 130//3
f 117//3 118//3 132//3 131//3
f 119//5 133//5 132//5 118//5
f 120//2 115//2 129//2 134//2
f 121//1 135//1 136//1 119//1
f 119//3 136//3 137//3 133//3
f 138//4 133//4 137//4 139//4
f 135//5 139//5 137//5 136//5
f 121//6 138//6 139//6 135//6
f 122//2 120//2 134//2 140//2
f 123//5 141//5 138//5 121//5
f 124//2 122//2 140//2 142//2
f 125//1 143//1 144//1 123//1
f 123//3 144//3 145//3 141//3
f 146//4 141//4 145//4 147//4
f 143//5 147//5 145//5 144//5
f 125//6 146//6 147//6 143//6
f 126//2 124//2 142//2 148//2
f 126//6 148//6 149//6 127//6
f 128//5 150//5 146//5 125//5
f 127//6 149//6 150//6 128//6
f 129//2 130//2 152//2 151//2
f 130//3 131//3 153//3 152//3
f 131//3 132//3 154//3 153//3
f 133//5 155//5 154//5 132//5
f 134//2 129//2 151//2 156//2
f 138//5 157//5 155//5 133//5
f 140//2 134//2 156//2 158//2
f 141//5 159//5 157//5 138//5
f 142//2 140//2 158//2 160//2
f 146//5 161//5 159//5 141//5
f 148//2 142//2 160//2 162//2
f 148//6 162//6 163//6 149//6
f 150//5 164//5 161//5 146//5
f 149//6 163//6 164//6 150//6
f 151//2 152//2 166//2 165//2
f 152//3 153//3 167//3 166//3
f 153//3 154//3 168//3 167//3
f 155//5 169//5 168//5 154//5
f 156//2 151//2 165//2 170//2
f 157//1 171//1 172//1 155//1
f 155//3 172//3 173//3 169//3
f 174//4 169//4 173//4 175//4
f 171//5 175//5 173//5 172//5
f 157//6 174//6 175//6 171//6
f 158//2 156//2 170//2 176//2
f 159//5 177//5 174//5 157//5
f 160//2 158//2 176//2 178//2
f 161//1 179//1 180//1 159//1
f 159//3 180//3 181//3 177//3
f 182//4 177//4 181//4 183//4
f 179//5 183//5 181//5 180//5
f 161//6 182//6 183//6 179//6
f 162//2 160//2 178//2 184//2
f 162//6 184//6 185//6 163//6
f 164//5 186//5 182//5 161//5
f 163//6 185//6 186//6 164//6
f 165//2 166//2 188//2 187//2
f 166//3 167//3 189//3 188//3
f 167//3 168//3 190//3 189//3
f 169//5 191//5 190//5 168//5
f 170//2 165//2 187//2 192//2
f 174//5 193//5 191//5 169//5
f 176//2 170//2 192//2 194//2
f 177//5 195//5 193//5 174//5
f 178//2 176//2 194//2 196//2
f 182//5 197//5 195//5 177//5
f 184//2 178//2 196//2 198//2
f 184//6 198//6 199//6 185//6
f 186//5 200//5 197//5 182//5
f 185//6 199//6 200//6 186//6
f 187//2 188//2 202//2 201//2
f 188//3 189//3 203//3 202//3
f 189//3 190//3 204//3 203//3
f 191//5 205//5 204//5 190//5
f 192//2 187//2 201//2 206//2
f 193//5 207//5 205//5 191//5
f 194//2 192//2 206//2 208//2
f 195//5 209//5 207//5 193//5
f 196//2 194//2 208//2 210//2
f 197//5 211//5 209//5 195//5
f 198//2 196//2 210//2 212//2
f 198//6 212//6 213//6 199//6
f 200//5 214//5 211//5 197//5
f 199//6 213//6 214//6 200//6
f 201//2 202//2 216//2 215//2
f 202//3 203//3 217//3 216//3
f 203//3 204//3 218//3 217//3
f 205//1 219//1 220//1 204//1
f 204//3 220//3 221//3 218//3
f 222//4 218//4 221//4 223//4
f 219//5 223//5 221//5 220//5
f 206//2 201//2 215//2 224//2
f 207//1 225//1 219//1 205//1
f 226//4 222//4 223//4 227//4
f 225//5 227//5 223//5 219//5
f 207//6 226//6 227//6 225//6
f 208//2 206//2 224//2 228//2
f 209//5 229//5 226//5 207//5
f 210//2 208//2 228//2 230//2
f 211//1 231//1 232//1 209//1
f 209//3 232//3 233//3 229//3
f 234//4 229//4 233//4 235//4
f 231//5 235//5 233//5 232//5
f 212//2 210//2 230//2 236//2
f 212//6 236//6 237//6 213//6
f 213//6 237//6 238//6 214//6
f 214//1 239//1 231//1 211//1
f 238//4 234//4 235//4 240//4
f 239//5 240//5 235//5 231//5
f 214//6 238//6 240//6 239//6
f 215//2 216//2 242//2 241//2
f 216//3 217//3 243//3 242//3
f 217//3 218//3 244//3 243//3
f 222//5 245//5 244//5 218//5
f 224//2 215//2 241//2 246//2
f 226//5 247//5 245//5 222//5
f 228//2 224//2 246//2 248//2
f 229//5 249//5 247//5 226//5
f 230//2 228//2 248//2 250//2
f 234//5 251//5 249//5 229//5
f 236//2 230//2 250//2 252//2
f 236//6 252//6 253//6 237//6
f 238//5 254//5 251//5 234//5
f 237//6 253//6 254//6 238//6
f 241//2 242//2 256//2 255//2
f 242//3 243//3 257//3 256//3
f 255//4 256//4 257//4 258//4
f 243//3 244//3 259//3 257//3
f 258//4 257//4 259//4 260//4
f 245//1 261//1 262//1 244//1
f 244//3 262//3 263//3 259//3
f 260//4 259//4 263//4 264//4
f 261//5 264//5 263//5 262//5
f 246//2 241//2 255//2 265//2
f 265//4 255//4 258//4 266//4
f 266//4 258//4 260//4 267//4
f 247//1 268//1 261//1 245//1
f 267//4 260//4 264//4 269//4
f 268//5 269//5 264//5 261//5
f 247//6 267//6 269//6 268//6
f 248//2 246//2 265//2 270//2
f 270//4 265//4 266//4 271//4
f 271//4 266//4 267//4 272//4
f 249//5 272//5 267//5 247//5
f 250//2 248//2 270//2 273//2
f 273//4 270//4 271//4 274//4
f 274//4 271//4 272//4 275//4
f 251//1 276//1 277//1 249//1
f 249//3 277//3 278//3 272//3
f 275//4 272//4 278//4 279//4
f 276//5 279//5 278//5 277//5
f 252//2 250//2 273//2 280//2
f 280//4 273//4 274//4 281//4
f 252//6 280//6 281//6 253//6
f 281//4 274//4 275//4 282//4
f 253//6 281//6 282//6 254//6
f 254//1 283//1 276//1 251//1
f 282//4 275//4 279//4 284//4
f 283//5 284//5 279//5 276//5
f 254//6 282//6 284//6 283//6
