# Wavefront OBJ file made by Mineways version 13.00, http://mineways.com
# World: EMPTY
# Terrain file name: C:\Users\kumar\Downloads\mineways_min\mineways_min\terrainExt.png
# Culling scheme: Standard
# Fri Aug 28 20:58:21 2026

# Selection location min to max: 77, -40, -92 to 82, -30, -82
#   Non-empty selection location min to max: 78, -39, -91 to 81, -31, -83

# Set render type: Wavefront OBJ absolute indices
# Units for the model vertex data itself: meters

# 420 vertices, 426 faces (852 triangles), 180 blocks
# block dimensions: X=4 by Y=9 (height) by Z=9 blocks
# Elevation shading: no
# Lighting: no
# Transparent water: no
# Map grid: no
# File type: Export no materials
# Texture output RGB: YES
# Texture output A: YES
# Texture output RGBA: YES
# Export separate types: YES
# Export individual blocks: no
#   Material per family: YES
#   Split by block type: YES
# Make groups objects: YES
# Custom material: YES
# Export lesser blocks: no
# Simplify mesh: no
# Double all billboard faces: no
# Create composite overlay faces: YES
# Center model: YES
# Use biomes: no
# Create block faces at the borders: YES
# Tree leaves solid: no
# Rotate model 0.000000 degrees
# Make Z the up direction instead of Y: no
# Scale model by making each block 1000 mm high
# Data operation options:
#   Fill air bubbles: no; Seal off entrances: no; Fill in isolated tunnels in base of model: no
#   Connect parts sharing an edge: no; Connect corner tips: no; Weld all shared edges: no
#   Delete floating objects: trees and parts smaller than 16 blocks: no
#   Hollow out bottom of model, making the walls 1000 mm thick: no; Superhollow: no
# Melt snow blocks: no
#   Debug: show separate parts as colors: no
#   Debug: show weld blocks in bright colors: no

# Full world path: C:\Users\kumar\AppData\Roaming\PrismLauncher\instances\26.1.2\minecraft\saves\EMPTY
# Full terrainExt.png path: C:\Users\kumar\Downloads\mineways_min\mineways_min\terrainExt.png
# Full current path: C:\Users\kumar\Downloads\mineways_min\mineways_min

# COMMON_MC_OBJ_START
# version: 1
# exporter: mineways
# world_name: EMPTY
# world_path: C:\Users\kumar\AppData\Roaming\PrismLauncher\instances\26.1.2\minecraft\saves\EMPTY
# export_bounds_min: (77, -40, -92)
# export_bounds_max: (82, -30, -82)
# export_offset: (-80.000000, 40.000000, 87.000000)
# block_scale: 1
# block_origin_offset: (0.000000, 0.000000, 0.000000)
# z_up: false
# texture_type: ATLAS
# has_split_blocks: true
# COMMON_MC_OBJ_END
vn -1 0 0
vn 0 -1 0
vn 0 0 -1
vn 1 0 0
vn 0 1 0
vn 0 0 1
v -2 1 -4
v -2 1 -3
v -2 2 -3
v -2 2 -4
v -1 1 -3
v -1 1 -4
v -1 2 -4
v -2 3 -3
v -2 3 -4
v -1 3 -4
v -1 2 -3
v -1 3 -3
v -2 4 -3
v -2 4 -4
v -1 4 -4
v -1 4 -3
v -2 5 -3
v -2 5 -4
v -1 5 -4
v -1 5 -3
v -2 6 -3
v -2 6 -4
v -1 6 -4
v -2 7 -3
v -2 7 -4
v -1 7 -4
v -1 6 -3
v -1 7 -3
v -2 8 -3
v -2 8 -4
v -1 8 -4
v -1 8 -3
v -2 9 -3
v -2 9 -4
v -1 9 -4
v -1 9 -3
v -2 10 -3
v -2 10 -4
v -1 10 -4
v -1 10 -3
v -2 1 -2
v -2 2 -2
v -1 1 -2
v -1 2 -2
v -2 5 -2
v -2 6 -2
v -1 5 -2
v -1 6 -2
v -2 9 -2
v -2 10 -2
v -1 9 -2
v -1 10 -2
v -2 1 -1
v -2 2 -1
v -1 1 -1
v -1 2 -1
v -2 5 -1
v -2 6 -1
v -1 5 -1
v -1 6 -1
v -2 9 -1
v -2 10 -1
v -1 9 -1
v -1 10 -1
v -2 1 0
v -2 2 0
v -1 1 0
v -1 2 0
v -2 5 0
v -2 6 0
v -1 5 0
v -1 6 0
v -2 9 0
v -2 10 0
v -1 9 0
v -1 10 0
v -2 1 1
v -2 2 1
v -1 1 1
v -1 2 1
v -2 5 1
v -2 6 1
v -1 5 1
v -1 6 1
v -2 9 1
v -2 10 1
v -1 9 1
v -1 10 1
v -2 1 2
v -2 2 2
v -1 1 2
v -2 3 2
v -2 3 1
v -1 3 1
v -1 2 2
v -1 3 2
v -2 4 2
v -2 4 1
v -1 4 1
v -1 4 2
v -2 5 2
v -1 5 2
v -2 6 2
v -1 6 2
v -2 7 2
v -2 7 1
v -1 7 1
v -2 8 2
v -2 8 1
v -1 8 1
v -1 7 2
v -1 8 2
v -2 9 2
v -1 9 2
v -2 10 2
v -1 10 2
v -2 1 3
v -2 2 3
v -1 1 3
v -1 2 3
v -2 6 3
v -2 7 3
v -1 6 3
v -1 7 3
v -2 9 3
v -2 10 3
v -1 9 3
v -1 10 3
v -2 1 4
v -2 2 4
v -1 1 4
v -1 2 4
v -2 6 4
v -2 7 4
v -1 6 4
v -1 7 4
v -2 9 4
v -2 10 4
v -1 9 4
v -1 10 4
v -2 1 5
v -2 2 5
v -1 1 5
v -1 2 5
v -2 3 5
v -2 3 4
v -1 3 4
v -1 3 5
v -2 4 5
v -2 4 4
v -1 4 4
v -1 4 5
v -2 5 5
v -2 5 4
v -1 5 4
v -1 5 5
v -2 6 5
v -1 6 5
v -2 7 5
v -1 7 5
v -2 8 5
v -2 8 4
v -1 8 4
v -1 8 5
v -2 9 5
v -1 9 5
v -2 10 5
v -1 10 5
v 0 1 -3
v 0 1 -4
v 0 2 -4
v 0 3 -4
v 0 2 -3
v 0 3 -3
v 0 4 -4
v 0 4 -3
v 0 5 -4
v 0 5 -3
v 0 6 -4
v 0 7 -4
v 0 6 -3
v 0 7 -3
v 0 8 -4
v 0 8 -3
v 0 9 -4
v 0 9 -3
v 0 10 -4
v 0 10 -3
v 0 1 -2
v 0 2 -2
v 0 5 -2
v 0 6 -2
v 0 9 -2
v 0 10 -2
v 0 1 -1
v 0 2 -1
v 0 5 -1
v 0 6 -1
v 0 9 -1
v 0 10 -1
v 0 1 0
v 0 2 0
v 0 5 0
v 0 6 0
v 0 9 0
v 0 10 0
v 0 1 1
v 0 2 1
v 0 5 1
v 0 6 1
v 0 9 1
v 0 10 1
v 0 1 2
v 0 3 1
v 0 2 2
v 0 3 2
v 0 4 1
v 0 4 2
v 0 5 2
v 0 6 2
v 0 7 1
v 0 8 1
v 0 7 2
v 0 8 2
v 0 9 2
v 0 10 2
v 0 1 3
v 0 2 3
v 0 6 3
v 0 7 3
v 0 9 3
v 0 10 3
v 0 1 4
v 0 2 4
v 0 6 4
v 0 7 4
v 0 9 4
v 0 10 4
v 0 1 5
v 0 2 5
v 0 3 4
v 0 3 5
v 0 4 4
v 0 4 5
v 0 5 4
v 0 5 5
v 0 6 5
v 0 7 5
v 0 8 4
v 0 8 5
v 0 9 5
v 0 10 5
v 1 1 -3
v 1 1 -4
v 1 2 -4
v 1 3 -4
v 1 2 -3
v 1 3 -3
v 1 4 -4
v 1 4 -3
v 1 5 -4
v 1 5 -3
v 1 6 -4
v 1 7 -4
v 1 6 -3
v 1 7 -3
v 1 8 -4
v 1 8 -3
v 1 9 -4
v 1 9 -3
v 1 10 -4
v 1 10 -3
v 1 1 -2
v 1 2 -2
v 1 5 -2
v 1 6 -2
v 1 9 -2
v 1 10 -2
v 1 1 -1
v 1 2 -1
v 1 5 -1
v 1 6 -1
v 1 9 -1
v 1 10 -1
v 1 1 0
v 1 2 0
v 1 5 0
v 1 6 0
v 1 9 0
v 1 10 0
v 1 1 1
v 1 2 1
v 1 5 1
v 1 6 1
v 1 9 1
v 1 10 1
v 1 1 2
v 1 3 1
v 1 2 2
v 1 3 2
v 1 4 1
v 1 4 2
v 1 5 2
v 1 6 2
v 1 7 1
v 1 8 1
v 1 7 2
v 1 8 2
v 1 9 2
v 1 10 2
v 1 1 3
v 1 2 3
v 1 6 3
v 1 7 3
v 1 9 3
v 1 10 3
v 1 1 4
v 1 2 4
v 1 6 4
v 1 7 4
v 1 9 4
v 1 10 4
v 1 1 5
v 1 2 5
v 1 3 4
v 1 3 5
v 1 4 4
v 1 4 5
v 1 5 4
v 1 5 5
v 1 6 5
v 1 7 5
v 1 8 4
v 1 8 5
v 1 9 5
v 1 10 5
v 2 1 -3
v 2 1 -4
v 2 2 -4
v 2 2 -3
v 2 3 -4
v 2 3 -3
v 2 4 -4
v 2 4 -3
v 2 5 -4
v 2 5 -3
v 2 6 -4
v 2 6 -3
v 2 7 -4
v 2 7 -3
v 2 8 -4
v 2 8 -3
v 2 9 -4
v 2 9 -3
v 2 10 -4
v 2 10 -3
v 2 1 -2
v 2 2 -2
v 2 5 -2
v 2 6 -2
v 2 9 -2
v 2 10 -2
v 2 1 -1
v 2 2 -1
v 2 5 -1
v 2 6 -1
v 2 9 -1
v 2 10 -1
v 2 1 0
v 2 2 0
v 2 5 0
v 2 6 0
v 2 9 0
v 2 10 0
v 2 1 1
v 2 2 1
v 2 5 1
v 2 6 1
v 2 9 1
v 2 10 1
v 2 1 2
v 2 2 2
v 2 3 1
v 2 3 2
v 2 4 1
v 2 4 2
v 2 5 2
v 2 6 2
v 2 7 1
v 2 7 2
v 2 8 1
v 2 8 2
v 2 9 2
v 2 10 2
v 2 1 3
v 2 2 3
v 2 6 3
v 2 7 3
v 2 9 3
v 2 10 3
v 2 1 4
v 2 2 4
v 2 6 4
v 2 7 4
v 2 9 4
v 2 10 4
v 2 1 5
v 2 2 5
v 2 3 4
v 2 3 5
v 2 4 4
v 2 4 5
v 2 5 4
v 2 5 5
v 2 6 5
v 2 7 5
v 2 8 4
v 2 8 5
v 2 9 5
v 2 10 5
f 2//1 3//1 4//1 1//1
f 2//2 1//2 6//2 5//2
f 1//3 4//3 7//3 6//3
f 3//1 8//1 9//1 4//1
f 4//3 9//3 10//3 7//3
f 3//6 11//6 12//6 8//6
f 8//1 13//1 14//1 9//1
f 9//3 14//3 15//3 10//3
f 8//6 12//6 16//6 13//6
f 13//1 17//1 18//1 14//1
f 14//3 18//3 19//3 15//3
f 13//6 16//6 20//6 17//6
f 17//1 21//1 22//1 18//1
f 18//3 22//3 23//3 19//3
f 21//1 24//1 25//1 22//1
f 22//3 25//3 26//3 23//3
f 21//6 27//6 28//6 24//6
f 24//1 29//1 30//1 25//1
f 25//3 30//3 31//3 26//3
f 24//6 28//6 32//6 29//6
f 29//1 33//1 34//1 30//1
f 30//3 34//3 35//3 31//3
f 29//6 32//6 36//6 33//6
f 33//1 37//1 38//1 34//1
f 34//3 38//3 39//3 35//3
f 37//5 40//5 39//5 38//5
f 41//1 42//1 3//1 2//1
f 41//2 2//2 5//2 43//2
f 42//5 44//5 11//5 3//5
f 45//1 46//1 21//1 17//1
f 45//2 17//2 20//2 47//2
f 46//5 48//5 27//5 21//5
f 49//1 50//1 37//1 33//1
f 49//2 33//2 36//2 51//2
f 50//5 52//5 40//5 37//5
f 53//1 54//1 42//1 41//1
f 53//2 41//2 43//2 55//2
f 54//5 56//5 44//5 42//5
f 57//1 58//1 46//1 45//1
f 57//2 45//2 47//2 59//2
f 58//5 60//5 48//5 46//5
f 61//1 62//1 50//1 49//1
f 61//2 49//2 51//2 63//2
f 62//5 64//5 52//5 50//5
f 65//1 66//1 54//1 53//1
f 65//2 53//2 55//2 67//2
f 66//5 68//5 56//5 54//5
f 69//1 70//1 58//1 57//1
f 69//2 57//2 59//2 71//2
f 70//5 72//5 60//5 58//5
f 73//1 74//1 62//1 61//1
f 73//2 61//2 63//2 75//2
f 74//5 76//5 64//5 62//5
f 77//1 78//1 66//1 65//1
f 77//2 65//2 67//2 79//2
f 78//5 80//5 68//5 66//5
f 81//1 82//1 70//1 69//1
f 81//2 69//2 71//2 83//2
f 82//5 84//5 72//5 70//5
f 85//1 86//1 74//1 73//1
f 85//2 73//2 75//2 87//2
f 86//5 88//5 76//5 74//5
f 89//1 90//1 78//1 77//1
f 89//2 77//2 79//2 91//2
f 90//1 92//1 93//1 78//1
f 78//3 93//3 94//3 80//3
f 90//6 95//6 96//6 92//6
f 92//1 97//1 98//1 93//1
f 93//3 98//3 99//3 94//3
f 92//6 96//6 100//6 97//6
f 97//1 101//1 81//1 98//1
f 98//3 81//3 83//3 99//3
f 97//6 100//6 102//6 101//6
f 101//1 103//1 82//1 81//1
f 101//6 102//6 104//6 103//6
f 103//1 105//1 106//1 82//1
f 82//3 106//3 107//3 84//3
f 105//1 108//1 109//1 106//1
f 106//3 109//3 110//3 107//3
f 105//6 111//6 112//6 108//6
f 108//1 113//1 85//1 109//1
f 109//3 85//3 87//3 110//3
f 108//6 112//6 114//6 113//6
f 113//1 115//1 86//1 85//1
f 115//5 116//5 88//5 86//5
f 117//1 118//1 90//1 89//1
f 117//2 89//2 91//2 119//2
f 118//5 120//5 95//5 90//5
f 121//1 122//1 105//1 103//1
f 121//2 103//2 104//2 123//2
f 122//5 124//5 111//5 105//5
f 125//1 126//1 115//1 113//1
f 125//2 113//2 114//2 127//2
f 126//5 128//5 116//5 115//5
f 129//1 130//1 118//1 117//1
f 129//2 117//2 119//2 131//2
f 130//5 132//5 120//5 118//5
f 133//1 134//1 122//1 121//1
f 133//2 121//2 123//2 135//2
f 134//5 136//5 124//5 122//5
f 137//1 138//1 126//1 125//1
f 137//2 125//2 127//2 139//2
f 138//5 140//5 128//5 126//5
f 141//1 142//1 130//1 129//1
f 141//2 129//2 131//2 143//2
f 141//6 143//6 144//6 142//6
f 142//1 145//1 146//1 130//1
f 130//3 146//3 147//3 132//3
f 142//6 144//6 148//6 145//6
f 145//1 149//1 150//1 146//1
f 146//3 150//3 151//3 147//3
f 145//6 148//6 152//6 149//6
f 149//1 153//1 154//1 150//1
f 150//3 154//3 155//3 151//3
f 149//6 152//6 156//6 153//6
f 153//1 157//1 133//1 154//1
f 154//3 133//3 135//3 155//3
f 153//6 156//6 158//6 157//6
f 157//1 159//1 134//1 133//1
f 157//6 158//6 160//6 159//6
f 159//1 161//1 162//1 134//1
f 134//3 162//3 163//3 136//3
f 159//6 160//6 164//6 161//6
f 161//1 165//1 137//1 162//1
f 162//3 137//3 139//3 163//3
f 161//6 164//6 166//6 165//6
f 165//1 167//1 138//1 137//1
f 167//5 168//5 140//5 138//5
f 165//6 166//6 168//6 167//6
f 5//2 6//2 170//2 169//2
f 6//3 7//3 171//3 170//3
f 7//3 10//3 172//3 171//3
f 11//6 173//6 174//6 12//6
f 10//3 15//3 175//3 172//3
f 12//6 174//6 176//6 16//6
f 15//3 19//3 177//3 175//3
f 16//6 176//6 178//6 20//6
f 19//3 23//3 179//3 177//3
f 23//3 26//3 180//3 179//3
f 27//6 181//6 182//6 28//6
f 26//3 31//3 183//3 180//3
f 28//6 182//6 184//6 32//6
f 31//3 35//3 185//3 183//3
f 32//6 184//6 186//6 36//6
f 35//3 39//3 187//3 185//3
f 40//5 188//5 187//5 39//5
f 43//2 5//2 169//2 189//2
f 44//5 190//5 173//5 11//5
f 47//2 20//2 178//2 191//2
f 48//5 192//5 181//5 27//5
f 51//2 36//2 186//2 193//2
f 52//5 194//5 188//5 40//5
f 55//2 43//2 189//2 195//2
f 56//5 196//5 190//5 44//5
f 59//2 47//2 191//2 197//2
f 60//5 198//5 192//5 48//5
f 63//2 51//2 193//2 199//2
f 64//5 200//5 194//5 52//5
f 67//2 55//2 195//2 201//2
f 68//5 202//5 196//5 56//5
f 71//2 59//2 197//2 203//2
f 72//5 204//5 198//5 60//5
f 75//2 63//2 199//2 205//2
f 76//5 206//5 200//5 64//5
f 79//2 67//2 201//2 207//2
f 80//5 208//5 202//5 68//5
f 83//2 71//2 203//2 209//2
f 84//5 210//5 204//5 72//5
f 87//2 75//2 205//2 211//2
f 88//5 212//5 206//5 76//5
f 91//2 79//2 207//2 213//2
f 80//3 94//3 214//3 208//3
f 95//6 215//6 216//6 96//6
f 94//3 99//3 217//3 214//3
f 96//6 216//6 218//6 100//6
f 99//3 83//3 209//3 217//3
f 100//6 218//6 219//6 102//6
f 102//6 219//6 220//6 104//6
f 84//3 107//3 221//3 210//3
f 107//3 110//3 222//3 221//3
f 111//6 223//6 224//6 112//6
f 110//3 87//3 211//3 222//3
f 112//6 224//6 225//6 114//6
f 116//5 226//5 212//5 88//5
f 119//2 91//2 213//2 227//2
f 120//5 228//5 215//5 95//5
f 123//2 104//2 220//2 229//2
f 124//5 230//5 223//5 111//5
f 127//2 114//2 225//2 231//2
f 128//5 232//5 226//5 116//5
f 131//2 119//2 227//2 233//2
f 132//5 234//5 228//5 120//5
f 135//2 123//2 229//2 235//2
f 136//5 236//5 230//5 124//5
f 139//2 127//2 231//2 237//2
f 140//5 238//5 232//5 128//5
f 143//2 131//2 233//2 239//2
f 143//6 239//6 240//6 144//6
f 132//3 147//3 241//3 234//3
f 144//6 240//6 242//6 148//6
f 147//3 151//3 243//3 241//3
f 148//6 242//6 244//6 152//6
f 151//3 155//3 245//3 243//3
f 152//6 244//6 246//6 156//6
f 155//3 135//3 235//3 245//3
f 156//6 246//6 247//6 158//6
f 158//6 247//6 248//6 160//6
f 136//3 163//3 249//3 236//3
f 160//6 248//6 250//6 164//6
f 163//3 139//3 237//3 249//3
f 164//6 250//6 251//6 166//6
f 168//5 252//5 238//5 140//5
f 166//6 251//6 252//6 168//6
f 169//2 170//2 254//2 253//2
f 170//3 171//3 255//3 254//3
f 171//3 172//3 256//3 255//3
f 173//6 257//6 258//6 174//6
f 172//3 175//3 259//3 256//3
f 174//6 258//6 260//6 176//6
f 175//3 177//3 261//3 259//3
f 176//6 260//6 262//6 178//6
f 177//3 179//3 263//3 261//3
f 179//3 180//3 264//3 263//3
f 181//6 265//6 266//6 182//6
f 180//3 183//3 267//3 264//3
f 182//6 266//6 268//6 184//6
f 183//3 185//3 269//3 267//3
f 184//6 268//6 270//6 186//6
f 185//3 187//3 271//3 269//3
f 188//5 272//5 271//5 187//5
f 189//2 169//2 253//2 273//2
f 190//5 274//5 257//5 173//5
f 191//2 178//2 262//2 275//2
f 192//5 276//5 265//5 181//5
f 193//2 186//2 270//2 277//2
f 194//5 278//5 272//5 188//5
f 195//2 189//2 273//2 279//2
f 196//5 280//5 274//5 190//5
f 197//2 191//2 275//2 281//2
f 198//5 282//5 276//5 192//5
f 199//2 193//2 277//2 283//2
f 200//5 284//5 278//5 194//5
f 201//2 195//2 279//2 285//2
f 202//5 286//5 280//5 196//5
f 203//2 197//2 281//2 287//2
f 204//5 288//5 282//5 198//5
f 205//2 199//2 283//2 289//2
f 206//5 290//5 284//5 200//5
f 207//2 201//2 285//2 291//2
f 208//5 292//5 286//5 202//5
f 209//2 203//2 287//2 293//2
f 210//5 294//5 288//5 204//5
f 211//2 205//2 289//2 295//2
f 212//5 296//5 290//5 206//5
f 213//2 207//2 291//2 297//2
f 208//3 214//3 298//3 292//3
f 215//6 299//6 300//6 216//6
f 214//3 217//3 301//3 298//3
f 216//6 300//6 302//6 218//6
f 217//3 209//3 293//3 301//3
f 218//6 302//6 303//6 219//6
f 219//6 303//6 304//6 220//6
f 210//3 221//3 305//3 294//3
f 221//3 222//3 306//3 305//3
f 223//6 307//6 308//6 224//6
f 222//3 211//3 295//3 306//3
f 224//6 308//6 309//6 225//6
f 226//5 310//5 296//5 212//5
f 227//2 213//2 297//2 311//2
f 228//5 312//5 299//5 215//5
f 229//2 220//2 304//2 313//2
f 230//5 314//5 307//5 223//5
f 231//2 225//2 309//2 315//2
f 232//5 316//5 310//5 226//5
f 233//2 227//2 311//2 317//2
f 234//5 318//5 312//5 228//5
f 235//2 229//2 313//2 319//2
f 236//5 320//5 314//5 230//5
f 237//2 231//2 315//2 321//2
f 238//5 322//5 316//5 232//5
f 239//2 233//2 317//2 323//2
f 239//6 323//6 324//6 240//6
f 234//3 241//3 325//3 318//3
f 240//6 324//6 326//6 242//6
f 241//3 243//3 327//3 325//3
f 242//6 326//6 328//6 244//6
f 243//3 245//3 329//3 327//3
f 244//6 328//6 330//6 246//6
f 245//3 235//3 319//3 329//3
f 246//6 330//6 331//6 247//6
f 247//6 331//6 332//6 248//6
f 236//3 249//3 333//3 320//3
f 248//6 332//6 334//6 250//6
f 249//3 237//3 321//3 333//3
f 250//6 334//6 335//6 251//6
f 252//5 336//5 322//5 238//5
f 251//6 335//6 336//6 252//6
f 253//2 254//2 338//2 337//2
f 254//3 255//3 339//3 338//3
f 337//4 338//4 339//4 340//4
f 255//3 256//3 341//3 339//3
f 340//4 339//4 341//4 342//4
f 257//6 340//6 342//6 258//6
f 256//3 259//3 343//3 341//3
f 342//4 341//4 343//4 344//4
f 258//6 342//6 344//6 260//6
f 259//3 261//3 345//3 343//3
f 344//4 343//4 345//4 346//4
f 260//6 344//6 346//6 262//6
f 261//3 263//3 347//3 345//3
f 346//4 345//4 347//4 348//4
f 263//3 264//3 349//3 347//3
f 348//4 347//4 349//4 350//4
f 265//6 348//6 350//6 266//6
f 264//3 267//3 351//3 349//3
f 350//4 349//4 351//4 352//4
f 266//6 350//6 352//6 268//6
f 267//3 269//3 353//3 351//3
f 352//4 351//4 353//4 354//4
f 268//6 352//6 354//6 270//6
f 269//3 271//3 355//3 353//3
f 354//4 353//4 355//4 356//4
f 272//5 356//5 355//5 271//5
f 273//2 253//2 337//2 357//2
f 357//4 337//4 340//4 358//4
f 274//5 358//5 340//5 257//5
f 275//2 262//2 346//2 359//2
f 359//4 346//4 348//4 360//4
f 276//5 360//5 348//5 265//5
f 277//2 270//2 354//2 361//2
f 361//4 354//4 356//4 362//4
f 278//5 362//5 356//5 272//5
f 279//2 273//2 357//2 363//2
f 363//4 357//4 358//4 364//4
f 280//5 364//5 358//5 274//5
f 281//2 275//2 359//2 365//2
f 365//4 359//4 360//4 366//4
f 282//5 366//5 360//5 276//5
f 283//2 277//2 361//2 367//2
f 367//4 361//4 362//4 368//4
f 284//5 368//5 362//5 278//5
f 285//2 279//2 363//2 369//2
f 369//4 363//4 364//4 370//4
f 286//5 370//5 364//5 280//5
f 287//2 281//2 365//2 371//2
f 371//4 365//4 366//4 372//4
f 288//5 372//5 366//5 282//5
f 289//2 283//2 367//2 373//2
f 373//4 367//4 368//4 374//4
f 290//5 374//5 368//5 284//5
f 291//2 285//2 369//2 375//2
f 375//4 369//4 370//4 376//4
f 292//5 376//5 370//5 286//5
f 293//2 287//2 371//2 377//2
f 377//4 371//4 372//4 378//4
f 294//5 378//5 372//5 288//5
f 295//2 289//2 373//2 379//2
f 379//4 373//4 374//4 380//4
f 296//5 380//5 374//5 290//5
f 297//2 291//2 375//2 381//2
f 381//4 375//4 376//4 382//4
f 292//3 298//3 383//3 376//3
f 382//4 376//4 383//4 384//4
f 299//6 382//6 384//6 300//6
f 298//3 301//3 385//3 383//3
f 384//4 383//4 385//4 386//4
f 300//6 384//6 386//6 302//6
f 301//3 293//3 377//3 385//3
f 386//4 385//4 377//4 387//4
f 302//6 386//6 387//6 303//6
f 387//4 377//4 378//4 388//4
f 303//6 387//6 388//6 304//6
f 294//3 305//3 389//3 378//3
f 388//4 378//4 389//4 390//4
f 305//3 306//3 391//3 389//3
f 390//4 389//4 391//4 392//4
f 307//6 390//6 392//6 308//6
f 306//3 295//3 379//3 391//3
f 392//4 391//4 379//4 393//4
f 308//6 392//6 393//6 309//6
f 393//4 379//4 380//4 394//4
f 310//5 394//5 380//5 296//5
f 311//2 297//2 381//2 395//2
f 395//4 381//4 382//4 396//4
f 312//5 396//5 382//5 299//5
f 313//2 304//2 388//2 397//2
f 397//4 388//4 390//4 398//4
f 314//5 398//5 390//5 307//5
f 315//2 309//2 393//2 399//2
f 399//4 393//4 394//4 400//4
f 316//5 400//5 394//5 310//5
f 317//2 311//2 395//2 401//2
f 401//4 395//4 396//4 402//4
f 318//5 402//5 396//5 312//5
f 319//2 313//2 397//2 403//2
f 403//4 397//4 398//4 404//4
f 320//5 404//5 398//5 314//5
f 321//2 315//2 399//2 405//2
f 405//4 399//4 400//4 406//4
f 322//5 406//5 400//5 316//5
f 323//2 317//2 401//2 407//2
f 407//4 401//4 402//4 408//4
f 323//6 407//6 408//6 324//6
f 318//3 325//3 409//3 402//3
f 408//4 402//4 409//4 410//4
f 324//6 408//6 410//6 326//6
f 325//3 327//3 411//3 409//3
f 410//4 409//4 411//4 412//4
f 326//6 410//6 412//6 328//6
f 327//3 329//3 413//3 411//3
f 412//4 411//4 413//4 414//4
f 328//6 412//6 414//6 330//6
f 329//3 319//3 403//3 413//3
f 414//4 413//4 403//4 415//4
f 330//6 414//6 415//6 331//6
f 415//4 403//4 404//4 416//4
f 331//6 415//6 416//6 332//6
f 320//3 333//3 417//3 404//3
f 416//4 404//4 417//4 418//4
f 332//6 416//6 418//6 334//6
f 333//3 321//3 405//3 417//3
f 418//4 417//4 405//4 419//4
f 334//6 418//6 419//6 335//6
f 419//4 405//4 406//4 420//4
f 336//5 420//5 406//5 322//5
f 335//6 419//6 420//6 336//6
