# Wavefront OBJ file made by Mineways version 13.00, http://mineways.com
# World: EMPTY
# Terrain file name: C:\Users\kumar\Downloads\mineways_min\mineways_min\terrainExt.png
# Culling scheme: Standard
# Fri Aug 28 21:27:31 2026

# Selection location min to max: 93, -37, -149 to 104, -32, -138
#   Non-empty selection location min to max: 94, -36, -148 to 103, -33, -139

# Set render type: Wavefront OBJ absolute indices
# Units for the model vertex data itself: meters

# 274 vertices, 272 faces (544 triangles), 136 blocks
# block dimensions: X=10 by Y=4 (height) by Z=10 blocks
# Elevation shading: no
# Lighting: no
# Transparent water: no
# Map grid: no
# File type: Export no materials
# Texture output RGB: YES
# Texture output A: YES
# Texture output RGBA: YES
# Export separate types: YES
# Export individual blocks: no
#   Material per family: YES
#   Split by block type: YES
# Make groups objects: YES
# Custom material: YES
# Export lesser blocks: no
# Simplify mesh: no
# Double all billboard faces: no
# Create composite overlay faces: YES
# Center model: YES
# Use biomes: no
# Create block faces at the borders: YES
# Tree leaves solid: no
# Rotate model 0.000000 degrees
# Make Z the up direction instead of Y: no
# Scale model by making each block 1000 mm high
# Data operation options:
#   Fill air bubbles: no; Seal off entrances: no; Fill in isolated tunnels in base of model: no
#   Connect parts sharing an edge: no; Connect corner tips: no; Weld all shared edges: no
#   Delete floating objects: trees and parts smaller than 16 blocks: no
#   Hollow out bottom of model, making the walls 1000 mm thick: no; Superhollow: no
# Melt snow blocks: no
#   Debug: show separate parts as colors: no
#   Debug: show weld blocks in bright colors: no

# Full world path: C:\Users\kumar\AppData\Roaming\PrismLauncher\instances\26.1.2\minecraft\saves\EMPTY
# Full terrainExt.png path: C:\Users\kumar\Downloads\mineways_min\mineways_min\terrainExt.png
# Full current path: C:\Users\kumar\Downloads\mineways_min\mineways_min

# COMMON_MC_OBJ_START
# version: 1
# exporter: mineways
# world_name: EMPTY
# world_path: C:\Users\kumar\AppData\Roaming\PrismLauncher\instances\26.1.2\minecraft\saves\EMPTY
# export_bounds_min: (93, -37, -149)
# export_bounds_max: (104, -32, -138)
# export_offset: (-99.000000, 37.000000, 143.000000)
# block_scale: 1
# block_origin_offset: (0.000000, 0.000000, 0.000000)
# z_up: false
# texture_type: ATLAS
# has_split_blocks: true
# COMMON_MC_OBJ_END
vn -1 0 0
vn 0 -1 0
vn 0 0 -1
vn 1 0 0
vn 0 1 0
vn 0 0 1
v -5 1 -3
v -5 1 -2
v -5 2 -2
v -5 2 -3
v -4 1 -2
v -4 1 -3
v -4 2 -3
v -4 2 -2
v -5 1 -1
v -5 2 -1
v -4 1 -1
v -4 2 -1
v -5 1 0
v -5 2 0
v -4 1 0
v -4 2 0
v -5 1 1
v -5 2 1
v -4 1 1
v -4 2 1
v -5 1 2
v -5 2 2
v -4 1 2
v -4 2 2
v -5 1 3
v -5 2 3
v -4 1 3
v -4 2 3
v -4 1 -4
v -4 2 -4
v -3 1 -3
v -3 1 -4
v -3 2 -4
v -3 2 -3
v -3 1 -2
v -3 2 -2
v -3 1 -1
v -3 2 -1
v -3 1 0
v -3 2 0
v -3 1 1
v -3 2 1
v -3 1 2
v -3 2 2
v -3 1 3
v -3 2 3
v -4 1 4
v -4 2 4
v -3 1 4
v -3 2 4
v -3 1 -5
v -3 2 -5
v -2 1 -4
v -2 1 -5
v -2 2 -5
v -2 2 -4
v -2 1 -3
v -2 2 -3
v -2 1 -2
v -3 3 -2
v -3 3 -3
v -2 3 -3
v -2 3 -2
v -2 1 -1
v -3 3 -1
v -2 3 -1
v -2 2 -1
v -2 1 0
v -2 2 0
v -2 1 1
v -2 2 1
v -2 1 2
v -3 3 2
v -3 3 1
v -2 3 1
v -2 3 2
v -2 1 3
v -3 3 3
v -2 3 3
v -2 2 3
v -2 1 4
v -2 2 4
v -3 1 5
v -3 2 5
v -2 1 5
v -2 2 5
v -1 1 -4
v -1 1 -5
v -1 2 -5
v -1 2 -4
v -1 1 -3
v -1 2 -3
v -1 1 -2
v -1 3 -3
v -1 2 -2
v -1 3 -2
v -1 1 -1
v -2 4 -1
v -2 4 -2
v -1 4 -2
v -1 4 -1
v -1 1 0
v -2 3 0
v -2 4 0
v -1 4 0
v -1 1 1
v -2 4 1
v -1 4 1
v -1 1 2
v -2 4 2
v -1 4 2
v -1 3 2
v -1 1 3
v -1 2 3
v -1 2 2
v -1 3 3
v -1 1 4
v -1 2 4
v -1 1 5
v -1 2 5
v 0 1 -4
v 0 1 -5
v 0 2 -5
v 0 2 -4
v 0 1 -3
v 0 2 -3
v 0 1 -2
v 0 2 -2
v 0 1 -1
v 0 3 -2
v 0 4 -2
v 0 4 -1
v 0 1 0
v -1 5 0
v -1 5 -1
v 0 5 -1
v 0 5 0
v 0 1 1
v -1 5 1
v 0 5 1
v 0 4 1
v 0 1 2
v 0 2 2
v 0 3 2
v 0 4 2
v 0 1 3
v 0 2 3
v 0 1 4
v 0 2 4
v 0 1 5
v 0 2 5
v 1 1 -4
v 1 1 -5
v 1 2 -5
v 1 2 -4
v 1 1 -3
v 1 2 -3
v 1 1 -2
v 1 2 -2
v 1 1 -1
v 1 3 -2
v 1 4 -2
v 1 4 -1
v 1 1 0
v 1 5 -1
v 1 4 0
v 1 5 0
v 1 1 1
v 1 4 1
v 1 5 1
v 1 1 2
v 1 2 2
v 1 3 2
v 1 4 2
v 1 1 3
v 1 2 3
v 1 1 4
v 1 2 4
v 1 1 5
v 1 2 5
v 2 1 -4
v 2 1 -5
v 2 2 -5
v 2 2 -4
v 2 1 -3
v 2 2 -3
v 2 1 -2
v 1 3 -3
v 2 3 -3
v 2 3 -2
v 2 1 -1
v 2 4 -2
v 2 3 -1
v 2 4 -1
v 2 1 0
v 2 2 0
v 2 2 -1
v 2 3 0
v 2 4 0
v 2 1 1
v 2 2 1
v 2 3 1
v 2 4 1
v 2 1 2
v 2 3 2
v 2 4 2
v 2 1 3
v 1 3 3
v 2 3 3
v 2 2 3
v 2 1 4
v 2 2 4
v 2 1 5
v 2 2 5
v 3 1 -4
v 3 1 -5
v 3 2 -5
v 3 2 -4
v 3 1 -3
v 3 2 -3
v 3 1 -2
v 3 3 -3
v 3 2 -2
v 3 3 -2
v 3 1 -1
v 3 2 -1
v 3 3 -1
v 3 1 0
v 3 2 0
v 3 1 1
v 3 2 1
v 3 1 2
v 3 3 1
v 3 2 2
v 3 3 2
v 3 1 3
v 3 2 3
v 3 3 3
v 3 1 4
v 3 2 4
v 3 1 5
v 3 2 5
v 4 1 -3
v 4 1 -4
v 4 2 -4
v 4 2 -3
v 4 1 -2
v 4 2 -2
v 4 1 -1
v 4 2 -1
v 4 1 0
v 4 2 0
v 4 1 1
v 4 2 1
v 4 1 2
v 4 2 2
v 4 1 3
v 4 2 3
v 4 1 4
v 4 2 4
v 5 1 -2
v 5 1 -3
v 5 2 -3
v 5 2 -2
v 5 1 -1
v 5 2 -1
v 5 1 0
v 5 2 0
v 5 1 1
v 5 2 1
v 5 1 2
v 5 2 2
v 5 1 3
v 5 2 3
f 2//1 3//1 4//1 1//1
f 2//2 1//2 6//2 5//2
f 1//3 4//3 7//3 6//3
f 3//5 8//5 7//5 4//5
f 9//1 10//1 3//1 2//1
f 9//2 2//2 5//2 11//2
f 10//5 12//5 8//5 3//5
f 13//1 14//1 10//1 9//1
f 13//2 9//2 11//2 15//2
f 14//5 16//5 12//5 10//5
f 17//1 18//1 14//1 13//1
f 17//2 13//2 15//2 19//2
f 18//5 20//5 16//5 14//5
f 21//1 22//1 18//1 17//1
f 21//2 17//2 19//2 23//2
f 22//5 24//5 20//5 18//5
f 25//1 26//1 22//1 21//1
f 25//2 21//2 23//2 27//2
f 26//5 28//5 24//5 22//5
f 25//6 27//6 28//6 26//6
f 6//1 7//1 30//1 29//1
f 6//2 29//2 32//2 31//2
f 29//3 30//3 33//3 32//3
f 7//5 34//5 33//5 30//5
f 5//2 6//2 31//2 35//2
f 8//5 36//5 34//5 7//5
f 11//2 5//2 35//2 37//2
f 12//5 38//5 36//5 8//5
f 15//2 11//2 37//2 39//2
f 16//5 40//5 38//5 12//5
f 19//2 15//2 39//2 41//2
f 20//5 42//5 40//5 16//5
f 23//2 19//2 41//2 43//2
f 24//5 44//5 42//5 20//5
f 27//2 23//2 43//2 45//2
f 28//5 46//5 44//5 24//5
f 47//1 48//1 28//1 27//1
f 47//2 27//2 45//2 49//2
f 48//5 50//5 46//5 28//5
f 47//6 49//6 50//6 48//6
f 32//1 33//1 52//1 51//1
f 32//2 51//2 54//2 53//2
f 51//3 52//3 55//3 54//3
f 33//5 56//5 55//5 52//5
f 31//2 32//2 53//2 57//2
f 34//5 58//5 56//5 33//5
f 35//2 31//2 57//2 59//2
f 36//1 60//1 61//1 34//1
f 34//3 61//3 62//3 58//3
f 60//5 63//5 62//5 61//5
f 37//2 35//2 59//2 64//2
f 38//1 65//1 60//1 36//1
f 65//5 66//5 63//5 60//5
f 38//6 67//6 66//6 65//6
f 39//2 37//2 64//2 68//2
f 40//5 69//5 67//5 38//5
f 41//2 39//2 68//2 70//2
f 42//5 71//5 69//5 40//5
f 43//2 41//2 70//2 72//2
f 44//1 73//1 74//1 42//1
f 42//3 74//3 75//3 71//3
f 73//5 76//5 75//5 74//5
f 45//2 43//2 72//2 77//2
f 46//1 78//1 73//1 44//1
f 78//5 79//5 76//5 73//5
f 46//6 80//6 79//6 78//6
f 49//2 45//2 77//2 81//2
f 50//5 82//5 80//5 46//5
f 83//1 84//1 50//1 49//1
f 83//2 49//2 81//2 85//2
f 84//5 86//5 82//5 50//5
f 83//6 85//6 86//6 84//6
f 53//2 54//2 88//2 87//2
f 54//3 55//3 89//3 88//3
f 56//5 90//5 89//5 55//5
f 57//2 53//2 87//2 91//2
f 58//5 92//5 90//5 56//5
f 59//2 57//2 91//2 93//2
f 58//3 62//3 94//3 92//3
f 95//4 92//4 94//4 96//4
f 63//5 96//5 94//5 62//5
f 64//2 59//2 93//2 97//2
f 66//1 98//1 99//1 63//1
f 63//3 99//3 100//3 96//3
f 98//5 101//5 100//5 99//5
f 68//2 64//2 97//2 102//2
f 69//1 103//1 66//1 67//1
f 103//1 104//1 98//1 66//1
f 104//5 105//5 101//5 98//5
f 70//2 68//2 102//2 106//2
f 71//1 75//1 103//1 69//1
f 75//1 107//1 104//1 103//1
f 107//5 108//5 105//5 104//5
f 72//2 70//2 106//2 109//2
f 76//1 110//1 107//1 75//1
f 110//5 111//5 108//5 107//5
f 76//6 112//6 111//6 110//6
f 77//2 72//2 109//2 113//2
f 114//4 115//4 112//4 116//4
f 79//5 116//5 112//5 76//5
f 80//6 114//6 116//6 79//6
f 81//2 77//2 113//2 117//2
f 82//5 118//5 114//5 80//5
f 85//2 81//2 117//2 119//2
f 86//5 120//5 118//5 82//5
f 85//6 119//6 120//6 86//6
f 87//2 88//2 122//2 121//2
f 88//3 89//3 123//3 122//3
f 90//5 124//5 123//5 89//5
f 91//2 87//2 121//2 125//2
f 92//5 126//5 124//5 90//5
f 93//2 91//2 125//2 127//2
f 95//5 128//5 126//5 92//5
f 97//2 93//2 127//2 129//2
f 95//3 96//3 130//3 128//3
f 96//3 100//3 131//3 130//3
f 101//5 132//5 131//5 100//5
f 102//2 97//2 129//2 133//2
f 105//1 134//1 135//1 101//1
f 101//3 135//3 136//3 132//3
f 134//5 137//5 136//5 135//5
f 106//2 102//2 133//2 138//2
f 108//1 139//1 134//1 105//1
f 139//5 140//5 137//5 134//5
f 108//6 141//6 140//6 139//6
f 109//2 106//2 138//2 142//2
f 115//6 143//6 144//6 112//6
f 111//5 145//5 141//5 108//5
f 112//6 144//6 145//6 111//6
f 113//2 109//2 142//2 146//2
f 114//5 147//5 143//5 115//5
f 117//2 113//2 146//2 148//2
f 118//5 149//5 147//5 114//5
f 119//2 117//2 148//2 150//2
f 120//5 151//5 149//5 118//5
f 119//6 150//6 151//6 120//6
f 121//2 122//2 153//2 152//2
f 122//3 123//3 154//3 153//3
f 124//5 155//5 154//5 123//5
f 125//2 121//2 152//2 156//2
f 126//5 157//5 155//5 124//5
f 127//2 125//2 156//2 158//2
f 128//5 159//5 157//5 126//5
f 129//2 127//2 158//2 160//2
f 128//3 130//3 161//3 159//3
f 130//3 131//3 162//3 161//3
f 132//5 163//5 162//5 131//5
f 133//2 129//2 160//2 164//2
f 132//3 136//3 165//3 163//3
f 166//4 163//4 165//4 167//4
f 137//5 167//5 165//5 136//5
f 138//2 133//2 164//2 168//2
f 169//4 166//4 167//4 170//4
f 140//5 170//5 167//5 137//5
f 141//6 169//6 170//6 140//6
f 142//2 138//2 168//2 171//2
f 143//6 172//6 173//6 144//6
f 145//5 174//5 169//5 141//5
f 144//6 173//6 174//6 145//6
f 146//2 142//2 171//2 175//2
f 147//5 176//5 172//5 143//5
f 148//2 146//2 175//2 177//2
f 149//5 178//5 176//5 147//5
f 150//2 148//2 177//2 179//2
f 151//5 180//5 178//5 149//5
f 150//6 179//6 180//6 151//6
f 152//2 153//2 182//2 181//2
f 153//3 154//3 183//3 182//3
f 155//5 184//5 183//5 154//5
f 156//2 152//2 181//2 185//2
f 157//5 186//5 184//5 155//5
f 158//2 156//2 185//2 187//2
f 159//1 161//1 188//1 157//1
f 157//3 188//3 189//3 186//3
f 161//5 190//5 189//5 188//5
f 160//2 158//2 187//2 191//2
f 161//3 162//3 192//3 190//3
f 193//4 190//4 192//4 194//4
f 163//5 194//5 192//5 162//5
f 164//2 160//2 191//2 195//2
f 196//4 197//4 193//4 198//4
f 198//4 193//4 194//4 199//4
f 166//5 199//5 194//5 163//5
f 168//2 164//2 195//2 200//2
f 201//4 196//4 198//4 202//4
f 202//4 198//4 199//4 203//4
f 169//5 203//5 199//5 166//5
f 171//2 168//2 200//2 204//2
f 205//4 202//4 203//4 206//4
f 174//5 206//5 203//5 169//5
f 173//6 205//6 206//6 174//6
f 175//2 171//2 204//2 207//2
f 176//1 208//1 173//1 172//1
f 208//5 209//5 205//5 173//5
f 176//6 210//6 209//6 208//6
f 177//2 175//2 207//2 211//2
f 178//5 212//5 210//5 176//5
f 179//2 177//2 211//2 213//2
f 180//5 214//5 212//5 178//5
f 179//6 213//6 214//6 180//6
f 181//2 182//2 216//2 215//2
f 182//3 183//3 217//3 216//3
f 215//4 216//4 217//4 218//4
f 184//5 218//5 217//5 183//5
f 185//2 181//2 215//2 219//2
f 186//5 220//5 218//5 184//5
f 187//2 185//2 219//2 221//2
f 186//3 189//3 222//3 220//3
f 223//4 220//4 222//4 224//4
f 190//5 224//5 222//5 189//5
f 191//2 187//2 221//2 225//2
f 226//4 223//4 224//4 227//4
f 193//5 227//5 224//5 190//5
f 197//6 226//6 227//6 193//6
f 195//2 191//2 225//2 228//2
f 196//5 229//5 226//5 197//5
f 200//2 195//2 228//2 230//2
f 201//5 231//5 229//5 196//5
f 204//2 200//2 230//2 232//2
f 201//3 202//3 233//3 231//3
f 234//4 231//4 233//4 235//4
f 205//5 235//5 233//5 202//5
f 207//2 204//2 232//2 236//2
f 237//4 234//4 235//4 238//4
f 209//5 238//5 235//5 205//5
f 210//6 237//6 238//6 209//6
f 211//2 207//2 236//2 239//2
f 212//5 240//5 237//5 210//5
f 213//2 211//2 239//2 241//2
f 241//4 239//4 240//4 242//4
f 214//5 242//5 240//5 212//5
f 213//6 241//6 242//6 214//6
f 219//2 215//2 244//2 243//2
f 215//3 218//3 245//3 244//3
f 243//4 244//4 245//4 246//4
f 220//5 246//5 245//5 218//5
f 221//2 219//2 243//2 247//2
f 223//5 248//5 246//5 220//5
f 225//2 221//2 247//2 249//2
f 226//5 250//5 248//5 223//5
f 228//2 225//2 249//2 251//2
f 229//5 252//5 250//5 226//5
f 230//2 228//2 251//2 253//2
f 231//5 254//5 252//5 229//5
f 232//2 230//2 253//2 255//2
f 234//5 256//5 254//5 231//5
f 236//2 232//2 255//2 257//2
f 237//5 258//5 256//5 234//5
f 239//2 236//2 257//2 259//2
f 259//4 257//4 258//4 260//4
f 240//5 260//5 258//5 237//5
f 239//6 259//6 260//6 240//6
f 247//2 243//2 262//2 261//2
f 243//3 246//3 263//3 262//3
f 261//4 262//4 263//4 264//4
f 248//5 264//5 263//5 246//5
f 249//2 247//2 261//2 265//2
f 265//4 261//4 264//4 266//4
f 250//5 266//5 264//5 248//5
f 251//2 249//2 265//2 267//2
f 267//4 265//4 266//4 268//4
f 252//5 268//5 266//5 250//5
f 253//2 251//2 267//2 269//2
f 269//4 267//4 268//4 270//4
f 254//5 270//5 268//5 252//5
f 255//2 253//2 269//2 271//2
f 271//4 269//4 270//4 272//4
f 256//5 272//5 270//5 254//5
f 257//2 255//2 271//2 273//2
f 273//4 271//4 272//4 274//4
f 258//5 274//5 272//5 256//5
f 257//6 273//6 274//6 258//6
