# Wavefront OBJ file made by Mineways version 13.00, http://mineways.com
# World: EMPTY
# Terrain file name: default
# Culling scheme: Standard
# Fri Aug 28 13:23:45 2026

# Selection location min to max: 46, -64, -2 to 65, 0, 17
#   Non-empty selection location min to max: 48, -64, 0 to 63, -58, 15

# Set render type: Wavefront OBJ absolute indices
# Units for the model vertex data itself: meters

# 770 vertices, 768 faces (1536 triangles), 328 blocks, 0 billboards/bits
# block dimensions: X=16 by Y=7 (height) by Z=16 blocks
# Elevation shading: no
# Lighting: no
# Transparent water: no
# Map grid: no
# File type: Export individual textures to directory tex
# Texture output RGB: YES
# Texture output A: YES
# Texture output RGBA: YES
# Export separate types: YES
# Export individual blocks: no
#   Material per family: YES
#   Split by block type: YES
# Make groups objects: YES
# Custom material: YES
# Export lesser blocks: YES
# Fatten lesser blocks: no
# Simplify mesh: no
# Double all billboard faces: no
# Create composite overlay faces: no
# Center model: YES
# Use biomes: no
# Create block faces at the borders: YES
# Tree leaves solid: no
# Rotate model 0.000000 degrees
# Make Z the up direction instead of Y: no
# Scale model by making each block 1000 mm high
# Data operation options:
#   Fill air bubbles: no; Seal off entrances: no; Fill in isolated tunnels in base of model: no
#   Connect parts sharing an edge: no; Connect corner tips: no; Weld all shared edges: no
#   Delete floating objects: trees and parts smaller than 16 blocks: no
#   Hollow out bottom of model, making the walls 1000 mm thick: no; Superhollow: no
# Melt snow blocks: no
#   Debug: show separate parts as colors: no
#   Debug: show weld blocks in bright colors: no

# Full world path: C:\Users\kumar\AppData\Roaming\PrismLauncher\instances\26.1.2\minecraft\saves\EMPTY
# Full terrainExt.png path: default
# Full current path: C:\Users\kumar\Downloads\mineways_min\mineways_min

# COMMON_MC_OBJ_START
# version: 1
# exporter: mineways
# world_name: EMPTY
# world_path: C:\Users\kumar\AppData\Roaming\PrismLauncher\instances\26.1.2\minecraft\saves\EMPTY
# export_bounds_min: (46, -64, -2)
# export_bounds_max: (65, 0, 17)
# export_offset: (-56.000000, 64.000000, -8.000000)
# block_scale: 1
# block_origin_offset: (0.000000, 0.000000, 0.000000)
# z_up: false
# texture_type: INDIVIDUAL_TILES
# has_split_blocks: true
# COMMON_MC_OBJ_END

mtllib stool.mtl
vn -1 0 0
vn 0 -1 0
vn 0 0 -1
vn 1 0 0
vn 0 1 0
vn 0 0 1
vn -0.707107 0 -0.707107
vn -0.707107 0 0.707107
vn 0.707107 0 -0.707107
vn 0.707107 0 0.707107
vn -0.707107 -0.707107 0
vn 0 -0.707107 -0.707107
vn 0.707107 -0.707107 0
vn 0 -0.707107 0.707107
vn -0.707107 0.707107 0
vn 0 0.707107 -0.707107
vn 0.707107 0.707107 0
vn 0 0.707107 0.707107
vn -0.92388 0 -0.382683
vn -0.92388 0 0.382683
vn 0.92388 0 -0.382683
vn 0.92388 0 0.382683
vn -0.382683 0 -0.92388
vn -0.382683 0 0.92388
vn 0.382683 0 -0.92388
vn 0.382683 0 0.92388
vn -0.397273 0.9177 0
vn 0.397273 -0.9177 0
vn 0.397273 0.9177 0
vn -0.397273 -0.9177 0
vn 0 0.9177 -0.397273
vn 0 -0.9177 0.397273
vn 0 0.9177 0.397273
vn 0 -0.9177 -0.397273
vn -0.440932 0.897541 0
vn 0.440932 -0.897541 0
vn 0.440932 0.897541 0
vn -0.440932 -0.897541 0
vn 0 0.897541 -0.440932
vn 0 -0.897541 0.440932
vn 0 0.897541 0.440932
vn 0 -0.897541 -0.440932
vt 0.000000000 0.000000000
vt 1.000000000 0.000000000
vt 0.000000000 1.000000000
vt 1.000000000 1.000000000
v -8 6 -8
v -8 6 -7
v -8 7 -7
v -8 7 -8
v -7 6 -7
v -7 6 -8
v -7 7 -8
v -7 7 -7
v -8 6 -6
v -8 7 -6
v -7 6 -6
v -7 7 -6
v -8 6 -5
v -8 7 -5
v -7 6 -5
v -7 7 -5
v -8 6 -4
v -8 7 -4
v -7 6 -4
v -7 7 -4
v -8 6 -3
v -8 7 -3
v -7 6 -3
v -7 7 -3
v -8 6 -2
v -8 7 -2
v -7 6 -2
v -7 7 -2
v -8 6 -1
v -8 7 -1
v -7 6 -1
v -7 7 -1
v -8 6 0
v -8 7 0
v -7 6 0
v -7 7 0
v -8 6 1
v -8 7 1
v -7 6 1
v -7 7 1
v -8 6 2
v -8 7 2
v -7 6 2
v -7 7 2
v -8 6 3
v -8 7 3
v -7 6 3
v -7 7 3
v -8 6 4
v -8 7 4
v -7 6 4
v -7 7 4
v -8 6 5
v -8 7 5
v -7 6 5
v -7 7 5
v -8 6 6
v -8 7 6
v -7 6 6
v -7 7 6
v -8 6 7
v -8 7 7
v -7 6 7
v -7 7 7
v -8 6 8
v -8 7 8
v -7 6 8
v -7 7 8
v -6 6 -7
v -6 6 -8
v -6 7 -8
v -6 7 -7
v -7 0 -7
v -7 0 -6
v -7 1 -6
v -7 1 -7
v -6 0 -6
v -6 0 -7
v -6 1 -7
v -7 2 -6
v -7 2 -7
v -6 2 -7
v -7 3 -6
v -7 3 -7
v -6 3 -7
v -7 4 -6
v -7 4 -7
v -6 4 -7
v -7 5 -6
v -7 5 -7
v -6 5 -7
v -6 7 -6
v -7 0 -5
v -7 1 -5
v -6 0 -5
v -6 1 -6
v -6 1 -5
v -7 2 -5
v -6 2 -6
v -6 2 -5
v -7 3 -5
v -6 3 -6
v -6 3 -5
v -7 4 -5
v -6 4 -6
v -6 4 -5
v -7 5 -5
v -6 5 -6
v -6 5 -5
v -6 6 -6
v -6 6 -5
v -6 7 -5
v -6 6 -4
v -6 7 -4
v -6 6 -3
v -6 7 -3
v -6 6 -2
v -6 7 -2
v -6 6 -1
v -6 7 -1
v -6 6 0
v -6 7 0
v -6 6 1
v -6 7 1
v -6 6 2
v -6 7 2
v -6 6 3
v -6 7 3
v -6 6 4
v -6 7 4
v -6 6 5
v -6 7 5
v -7 0 5
v -7 0 6
v -7 1 6
v -7 1 5
v -6 0 6
v -6 0 5
v -6 1 5
v -6 1 6
v -7 2 6
v -7 2 5
v -6 2 5
v -6 2 6
v -7 3 6
v -7 3 5
v -6 3 5
v -6 3 6
v -7 4 6
v -7 4 5
v -6 4 5
v -6 4 6
v -7 5 6
v -7 5 5
v -6 5 5
v -6 5 6
v -6 6 6
v -6 7 6
v -7 0 7
v -7 1 7
v -6 0 7
v -6 1 7
v -7 2 7
v -6 2 7
v -7 3 7
v -6 3 7
v -7 4 7
v -6 4 7
v -7 5 7
v -6 5 7
v -6 6 7
v -6 7 7
v -6 6 8
v -6 7 8
v -5 6 -7
v -5 6 -8
v -5 7 -8
v -5 7 -7
v -5 0 -6
v -5 0 -7
v -5 1 -7
v -5 1 -6
v -5 2 -7
v -5 2 -6
v -5 3 -7
v -5 3 -6
v -5 4 -7
v -5 4 -6
v -5 5 -7
v -5 5 -6
v -5 6 -6
v -5 7 -6
v -5 6 -5
v -5 7 -5
v -5 6 -4
v -5 7 -4
v -5 6 -3
v -5 7 -3
v -5 6 -2
v -5 7 -2
v -5 6 -1
v -5 7 -1
v -5 6 0
v -5 7 0
v -5 6 1
v -5 7 1
v -5 6 2
v -5 7 2
v -5 6 3
v -5 7 3
v -5 6 4
v -5 7 4
v -5 6 5
v -5 7 5
v -5 6 6
v -5 7 6
v -5 0 7
v -5 0 6
v -5 1 6
v -5 1 7
v -5 2 6
v -5 2 7
v -5 3 6
v -5 3 7
v -5 4 6
v -5 4 7
v -5 5 6
v -5 5 7
v -5 6 7
v -5 7 7
v -5 6 8
v -5 7 8
v -4 6 -7
v -4 6 -8
v -4 7 -8
v -4 7 -7
v -4 6 -6
v -4 7 -6
v -4 6 -5
v -4 7 -5
v -4 6 -4
v -4 7 -4
v -4 6 -3
v -4 7 -3
v -4 6 -2
v -4 7 -2
v -4 6 -1
v -4 7 -1
v -4 6 0
v -4 7 0
v -4 6 1
v -4 7 1
v -4 6 2
v -4 7 2
v -4 6 3
v -4 7 3
v -4 6 4
v -4 7 4
v -4 6 5
v -4 7 5
v -4 6 6
v -4 7 6
v -4 6 7
v -4 7 7
v -4 6 8
v -4 7 8
v -3 6 -7
v -3 6 -8
v -3 7 -8
v -3 7 -7
v -3 6 -6
v -3 7 -6
v -3 6 -5
v -3 7 -5
v -3 6 -4
v -3 7 -4
v -3 6 -3
v -3 7 -3
v -3 6 -2
v -3 7 -2
v -3 6 -1
v -3 7 -1
v -3 6 0
v -3 7 0
v -3 6 1
v -3 7 1
v -3 6 2
v -3 7 2
v -3 6 3
v -3 7 3
v -3 6 4
v -3 7 4
v -3 6 5
v -3 7 5
v -3 6 6
v -3 7 6
v -3 6 7
v -3 7 7
v -3 6 8
v -3 7 8
v -2 6 -7
v -2 6 -8
v -2 7 -8
v -2 7 -7
v -2 6 -6
v -2 7 -6
v -2 6 -5
v -2 7 -5
v -2 6 -4
v -2 7 -4
v -2 6 -3
v -2 7 -3
v -2 6 -2
v -2 7 -2
v -2 6 -1
v -2 7 -1
v -2 6 0
v -2 7 0
v -2 6 1
v -2 7 1
v -2 6 2
v -2 7 2
v -2 6 3
v -2 7 3
v -2 6 4
v -2 7 4
v -2 6 5
v -2 7 5
v -2 6 6
v -2 7 6
v -2 6 7
v -2 7 7
v -2 6 8
v -2 7 8
v -1 6 -7
v -1 6 -8
v -1 7 -8
v -1 7 -7
v -1 6 -6
v -1 7 -6
v -1 6 -5
v -1 7 -5
v -1 6 -4
v -1 7 -4
v -1 6 -3
v -1 7 -3
v -1 6 -2
v -1 7 -2
v -1 6 -1
v -1 7 -1
v -1 6 0
v -1 7 0
v -1 6 1
v -1 7 1
v -1 6 2
v -1 7 2
v -1 6 3
v -1 7 3
v -1 6 4
v -1 7 4
v -1 6 5
v -1 7 5
v -1 6 6
v -1 7 6
v -1 6 7
v -1 7 7
v -1 6 8
v -1 7 8
v 0 6 -7
v 0 6 -8
v 0 7 -8
v 0 7 -7
v 0 6 -6
v 0 7 -6
v 0 6 -5
v 0 7 -5
v 0 6 -4
v 0 7 -4
v 0 6 -3
v 0 7 -3
v 0 6 -2
v 0 7 -2
v 0 6 -1
v 0 7 -1
v 0 6 0
v 0 7 0
v 0 6 1
v 0 7 1
v 0 6 2
v 0 7 2
v 0 6 3
v 0 7 3
v 0 6 4
v 0 7 4
v 0 6 5
v 0 7 5
v 0 6 6
v 0 7 6
v 0 6 7
v 0 7 7
v 0 6 8
v 0 7 8
v 1 6 -7
v 1 6 -8
v 1 7 -8
v 1 7 -7
v 1 6 -6
v 1 7 -6
v 1 6 -5
v 1 7 -5
v 1 6 -4
v 1 7 -4
v 1 6 -3
v 1 7 -3
v 1 6 -2
v 1 7 -2
v 1 6 -1
v 1 7 -1
v 1 6 0
v 1 7 0
v 1 6 1
v 1 7 1
v 1 6 2
v 1 7 2
v 1 6 3
v 1 7 3
v 1 6 4
v 1 7 4
v 1 6 5
v 1 7 5
v 1 6 6
v 1 7 6
v 1 6 7
v 1 7 7
v 1 6 8
v 1 7 8
v 2 6 -7
v 2 6 -8
v 2 7 -8
v 2 7 -7
v 2 6 -6
v 2 7 -6
v 2 6 -5
v 2 7 -5
v 2 6 -4
v 2 7 -4
v 2 6 -3
v 2 7 -3
v 2 6 -2
v 2 7 -2
v 2 6 -1
v 2 7 -1
v 2 6 0
v 2 7 0
v 2 6 1
v 2 7 1
v 2 6 2
v 2 7 2
v 2 6 3
v 2 7 3
v 2 6 4
v 2 7 4
v 2 6 5
v 2 7 5
v 2 6 6
v 2 7 6
v 2 6 7
v 2 7 7
v 2 6 8
v 2 7 8
v 3 6 -7
v 3 6 -8
v 3 7 -8
v 3 7 -7
v 3 6 -6
v 3 7 -6
v 3 6 -5
v 3 7 -5
v 3 6 -4
v 3 7 -4
v 3 6 -3
v 3 7 -3
v 3 6 -2
v 3 7 -2
v 3 6 -1
v 3 7 -1
v 3 6 0
v 3 7 0
v 3 6 1
v 3 7 1
v 3 6 2
v 3 7 2
v 3 6 3
v 3 7 3
v 3 6 4
v 3 7 4
v 3 6 5
v 3 7 5
v 3 6 6
v 3 7 6
v 3 6 7
v 3 7 7
v 3 6 8
v 3 7 8
v 4 6 -7
v 4 6 -8
v 4 7 -8
v 4 7 -7
v 4 6 -6
v 4 7 -6
v 4 6 -5
v 4 7 -5
v 4 6 -4
v 4 7 -4
v 4 6 -3
v 4 7 -3
v 4 6 -2
v 4 7 -2
v 4 6 -1
v 4 7 -1
v 4 6 0
v 4 7 0
v 4 6 1
v 4 7 1
v 4 6 2
v 4 7 2
v 4 6 3
v 4 7 3
v 4 6 4
v 4 7 4
v 4 6 5
v 4 7 5
v 4 6 6
v 4 7 6
v 4 6 7
v 4 7 7
v 4 6 8
v 4 7 8
v 5 6 -7
v 5 6 -8
v 5 7 -8
v 5 7 -7
v 5 6 -6
v 5 7 -6
v 5 6 -5
v 5 7 -5
v 5 6 -4
v 5 7 -4
v 5 6 -3
v 5 7 -3
v 5 6 -2
v 5 7 -2
v 5 6 -1
v 5 7 -1
v 5 6 0
v 5 7 0
v 5 6 1
v 5 7 1
v 5 6 2
v 5 7 2
v 5 6 3
v 5 7 3
v 5 6 4
v 5 7 4
v 5 6 5
v 5 7 5
v 5 6 6
v 5 7 6
v 5 6 7
v 5 7 7
v 5 6 8
v 5 7 8
v 6 6 -7
v 6 6 -8
v 6 7 -8
v 6 7 -7
v 5 0 -7
v 5 0 -6
v 5 1 -6
v 5 1 -7
v 6 0 -6
v 6 0 -7
v 6 1 -7
v 6 1 -6
v 5 2 -6
v 5 2 -7
v 6 2 -7
v 6 2 -6
v 5 3 -6
v 5 3 -7
v 6 3 -7
v 6 3 -6
v 5 4 -6
v 5 4 -7
v 6 4 -7
v 6 4 -6
v 5 5 -6
v 5 5 -7
v 6 5 -7
v 6 5 -6
v 6 6 -6
v 6 7 -6
v 6 6 -5
v 6 7 -5
v 6 6 -4
v 6 7 -4
v 6 6 -3
v 6 7 -3
v 6 6 -2
v 6 7 -2
v 6 6 -1
v 6 7 -1
v 6 6 0
v 6 7 0
v 6 6 1
v 6 7 1
v 6 6 2
v 6 7 2
v 6 6 3
v 6 7 3
v 6 6 4
v 6 7 4
v 6 6 5
v 6 7 5
v 6 6 6
v 6 7 6
v 5 0 6
v 5 0 7
v 5 1 7
v 5 1 6
v 6 0 7
v 6 0 6
v 6 1 6
v 6 1 7
v 5 2 7
v 5 2 6
v 6 2 6
v 6 2 7
v 5 3 7
v 5 3 6
v 6 3 6
v 6 3 7
v 5 4 7
v 5 4 6
v 6 4 6
v 6 4 7
v 5 5 7
v 5 5 6
v 6 5 6
v 6 5 7
v 6 6 7
v 6 7 7
v 6 6 8
v 6 7 8
v 7 6 -7
v 7 6 -8
v 7 7 -8
v 7 7 -7
v 7 0 -6
v 7 0 -7
v 7 1 -7
v 7 1 -6
v 7 2 -7
v 7 2 -6
v 7 3 -7
v 7 3 -6
v 7 4 -7
v 7 4 -6
v 7 5 -7
v 7 5 -6
v 7 6 -6
v 7 7 -6
v 6 0 -5
v 6 1 -5
v 7 0 -5
v 7 1 -5
v 6 2 -5
v 7 2 -5
v 6 3 -5
v 7 3 -5
v 6 4 -5
v 7 4 -5
v 6 5 -5
v 7 5 -5
v 7 6 -5
v 7 7 -5
v 7 6 -4
v 7 7 -4
v 7 6 -3
v 7 7 -3
v 7 6 -2
v 7 7 -2
v 7 6 -1
v 7 7 -1
v 7 6 0
v 7 7 0
v 7 6 1
v 7 7 1
v 7 6 2
v 7 7 2
v 7 6 3
v 7 7 3
v 7 6 4
v 7 7 4
v 7 6 5
v 7 7 5
v 6 0 5
v 6 1 5
v 7 0 6
v 7 0 5
v 7 1 5
v 7 1 6
v 6 2 5
v 7 2 5
v 7 2 6
v 6 3 5
v 7 3 5
v 7 3 6
v 6 4 5
v 7 4 5
v 7 4 6
v 6 5 5
v 7 5 5
v 7 5 6
v 7 6 6
v 7 7 6
v 7 0 7
v 7 1 7
v 7 2 7
v 7 3 7
v 7 4 7
v 7 5 7
v 7 6 7
v 7 7 7
v 7 6 8
v 7 7 8
v 8 6 -7
v 8 6 -8
v 8 7 -8
v 8 7 -7
v 8 6 -6
v 8 7 -6
v 8 6 -5
v 8 7 -5
v 8 6 -4
v 8 7 -4
v 8 6 -3
v 8 7 -3
v 8 6 -2
v 8 7 -2
v 8 6 -1
v 8 7 -1
v 8 6 0
v 8 7 0
v 8 6 1
v 8 7 1
v 8 6 2
v 8 7 2
v 8 6 3
v 8 7 3
v 8 6 4
v 8 7 4
v 8 6 5
v 8 7 5
v 8 6 6
v 8 7 6
v 8 6 7
v 8 7 7
v 8 6 8
v 8 7 8

o Brown_Concrete
g Brown_Concrete
usemtl brown_concrete
f 2/2/1 3/4/1 4/3/1 1/1/1
f 2/3/2 1/1/2 6/2/2 5/4/2
f 1/2/3 4/4/3 7/3/3 6/1/3
f 3/1/5 8/2/5 7/4/5 4/3/5
f 9/2/1 10/4/1 3/3/1 2/1/1
f 9/3/2 2/1/2 5/2/2 11/4/2
f 10/1/5 12/2/5 8/4/5 3/3/5
f 13/2/1 14/4/1 10/3/1 9/1/1
f 13/3/2 9/1/2 11/2/2 15/4/2
f 14/1/5 16/2/5 12/4/5 10/3/5
f 17/2/1 18/4/1 14/3/1 13/1/1
f 17/3/2 13/1/2 15/2/2 19/4/2
f 18/1/5 20/2/5 16/4/5 14/3/5
f 21/2/1 22/4/1 18/3/1 17/1/1
f 21/3/2 17/1/2 19/2/2 23/4/2
f 22/1/5 24/2/5 20/4/5 18/3/5
f 25/2/1 26/4/1 22/3/1 21/1/1
f 25/3/2 21/1/2 23/2/2 27/4/2
f 26/1/5 28/2/5 24/4/5 22/3/5
f 29/2/1 30/4/1 26/3/1 25/1/1
f 29/3/2 25/1/2 27/2/2 31/4/2
f 30/1/5 32/2/5 28/4/5 26/3/5
f 33/2/1 34/4/1 30/3/1 29/1/1
f 33/3/2 29/1/2 31/2/2 35/4/2
f 34/1/5 36/2/5 32/4/5 30/3/5
f 37/2/1 38/4/1 34/3/1 33/1/1
f 37/3/2 33/1/2 35/2/2 39/4/2
f 38/1/5 40/2/5 36/4/5 34/3/5
f 41/2/1 42/4/1 38/3/1 37/1/1
f 41/3/2 37/1/2 39/2/2 43/4/2
f 42/1/5 44/2/5 40/4/5 38/3/5
f 45/2/1 46/4/1 42/3/1 41/1/1
f 45/3/2 41/1/2 43/2/2 47/4/2
f 46/1/5 48/2/5 44/4/5 42/3/5
f 49/2/1 50/4/1 46/3/1 45/1/1
f 49/3/2 45/1/2 47/2/2 51/4/2
f 50/1/5 52/2/5 48/4/5 46/3/5
f 53/2/1 54/4/1 50/3/1 49/1/1
f 53/3/2 49/1/2 51/2/2 55/4/2
f 54/1/5 56/2/5 52/4/5 50/3/5
f 57/2/1 58/4/1 54/3/1 53/1/1
f 57/3/2 53/1/2 55/2/2 59/4/2
f 58/1/5 60/2/5 56/4/5 54/3/5
f 61/2/1 62/4/1 58/3/1 57/1/1
f 61/3/2 57/1/2 59/2/2 63/4/2
f 62/1/5 64/2/5 60/4/5 58/3/5
f 65/2/1 66/4/1 62/3/1 61/1/1
f 65/3/2 61/1/2 63/2/2 67/4/2
f 66/1/5 68/2/5 64/4/5 62/3/5
f 65/1/6 67/2/6 68/4/6 66/3/6
f 5/3/2 6/1/2 70/2/2 69/4/2
f 6/2/3 7/4/3 71/3/3 70/1/3
f 8/1/5 72/2/5 71/4/5 7/3/5
f 74/2/1 75/4/1 76/3/1 73/1/1
f 74/3/2 73/1/2 78/2/2 77/4/2
f 73/2/3 76/4/3 79/3/3 78/1/3
f 75/2/1 80/4/1 81/3/1 76/1/1
f 76/2/3 81/4/3 82/3/3 79/1/3
f 80/2/1 83/4/1 84/3/1 81/1/1
f 81/2/3 84/4/3 85/3/3 82/1/3
f 83/2/1 86/4/1 87/3/1 84/1/1
f 84/2/3 87/4/3 88/3/3 85/1/3
f 86/2/1 89/4/1 90/3/1 87/1/1
f 87/2/3 90/4/3 91/3/3 88/1/3
f 89/2/1 11/4/1 5/3/1 90/1/1
f 90/2/3 5/4/3 69/3/3 91/1/3
f 12/1/5 92/2/5 72/4/5 8/3/5
f 93/2/1 94/4/1 75/3/1 74/1/1
f 93/3/2 74/1/2 77/2/2 95/4/2
f 95/1/4 77/2/4 96/4/4 97/3/4
f 93/1/6 95/2/6 97/4/6 94/3/6
f 94/2/1 98/4/1 80/3/1 75/1/1
f 97/1/4 96/2/4 99/4/4 100/3/4
f 94/1/6 97/2/6 100/4/6 98/3/6
f 98/2/1 101/4/1 83/3/1 80/1/1
f 100/1/4 99/2/4 102/4/4 103/3/4
f 98/1/6 100/2/6 103/4/6 101/3/6
f 101/2/1 104/4/1 86/3/1 83/1/1
f 103/1/4 102/2/4 105/4/4 106/3/4
f 101/1/6 103/2/6 106/4/6 104/3/6
f 104/2/1 107/4/1 89/3/1 86/1/1
f 106/1/4 105/2/4 108/4/4 109/3/4
f 104/1/6 106/2/6 109/4/6 107/3/6
f 107/2/1 15/4/1 11/3/1 89/1/1
f 109/1/4 108/2/4 110/4/4 111/3/4
f 107/1/6 109/2/6 111/4/6 15/3/6
f 16/1/5 112/2/5 92/4/5 12/3/5
f 19/3/2 15/1/2 111/2/2 113/4/2
f 20/1/5 114/2/5 112/4/5 16/3/5
f 23/3/2 19/1/2 113/2/2 115/4/2
f 24/1/5 116/2/5 114/4/5 20/3/5
f 27/3/2 23/1/2 115/2/2 117/4/2
f 28/1/5 118/2/5 116/4/5 24/3/5
f 31/3/2 27/1/2 117/2/2 119/4/2
f 32/1/5 120/2/5 118/4/5 28/3/5
f 35/3/2 31/1/2 119/2/2 121/4/2
f 36/1/5 122/2/5 120/4/5 32/3/5
f 39/3/2 35/1/2 121/2/2 123/4/2
f 40/1/5 124/2/5 122/4/5 36/3/5
f 43/3/2 39/1/2 123/2/2 125/4/2
f 44/1/5 126/2/5 124/4/5 40/3/5
f 47/3/2 43/1/2 125/2/2 127/4/2
f 48/1/5 128/2/5 126/4/5 44/3/5
f 51/3/2 47/1/2 127/2/2 129/4/2
f 52/1/5 130/2/5 128/4/5 48/3/5
f 55/3/2 51/1/2 129/2/2 131/4/2
f 56/1/5 132/2/5 130/4/5 52/3/5
f 134/2/1 135/4/1 136/3/1 133/1/1
f 134/3/2 133/1/2 138/2/2 137/4/2
f 133/2/3 136/4/3 139/3/3 138/1/3
f 137/1/4 138/2/4 139/4/4 140/3/4
f 135/2/1 141/4/1 142/3/1 136/1/1
f 136/2/3 142/4/3 143/3/3 139/1/3
f 140/1/4 139/2/4 143/4/4 144/3/4
f 141/2/1 145/4/1 146/3/1 142/1/1
f 142/2/3 146/4/3 147/3/3 143/1/3
f 144/1/4 143/2/4 147/4/4 148/3/4
f 145/2/1 149/4/1 150/3/1 146/1/1
f 146/2/3 150/4/3 151/3/3 147/1/3
f 148/1/4 147/2/4 151/4/4 152/3/4
f 149/2/1 153/4/1 154/3/1 150/1/1
f 150/2/3 154/4/3 155/3/3 151/1/3
f 152/1/4 151/2/4 155/4/4 156/3/4
f 153/2/1 59/4/1 55/3/1 154/1/1
f 154/2/3 55/4/3 131/3/3 155/1/3
f 156/1/4 155/2/4 131/4/4 157/3/4
f 60/1/5 158/2/5 132/4/5 56/3/5
f 159/2/1 160/4/1 135/3/1 134/1/1
f 159/3/2 134/1/2 137/2/2 161/4/2
f 159/1/6 161/2/6 162/4/6 160/3/6
f 160/2/1 163/4/1 141/3/1 135/1/1
f 160/1/6 162/2/6 164/4/6 163/3/6
f 163/2/1 165/4/1 145/3/1 141/1/1
f 163/1/6 164/2/6 166/4/6 165/3/6
f 165/2/1 167/4/1 149/3/1 145/1/1
f 165/1/6 166/2/6 168/4/6 167/3/6
f 167/2/1 169/4/1 153/3/1 149/1/1
f 167/1/6 168/2/6 170/4/6 169/3/6
f 169/2/1 63/4/1 59/3/1 153/1/1
f 169/1/6 170/2/6 171/4/6 63/3/6
f 64/1/5 172/2/5 158/4/5 60/3/5
f 67/3/2 63/1/2 171/2/2 173/4/2
f 68/1/5 174/2/5 172/4/5 64/3/5
f 67/1/6 173/2/6 174/4/6 68/3/6
f 69/3/2 70/1/2 176/2/2 175/4/2
f 70/2/3 71/4/3 177/3/3 176/1/3
f 72/1/5 178/2/5 177/4/5 71/3/5
f 77/3/2 78/1/2 180/2/2 179/4/2
f 78/2/3 79/4/3 181/3/3 180/1/3
f 179/1/4 180/2/4 181/4/4 182/3/4
f 77/1/6 179/2/6 182/4/6 96/3/6
f 79/2/3 82/4/3 183/3/3 181/1/3
f 182/1/4 181/2/4 183/4/4 184/3/4
f 96/1/6 182/2/6 184/4/6 99/3/6
f 82/2/3 85/4/3 185/3/3 183/1/3
f 184/1/4 183/2/4 185/4/4 186/3/4
f 99/1/6 184/2/6 186/4/6 102/3/6
f 85/2/3 88/4/3 187/3/3 185/1/3
f 186/1/4 185/2/4 187/4/4 188/3/4
f 102/1/6 186/2/6 188/4/6 105/3/6
f 88/2/3 91/4/3 189/3/3 187/1/3
f 188/1/4 187/2/4 189/4/4 190/3/4
f 105/1/6 188/2/6 190/4/6 108/3/6
f 91/2/3 69/4/3 175/3/3 189/1/3
f 190/1/4 189/2/4 175/4/4 191/3/4
f 108/1/6 190/2/6 191/4/6 110/3/6
f 92/1/5 192/2/5 178/4/5 72/3/5
f 111/3/2 110/1/2 191/2/2 193/4/2
f 112/1/5 194/2/5 192/4/5 92/3/5
f 113/3/2 111/1/2 193/2/2 195/4/2
f 114/1/5 196/2/5 194/4/5 112/3/5
f 115/3/2 113/1/2 195/2/2 197/4/2
f 116/1/5 198/2/5 196/4/5 114/3/5
f 117/3/2 115/1/2 197/2/2 199/4/2
f 118/1/5 200/2/5 198/4/5 116/3/5
f 119/3/2 117/1/2 199/2/2 201/4/2
f 120/1/5 202/2/5 200/4/5 118/3/5
f 121/3/2 119/1/2 201/2/2 203/4/2
f 122/1/5 204/2/5 202/4/5 120/3/5
f 123/3/2 121/1/2 203/2/2 205/4/2
f 124/1/5 206/2/5 204/4/5 122/3/5
f 125/3/2 123/1/2 205/2/2 207/4/2
f 126/1/5 208/2/5 206/4/5 124/3/5
f 127/3/2 125/1/2 207/2/2 209/4/2
f 128/1/5 210/2/5 208/4/5 126/3/5
f 129/3/2 127/1/2 209/2/2 211/4/2
f 130/1/5 212/2/5 210/4/5 128/3/5
f 131/3/2 129/1/2 211/2/2 213/4/2
f 132/1/5 214/2/5 212/4/5 130/3/5
f 157/3/2 131/1/2 213/2/2 215/4/2
f 158/1/5 216/2/5 214/4/5 132/3/5
f 161/3/2 137/1/2 218/2/2 217/4/2
f 137/2/3 140/4/3 219/3/3 218/1/3
f 217/1/4 218/2/4 219/4/4 220/3/4
f 161/1/6 217/2/6 220/4/6 162/3/6
f 140/2/3 144/4/3 221/3/3 219/1/3
f 220/1/4 219/2/4 221/4/4 222/3/4
f 162/1/6 220/2/6 222/4/6 164/3/6
f 144/2/3 148/4/3 223/3/3 221/1/3
f 222/1/4 221/2/4 223/4/4 224/3/4
f 164/1/6 222/2/6 224/4/6 166/3/6
f 148/2/3 152/4/3 225/3/3 223/1/3
f 224/1/4 223/2/4 225/4/4 226/3/4
f 166/1/6 224/2/6 226/4/6 168/3/6
f 152/2/3 156/4/3 227/3/3 225/1/3
f 226/1/4 225/2/4 227/4/4 228/3/4
f 168/1/6 226/2/6 228/4/6 170/3/6
f 156/2/3 157/4/3 215/3/3 227/1/3
f 228/1/4 227/2/4 215/4/4 229/3/4
f 170/1/6 228/2/6 229/4/6 171/3/6
f 172/1/5 230/2/5 216/4/5 158/3/5
f 173/3/2 171/1/2 229/2/2 231/4/2
f 174/1/5 232/2/5 230/4/5 172/3/5
f 173/1/6 231/2/6 232/4/6 174/3/6
f 175/3/2 176/1/2 234/2/2 233/4/2
f 176/2/3 177/4/3 235/3/3 234/1/3
f 178/1/5 236/2/5 235/4/5 177/3/5
f 191/3/2 175/1/2 233/2/2 237/4/2
f 192/1/5 238/2/5 236/4/5 178/3/5
f 193/3/2 191/1/2 237/2/2 239/4/2
f 194/1/5 240/2/5 238/4/5 192/3/5
f 195/3/2 193/1/2 239/2/2 241/4/2
f 196/1/5 242/2/5 240/4/5 194/3/5
f 197/3/2 195/1/2 241/2/2 243/4/2
f 198/1/5 244/2/5 242/4/5 196/3/5
f 199/3/2 197/1/2 243/2/2 245/4/2
f 200/1/5 246/2/5 244/4/5 198/3/5
f 201/3/2 199/1/2 245/2/2 247/4/2
f 202/1/5 248/2/5 246/4/5 200/3/5
f 203/3/2 201/1/2 247/2/2 249/4/2
f 204/1/5 250/2/5 248/4/5 202/3/5
f 205/3/2 203/1/2 249/2/2 251/4/2
f 206/1/5 252/2/5 250/4/5 204/3/5
f 207/3/2 205/1/2 251/2/2 253/4/2
f 208/1/5 254/2/5 252/4/5 206/3/5
f 209/3/2 207/1/2 253/2/2 255/4/2
f 210/1/5 256/2/5 254/4/5 208/3/5
f 211/3/2 209/1/2 255/2/2 257/4/2
f 212/1/5 258/2/5 256/4/5 210/3/5
f 213/3/2 211/1/2 257/2/2 259/4/2
f 214/1/5 260/2/5 258/4/5 212/3/5
f 215/3/2 213/1/2 259/2/2 261/4/2
f 216/1/5 262/2/5 260/4/5 214/3/5
f 229/3/2 215/1/2 261/2/2 263/4/2
f 230/1/5 264/2/5 262/4/5 216/3/5
f 231/3/2 229/1/2 263/2/2 265/4/2
f 232/1/5 266/2/5 264/4/5 230/3/5
f 231/1/6 265/2/6 266/4/6 232/3/6
f 233/3/2 234/1/2 268/2/2 267/4/2
f 234/2/3 235/4/3 269/3/3 268/1/3
f 236/1/5 270/2/5 269/4/5 235/3/5
f 237/3/2 233/1/2 267/2/2 271/4/2
f 238/1/5 272/2/5 270/4/5 236/3/5
f 239/3/2 237/1/2 271/2/2 273/4/2
f 240/1/5 274/2/5 272/4/5 238/3/5
f 241/3/2 239/1/2 273/2/2 275/4/2
f 242/1/5 276/2/5 274/4/5 240/3/5
f 243/3/2 241/1/2 275/2/2 277/4/2
f 244/1/5 278/2/5 276/4/5 242/3/5
f 245/3/2 243/1/2 277/2/2 279/4/2
f 246/1/5 280/2/5 278/4/5 244/3/5
f 247/3/2 245/1/2 279/2/2 281/4/2
f 248/1/5 282/2/5 280/4/5 246/3/5
f 249/3/2 247/1/2 281/2/2 283/4/2
f 250/1/5 284/2/5 282/4/5 248/3/5
f 251/3/2 249/1/2 283/2/2 285/4/2
f 252/1/5 286/2/5 284/4/5 250/3/5
f 253/3/2 251/1/2 285/2/2 287/4/2
f 254/1/5 288/2/5 286/4/5 252/3/5
f 255/3/2 253/1/2 287/2/2 289/4/2
f 256/1/5 290/2/5 288/4/5 254/3/5
f 257/3/2 255/1/2 289/2/2 291/4/2
f 258/1/5 292/2/5 290/4/5 256/3/5
f 259/3/2 257/1/2 291/2/2 293/4/2
f 260/1/5 294/2/5 292/4/5 258/3/5
f 261/3/2 259/1/2 293/2/2 295/4/2
f 262/1/5 296/2/5 294/4/5 260/3/5
f 263/3/2 261/1/2 295/2/2 297/4/2
f 264/1/5 298/2/5 296/4/5 262/3/5
f 265/3/2 263/1/2 297/2/2 299/4/2
f 266/1/5 300/2/5 298/4/5 264/3/5
f 265/1/6 299/2/6 300/4/6 266/3/6
f 267/3/2 268/1/2 302/2/2 301/4/2
f 268/2/3 269/4/3 303/3/3 302/1/3
f 270/1/5 304/2/5 303/4/5 269/3/5
f 271/3/2 267/1/2 301/2/2 305/4/2
f 272/1/5 306/2/5 304/4/5 270/3/5
f 273/3/2 271/1/2 305/2/2 307/4/2
f 274/1/5 308/2/5 306/4/5 272/3/5
f 275/3/2 273/1/2 307/2/2 309/4/2
f 276/1/5 310/2/5 308/4/5 274/3/5
f 277/3/2 275/1/2 309/2/2 311/4/2
f 278/1/5 312/2/5 310/4/5 276/3/5
f 279/3/2 277/1/2 311/2/2 313/4/2
f 280/1/5 314/2/5 312/4/5 278/3/5
f 281/3/2 279/1/2 313/2/2 315/4/2
f 282/1/5 316/2/5 314/4/5 280/3/5
f 283/3/2 281/1/2 315/2/2 317/4/2
f 284/1/5 318/2/5 316/4/5 282/3/5
f 285/3/2 283/1/2 317/2/2 319/4/2
f 286/1/5 320/2/5 318/4/5 284/3/5
f 287/3/2 285/1/2 319/2/2 321/4/2
f 288/1/5 322/2/5 320/4/5 286/3/5
f 289/3/2 287/1/2 321/2/2 323/4/2
f 290/1/5 324/2/5 322/4/5 288/3/5
f 291/3/2 289/1/2 323/2/2 325/4/2
f 292/1/5 326/2/5 324/4/5 290/3/5
f 293/3/2 291/1/2 325/2/2 327/4/2
f 294/1/5 328/2/5 326/4/5 292/3/5
f 295/3/2 293/1/2 327/2/2 329/4/2
f 296/1/5 330/2/5 328/4/5 294/3/5
f 297/3/2 295/1/2 329/2/2 331/4/2
f 298/1/5 332/2/5 330/4/5 296/3/5
f 299/3/2 297/1/2 331/2/2 333/4/2
f 300/1/5 334/2/5 332/4/5 298/3/5
f 299/1/6 333/2/6 334/4/6 300/3/6
f 301/3/2 302/1/2 336/2/2 335/4/2
f 302/2/3 303/4/3 337/3/3 336/1/3
f 304/1/5 338/2/5 337/4/5 303/3/5
f 305/3/2 301/1/2 335/2/2 339/4/2
f 306/1/5 340/2/5 338/4/5 304/3/5
f 307/3/2 305/1/2 339/2/2 341/4/2
f 308/1/5 342/2/5 340/4/5 306/3/5
f 309/3/2 307/1/2 341/2/2 343/4/2
f 310/1/5 344/2/5 342/4/5 308/3/5
f 311/3/2 309/1/2 343/2/2 345/4/2
f 312/1/5 346/2/5 344/4/5 310/3/5
f 313/3/2 311/1/2 345/2/2 347/4/2
f 314/1/5 348/2/5 346/4/5 312/3/5
f 315/3/2 313/1/2 347/2/2 349/4/2
f 316/1/5 350/2/5 348/4/5 314/3/5
f 317/3/2 315/1/2 349/2/2 351/4/2
f 318/1/5 352/2/5 350/4/5 316/3/5
f 319/3/2 317/1/2 351/2/2 353/4/2
f 320/1/5 354/2/5 352/4/5 318/3/5
f 321/3/2 319/1/2 353/2/2 355/4/2
f 322/1/5 356/2/5 354/4/5 320/3/5
f 323/3/2 321/1/2 355/2/2 357/4/2
f 324/1/5 358/2/5 356/4/5 322/3/5
f 325/3/2 323/1/2 357/2/2 359/4/2
f 326/1/5 360/2/5 358/4/5 324/3/5
f 327/3/2 325/1/2 359/2/2 361/4/2
f 328/1/5 362/2/5 360/4/5 326/3/5
f 329/3/2 327/1/2 361/2/2 363/4/2
f 330/1/5 364/2/5 362/4/5 328/3/5
f 331/3/2 329/1/2 363/2/2 365/4/2
f 332/1/5 366/2/5 364/4/5 330/3/5
f 333/3/2 331/1/2 365/2/2 367/4/2
f 334/1/5 368/2/5 366/4/5 332/3/5
f 333/1/6 367/2/6 368/4/6 334/3/6
f 335/3/2 336/1/2 370/2/2 369/4/2
f 336/2/3 337/4/3 371/3/3 370/1/3
f 338/1/5 372/2/5 371/4/5 337/3/5
f 339/3/2 335/1/2 369/2/2 373/4/2
f 340/1/5 374/2/5 372/4/5 338/3/5
f 341/3/2 339/1/2 373/2/2 375/4/2
f 342/1/5 376/2/5 374/4/5 340/3/5
f 343/3/2 341/1/2 375/2/2 377/4/2
f 344/1/5 378/2/5 376/4/5 342/3/5
f 345/3/2 343/1/2 377/2/2 379/4/2
f 346/1/5 380/2/5 378/4/5 344/3/5
f 347/3/2 345/1/2 379/2/2 381/4/2
f 348/1/5 382/2/5 380/4/5 346/3/5
f 349/3/2 347/1/2 381/2/2 383/4/2
f 350/1/5 384/2/5 382/4/5 348/3/5
f 351/3/2 349/1/2 383/2/2 385/4/2
f 352/1/5 386/2/5 384/4/5 350/3/5
f 353/3/2 351/1/2 385/2/2 387/4/2
f 354/1/5 388/2/5 386/4/5 352/3/5
f 355/3/2 353/1/2 387/2/2 389/4/2
f 356/1/5 390/2/5 388/4/5 354/3/5
f 357/3/2 355/1/2 389/2/2 391/4/2
f 358/1/5 392/2/5 390/4/5 356/3/5
f 359/3/2 357/1/2 391/2/2 393/4/2
f 360/1/5 394/2/5 392/4/5 358/3/5
f 361/3/2 359/1/2 393/2/2 395/4/2
f 362/1/5 396/2/5 394/4/5 360/3/5
f 363/3/2 361/1/2 395/2/2 397/4/2
f 364/1/5 398/2/5 396/4/5 362/3/5
f 365/3/2 363/1/2 397/2/2 399/4/2
f 366/1/5 400/2/5 398/4/5 364/3/5
f 367/3/2 365/1/2 399/2/2 401/4/2
f 368/1/5 402/2/5 400/4/5 366/3/5
f 367/1/6 401/2/6 402/4/6 368/3/6
f 369/3/2 370/1/2 404/2/2 403/4/2
f 370/2/3 371/4/3 405/3/3 404/1/3
f 372/1/5 406/2/5 405/4/5 371/3/5
f 373/3/2 369/1/2 403/2/2 407/4/2
f 374/1/5 408/2/5 406/4/5 372/3/5
f 375/3/2 373/1/2 407/2/2 409/4/2
f 376/1/5 410/2/5 408/4/5 374/3/5
f 377/3/2 375/1/2 409/2/2 411/4/2
f 378/1/5 412/2/5 410/4/5 376/3/5
f 379/3/2 377/1/2 411/2/2 413/4/2
f 380/1/5 414/2/5 412/4/5 378/3/5
f 381/3/2 379/1/2 413/2/2 415/4/2
f 382/1/5 416/2/5 414/4/5 380/3/5
f 383/3/2 381/1/2 415/2/2 417/4/2
f 384/1/5 418/2/5 416/4/5 382/3/5
f 385/3/2 383/1/2 417/2/2 419/4/2
f 386/1/5 420/2/5 418/4/5 384/3/5
f 387/3/2 385/1/2 419/2/2 421/4/2
f 388/1/5 422/2/5 420/4/5 386/3/5
f 389/3/2 387/1/2 421/2/2 423/4/2
f 390/1/5 424/2/5 422/4/5 388/3/5
f 391/3/2 389/1/2 423/2/2 425/4/2
f 392/1/5 426/2/5 424/4/5 390/3/5
f 393/3/2 391/1/2 425/2/2 427/4/2
f 394/1/5 428/2/5 426/4/5 392/3/5
f 395/3/2 393/1/2 427/2/2 429/4/2
f 396/1/5 430/2/5 428/4/5 394/3/5
f 397/3/2 395/1/2 429/2/2 431/4/2
f 398/1/5 432/2/5 430/4/5 396/3/5
f 399/3/2 397/1/2 431/2/2 433/4/2
f 400/1/5 434/2/5 432/4/5 398/3/5
f 401/3/2 399/1/2 433/2/2 435/4/2
f 402/1/5 436/2/5 434/4/5 400/3/5
f 401/1/6 435/2/6 436/4/6 402/3/6
f 403/3/2 404/1/2 438/2/2 437/4/2
f 404/2/3 405/4/3 439/3/3 438/1/3
f 406/1/5 440/2/5 439/4/5 405/3/5
f 407/3/2 403/1/2 437/2/2 441/4/2
f 408/1/5 442/2/5 440/4/5 406/3/5
f 409/3/2 407/1/2 441/2/2 443/4/2
f 410/1/5 444/2/5 442/4/5 408/3/5
f 411/3/2 409/1/2 443/2/2 445/4/2
f 412/1/5 446/2/5 444/4/5 410/3/5
f 413/3/2 411/1/2 445/2/2 447/4/2
f 414/1/5 448/2/5 446/4/5 412/3/5
f 415/3/2 413/1/2 447/2/2 449/4/2
f 416/1/5 450/2/5 448/4/5 414/3/5
f 417/3/2 415/1/2 449/2/2 451/4/2
f 418/1/5 452/2/5 450/4/5 416/3/5
f 419/3/2 417/1/2 451/2/2 453/4/2
f 420/1/5 454/2/5 452/4/5 418/3/5
f 421/3/2 419/1/2 453/2/2 455/4/2
f 422/1/5 456/2/5 454/4/5 420/3/5
f 423/3/2 421/1/2 455/2/2 457/4/2
f 424/1/5 458/2/5 456/4/5 422/3/5
f 425/3/2 423/1/2 457/2/2 459/4/2
f 426/1/5 460/2/5 458/4/5 424/3/5
f 427/3/2 425/1/2 459/2/2 461/4/2
f 428/1/5 462/2/5 460/4/5 426/3/5
f 429/3/2 427/1/2 461/2/2 463/4/2
f 430/1/5 464/2/5 462/4/5 428/3/5
f 431/3/2 429/1/2 463/2/2 465/4/2
f 432/1/5 466/2/5 464/4/5 430/3/5
f 433/3/2 431/1/2 465/2/2 467/4/2
f 434/1/5 468/2/5 466/4/5 432/3/5
f 435/3/2 433/1/2 467/2/2 469/4/2
f 436/1/5 470/2/5 468/4/5 434/3/5
f 435/1/6 469/2/6 470/4/6 436/3/6
f 437/3/2 438/1/2 472/2/2 471/4/2
f 438/2/3 439/4/3 473/3/3 472/1/3
f 440/1/5 474/2/5 473/4/5 439/3/5
f 441/3/2 437/1/2 471/2/2 475/4/2
f 442/1/5 476/2/5 474/4/5 440/3/5
f 443/3/2 441/1/2 475/2/2 477/4/2
f 444/1/5 478/2/5 476/4/5 442/3/5
f 445/3/2 443/1/2 477/2/2 479/4/2
f 446/1/5 480/2/5 478/4/5 444/3/5
f 447/3/2 445/1/2 479/2/2 481/4/2
f 448/1/5 482/2/5 480/4/5 446/3/5
f 449/3/2 447/1/2 481/2/2 483/4/2
f 450/1/5 484/2/5 482/4/5 448/3/5
f 451/3/2 449/1/2 483/2/2 485/4/2
f 452/1/5 486/2/5 484/4/5 450/3/5
f 453/3/2 451/1/2 485/2/2 487/4/2
f 454/1/5 488/2/5 486/4/5 452/3/5
f 455/3/2 453/1/2 487/2/2 489/4/2
f 456/1/5 490/2/5 488/4/5 454/3/5
f 457/3/2 455/1/2 489/2/2 491/4/2
f 458/1/5 492/2/5 490/4/5 456/3/5
f 459/3/2 457/1/2 491/2/2 493/4/2
f 460/1/5 494/2/5 492/4/5 458/3/5
f 461/3/2 459/1/2 493/2/2 495/4/2
f 462/1/5 496/2/5 494/4/5 460/3/5
f 463/3/2 461/1/2 495/2/2 497/4/2
f 464/1/5 498/2/5 496/4/5 462/3/5
f 465/3/2 463/1/2 497/2/2 499/4/2
f 466/1/5 500/2/5 498/4/5 464/3/5
f 467/3/2 465/1/2 499/2/2 501/4/2
f 468/1/5 502/2/5 500/4/5 466/3/5
f 469/3/2 467/1/2 501/2/2 503/4/2
f 470/1/5 504/2/5 502/4/5 468/3/5
f 469/1/6 503/2/6 504/4/6 470/3/6
f 471/3/2 472/1/2 506/2/2 505/4/2
f 472/2/3 473/4/3 507/3/3 506/1/3
f 474/1/5 508/2/5 507/4/5 473/3/5
f 475/3/2 471/1/2 505/2/2 509/4/2
f 476/1/5 510/2/5 508/4/5 474/3/5
f 477/3/2 475/1/2 509/2/2 511/4/2
f 478/1/5 512/2/5 510/4/5 476/3/5
f 479/3/2 477/1/2 511/2/2 513/4/2
f 480/1/5 514/2/5 512/4/5 478/3/5
f 481/3/2 479/1/2 513/2/2 515/4/2
f 482/1/5 516/2/5 514/4/5 480/3/5
f 483/3/2 481/1/2 515/2/2 517/4/2
f 484/1/5 518/2/5 516/4/5 482/3/5
f 485/3/2 483/1/2 517/2/2 519/4/2
f 486/1/5 520/2/5 518/4/5 484/3/5
f 487/3/2 485/1/2 519/2/2 521/4/2
f 488/1/5 522/2/5 520/4/5 486/3/5
f 489/3/2 487/1/2 521/2/2 523/4/2
f 490/1/5 524/2/5 522/4/5 488/3/5
f 491/3/2 489/1/2 523/2/2 525/4/2
f 492/1/5 526/2/5 524/4/5 490/3/5
f 493/3/2 491/1/2 525/2/2 527/4/2
f 494/1/5 528/2/5 526/4/5 492/3/5
f 495/3/2 493/1/2 527/2/2 529/4/2
f 496/1/5 530/2/5 528/4/5 494/3/5
f 497/3/2 495/1/2 529/2/2 531/4/2
f 498/1/5 532/2/5 530/4/5 496/3/5
f 499/3/2 497/1/2 531/2/2 533/4/2
f 500/1/5 534/2/5 532/4/5 498/3/5
f 501/3/2 499/1/2 533/2/2 535/4/2
f 502/1/5 536/2/5 534/4/5 500/3/5
f 503/3/2 501/1/2 535/2/2 537/4/2
f 504/1/5 538/2/5 536/4/5 502/3/5
f 503/1/6 537/2/6 538/4/6 504/3/6
f 505/3/2 506/1/2 540/2/2 539/4/2
f 506/2/3 507/4/3 541/3/3 540/1/3
f 508/1/5 542/2/5 541/4/5 507/3/5
f 509/3/2 505/1/2 539/2/2 543/4/2
f 510/1/5 544/2/5 542/4/5 508/3/5
f 511/3/2 509/1/2 543/2/2 545/4/2
f 512/1/5 546/2/5 544/4/5 510/3/5
f 513/3/2 511/1/2 545/2/2 547/4/2
f 514/1/5 548/2/5 546/4/5 512/3/5
f 515/3/2 513/1/2 547/2/2 549/4/2
f 516/1/5 550/2/5 548/4/5 514/3/5
f 517/3/2 515/1/2 549/2/2 551/4/2
f 518/1/5 552/2/5 550/4/5 516/3/5
f 519/3/2 517/1/2 551/2/2 553/4/2
f 520/1/5 554/2/5 552/4/5 518/3/5
f 521/3/2 519/1/2 553/2/2 555/4/2
f 522/1/5 556/2/5 554/4/5 520/3/5
f 523/3/2 521/1/2 555/2/2 557/4/2
f 524/1/5 558/2/5 556/4/5 522/3/5
f 525/3/2 523/1/2 557/2/2 559/4/2
f 526/1/5 560/2/5 558/4/5 524/3/5
f 527/3/2 525/1/2 559/2/2 561/4/2
f 528/1/5 562/2/5 560/4/5 526/3/5
f 529/3/2 527/1/2 561/2/2 563/4/2
f 530/1/5 564/2/5 562/4/5 528/3/5
f 531/3/2 529/1/2 563/2/2 565/4/2
f 532/1/5 566/2/5 564/4/5 530/3/5
f 533/3/2 531/1/2 565/2/2 567/4/2
f 534/1/5 568/2/5 566/4/5 532/3/5
f 535/3/2 533/1/2 567/2/2 569/4/2
f 536/1/5 570/2/5 568/4/5 534/3/5
f 537/3/2 535/1/2 569/2/2 571/4/2
f 538/1/5 572/2/5 570/4/5 536/3/5
f 537/1/6 571/2/6 572/4/6 538/3/6
f 539/3/2 540/1/2 574/2/2 573/4/2
f 540/2/3 541/4/3 575/3/3 574/1/3
f 542/1/5 576/2/5 575/4/5 541/3/5
f 578/2/1 579/4/1 580/3/1 577/1/1
f 578/3/2 577/1/2 582/2/2 581/4/2
f 577/2/3 580/4/3 583/3/3 582/1/3
f 578/1/6 581/2/6 584/4/6 579/3/6
f 579/2/1 585/4/1 586/3/1 580/1/1
f 580/2/3 586/4/3 587/3/3 583/1/3
f 579/1/6 584/2/6 588/4/6 585/3/6
f 585/2/1 589/4/1 590/3/1 586/1/1
f 586/2/3 590/4/3 591/3/3 587/1/3
f 585/1/6 588/2/6 592/4/6 589/3/6
f 589/2/1 593/4/1 594/3/1 590/1/1
f 590/2/3 594/4/3 595/3/3 591/1/3
f 589/1/6 592/2/6 596/4/6 593/3/6
f 593/2/1 597/4/1 598/3/1 594/1/1
f 594/2/3 598/4/3 599/3/3 595/1/3
f 593/1/6 596/2/6 600/4/6 597/3/6
f 597/2/1 543/4/1 539/3/1 598/1/1
f 598/2/3 539/4/3 573/3/3 599/1/3
f 597/1/6 600/2/6 601/4/6 543/3/6
f 544/1/5 602/2/5 576/4/5 542/3/5
f 545/3/2 543/1/2 601/2/2 603/4/2
f 546/1/5 604/2/5 602/4/5 544/3/5
f 547/3/2 545/1/2 603/2/2 605/4/2
f 548/1/5 606/2/5 604/4/5 546/3/5
f 549/3/2 547/1/2 605/2/2 607/4/2
f 550/1/5 608/2/5 606/4/5 548/3/5
f 551/3/2 549/1/2 607/2/2 609/4/2
f 552/1/5 610/2/5 608/4/5 550/3/5
f 553/3/2 551/1/2 609/2/2 611/4/2
f 554/1/5 612/2/5 610/4/5 552/3/5
f 555/3/2 553/1/2 611/2/2 613/4/2
f 556/1/5 614/2/5 612/4/5 554/3/5
f 557/3/2 555/1/2 613/2/2 615/4/2
f 558/1/5 616/2/5 614/4/5 556/3/5
f 559/3/2 557/1/2 615/2/2 617/4/2
f 560/1/5 618/2/5 616/4/5 558/3/5
f 561/3/2 559/1/2 617/2/2 619/4/2
f 562/1/5 620/2/5 618/4/5 560/3/5
f 563/3/2 561/1/2 619/2/2 621/4/2
f 564/1/5 622/2/5 620/4/5 562/3/5
f 565/3/2 563/1/2 621/2/2 623/4/2
f 566/1/5 624/2/5 622/4/5 564/3/5
f 567/3/2 565/1/2 623/2/2 625/4/2
f 568/1/5 626/2/5 624/4/5 566/3/5
f 628/2/1 629/4/1 630/3/1 627/1/1
f 628/3/2 627/1/2 632/2/2 631/4/2
f 627/2/3 630/4/3 633/3/3 632/1/3
f 628/1/6 631/2/6 634/4/6 629/3/6
f 629/2/1 635/4/1 636/3/1 630/1/1
f 630/2/3 636/4/3 637/3/3 633/1/3
f 629/1/6 634/2/6 638/4/6 635/3/6
f 635/2/1 639/4/1 640/3/1 636/1/1
f 636/2/3 640/4/3 641/3/3 637/1/3
f 635/1/6 638/2/6 642/4/6 639/3/6
f 639/2/1 643/4/1 644/3/1 640/1/1
f 640/2/3 644/4/3 645/3/3 641/1/3
f 639/1/6 642/2/6 646/4/6 643/3/6
f 643/2/1 647/4/1 648/3/1 644/1/1
f 644/2/3 648/4/3 649/3/3 645/1/3
f 643/1/6 646/2/6 650/4/6 647/3/6
f 647/2/1 569/4/1 567/3/1 648/1/1
f 648/2/3 567/4/3 625/3/3 649/1/3
f 647/1/6 650/2/6 651/4/6 569/3/6
f 570/1/5 652/2/5 626/4/5 568/3/5
f 571/3/2 569/1/2 651/2/2 653/4/2
f 572/1/5 654/2/5 652/4/5 570/3/5
f 571/1/6 653/2/6 654/4/6 572/3/6
f 573/3/2 574/1/2 656/2/2 655/4/2
f 574/2/3 575/4/3 657/3/3 656/1/3
f 576/1/5 658/2/5 657/4/5 575/3/5
f 581/3/2 582/1/2 660/2/2 659/4/2
f 582/2/3 583/4/3 661/3/3 660/1/3
f 659/1/4 660/2/4 661/4/4 662/3/4
f 583/2/3 587/4/3 663/3/3 661/1/3
f 662/1/4 661/2/4 663/4/4 664/3/4
f 587/2/3 591/4/3 665/3/3 663/1/3
f 664/1/4 663/2/4 665/4/4 666/3/4
f 591/2/3 595/4/3 667/3/3 665/1/3
f 666/1/4 665/2/4 667/4/4 668/3/4
f 595/2/3 599/4/3 669/3/3 667/1/3
f 668/1/4 667/2/4 669/4/4 670/3/4
f 599/2/3 573/4/3 655/3/3 669/1/3
f 670/1/4 669/2/4 655/4/4 671/3/4
f 602/1/5 672/2/5 658/4/5 576/3/5
f 673/2/1 674/4/1 584/3/1 581/1/1
f 673/3/2 581/1/2 659/2/2 675/4/2
f 675/1/4 659/2/4 662/4/4 676/3/4
f 673/1/6 675/2/6 676/4/6 674/3/6
f 674/2/1 677/4/1 588/3/1 584/1/1
f 676/1/4 662/2/4 664/4/4 678/3/4
f 674/1/6 676/2/6 678/4/6 677/3/6
f 677/2/1 679/4/1 592/3/1 588/1/1
f 678/1/4 664/2/4 666/4/4 680/3/4
f 677/1/6 678/2/6 680/4/6 679/3/6
f 679/2/1 681/4/1 596/3/1 592/1/1
f 680/1/4 666/2/4 668/4/4 682/3/4
f 679/1/6 680/2/6 682/4/6 681/3/6
f 681/2/1 683/4/1 600/3/1 596/1/1
f 682/1/4 668/2/4 670/4/4 684/3/4
f 681/1/6 682/2/6 684/4/6 683/3/6
f 683/2/1 603/4/1 601/3/1 600/1/1
f 684/1/4 670/2/4 671/4/4 685/3/4
f 683/1/6 684/2/6 685/4/6 603/3/6
f 604/1/5 686/2/5 672/4/5 602/3/5
f 605/3/2 603/1/2 685/2/2 687/4/2
f 606/1/5 688/2/5 686/4/5 604/3/5
f 607/3/2 605/1/2 687/2/2 689/4/2
f 608/1/5 690/2/5 688/4/5 606/3/5
f 609/3/2 607/1/2 689/2/2 691/4/2
f 610/1/5 692/2/5 690/4/5 608/3/5
f 611/3/2 609/1/2 691/2/2 693/4/2
f 612/1/5 694/2/5 692/4/5 610/3/5
f 613/3/2 611/1/2 693/2/2 695/4/2
f 614/1/5 696/2/5 694/4/5 612/3/5
f 615/3/2 613/1/2 695/2/2 697/4/2
f 616/1/5 698/2/5 696/4/5 614/3/5
f 617/3/2 615/1/2 697/2/2 699/4/2
f 618/1/5 700/2/5 698/4/5 616/3/5
f 619/3/2 617/1/2 699/2/2 701/4/2
f 620/1/5 702/2/5 700/4/5 618/3/5
f 621/3/2 619/1/2 701/2/2 703/4/2
f 622/1/5 704/2/5 702/4/5 620/3/5
f 623/3/2 621/1/2 703/2/2 705/4/2
f 624/1/5 706/2/5 704/4/5 622/3/5
f 632/2/1 633/4/1 708/3/1 707/1/1
f 632/3/2 707/1/2 710/2/2 709/4/2
f 707/2/3 708/4/3 711/3/3 710/1/3
f 709/1/4 710/2/4 711/4/4 712/3/4
f 633/2/1 637/4/1 713/3/1 708/1/1
f 708/2/3 713/4/3 714/3/3 711/1/3
f 712/1/4 711/2/4 714/4/4 715/3/4
f 637/2/1 641/4/1 716/3/1 713/1/1
f 713/2/3 716/4/3 717/3/3 714/1/3
f 715/1/4 714/2/4 717/4/4 718/3/4
f 641/2/1 645/4/1 719/3/1 716/1/1
f 716/2/3 719/4/3 720/3/3 717/1/3
f 718/1/4 717/2/4 720/4/4 721/3/4
f 645/2/1 649/4/1 722/3/1 719/1/1
f 719/2/3 722/4/3 723/3/3 720/1/3
f 721/1/4 720/2/4 723/4/4 724/3/4
f 649/2/1 625/4/1 623/3/1 722/1/1
f 722/2/3 623/4/3 705/3/3 723/1/3
f 724/1/4 723/2/4 705/4/4 725/3/4
f 626/1/5 726/2/5 706/4/5 624/3/5
f 631/3/2 632/1/2 709/2/2 727/4/2
f 727/1/4 709/2/4 712/4/4 728/3/4
f 631/1/6 727/2/6 728/4/6 634/3/6
f 728/1/4 712/2/4 715/4/4 729/3/4
f 634/1/6 728/2/6 729/4/6 638/3/6
f 729/1/4 715/2/4 718/4/4 730/3/4
f 638/1/6 729/2/6 730/4/6 642/3/6
f 730/1/4 718/2/4 721/4/4 731/3/4
f 642/1/6 730/2/6 731/4/6 646/3/6
f 731/1/4 721/2/4 724/4/4 732/3/4
f 646/1/6 731/2/6 732/4/6 650/3/6
f 732/1/4 724/2/4 725/4/4 733/3/4
f 650/1/6 732/2/6 733/4/6 651/3/6
f 652/1/5 734/2/5 726/4/5 626/3/5
f 653/3/2 651/1/2 733/2/2 735/4/2
f 654/1/5 736/2/5 734/4/5 652/3/5
f 653/1/6 735/2/6 736/4/6 654/3/6
f 655/3/2 656/1/2 738/2/2 737/4/2
f 656/2/3 657/4/3 739/3/3 738/1/3
f 737/1/4 738/2/4 739/4/4 740/3/4
f 658/1/5 740/2/5 739/4/5 657/3/5
f 671/3/2 655/1/2 737/2/2 741/4/2
f 741/1/4 737/2/4 740/4/4 742/3/4
f 672/1/5 742/2/5 740/4/5 658/3/5
f 685/3/2 671/1/2 741/2/2 743/4/2
f 743/1/4 741/2/4 742/4/4 744/3/4
f 686/1/5 744/2/5 742/4/5 672/3/5
f 687/3/2 685/1/2 743/2/2 745/4/2
f 745/1/4 743/2/4 744/4/4 746/3/4
f 688/1/5 746/2/5 744/4/5 686/3/5
f 689/3/2 687/1/2 745/2/2 747/4/2
f 747/1/4 745/2/4 746/4/4 748/3/4
f 690/1/5 748/2/5 746/4/5 688/3/5
f 691/3/2 689/1/2 747/2/2 749/4/2
f 749/1/4 747/2/4 748/4/4 750/3/4
f 692/1/5 750/2/5 748/4/5 690/3/5
f 693/3/2 691/1/2 749/2/2 751/4/2
f 751/1/4 749/2/4 750/4/4 752/3/4
f 694/1/5 752/2/5 750/4/5 692/3/5
f 695/3/2 693/1/2 751/2/2 753/4/2
f 753/1/4 751/2/4 752/4/4 754/3/4
f 696/1/5 754/2/5 752/4/5 694/3/5
f 697/3/2 695/1/2 753/2/2 755/4/2
f 755/1/4 753/2/4 754/4/4 756/3/4
f 698/1/5 756/2/5 754/4/5 696/3/5
f 699/3/2 697/1/2 755/2/2 757/4/2
f 757/1/4 755/2/4 756/4/4 758/3/4
f 700/1/5 758/2/5 756/4/5 698/3/5
f 701/3/2 699/1/2 757/2/2 759/4/2
f 759/1/4 757/2/4 758/4/4 760/3/4
f 702/1/5 760/2/5 758/4/5 700/3/5
f 703/3/2 701/1/2 759/2/2 761/4/2
f 761/1/4 759/2/4 760/4/4 762/3/4
f 704/1/5 762/2/5 760/4/5 702/3/5
f 705/3/2 703/1/2 761/2/2 763/4/2
f 763/1/4 761/2/4 762/4/4 764/3/4
f 706/1/5 764/2/5 762/4/5 704/3/5
f 725/3/2 705/1/2 763/2/2 765/4/2
f 765/1/4 763/2/4 764/4/4 766/3/4
f 726/1/5 766/2/5 764/4/5 706/3/5
f 733/3/2 725/1/2 765/2/2 767/4/2
f 767/1/4 765/2/4 766/4/4 768/3/4
f 734/1/5 768/2/5 766/4/5 726/3/5
f 735/3/2 733/1/2 767/2/2 769/4/2
f 769/1/4 767/2/4 768/4/4 770/3/4
f 736/1/5 770/2/5 768/4/5 734/3/5
f 735/1/6 769/2/6 770/4/6 736/3/6
